%TF.GenerationSoftware,KiCad,Pcbnew,9.0.6*%
%TF.CreationDate,2025-12-23T13:14:00+01:00*%
%TF.ProjectId,MainBoard,4d61696e-426f-4617-9264-2e6b69636164,rev?*%
%TF.SameCoordinates,Original*%
%TF.FileFunction,Legend,Top*%
%TF.FilePolarity,Positive*%
%FSLAX46Y46*%
G04 Gerber Fmt 4.6, Leading zero omitted, Abs format (unit mm)*
G04 Created by KiCad (PCBNEW 9.0.6) date 2025-12-23 13:14:00*
%MOMM*%
%LPD*%
G01*
G04 APERTURE LIST*
%ADD10C,0.300000*%
%ADD11C,0.100000*%
%ADD12C,0.150000*%
%ADD13C,0.200000*%
%ADD14C,2.000000*%
%ADD15C,0.120000*%
%ADD16C,0.127000*%
G04 APERTURE END LIST*
D10*
X112054510Y-46300828D02*
X112054510Y-44800828D01*
X112054510Y-44800828D02*
X112554510Y-45872257D01*
X112554510Y-45872257D02*
X113054510Y-44800828D01*
X113054510Y-44800828D02*
X113054510Y-46300828D01*
X113625939Y-44800828D02*
X114554511Y-44800828D01*
X114554511Y-44800828D02*
X114054511Y-45372257D01*
X114054511Y-45372257D02*
X114268796Y-45372257D01*
X114268796Y-45372257D02*
X114411654Y-45443685D01*
X114411654Y-45443685D02*
X114483082Y-45515114D01*
X114483082Y-45515114D02*
X114554511Y-45657971D01*
X114554511Y-45657971D02*
X114554511Y-46015114D01*
X114554511Y-46015114D02*
X114483082Y-46157971D01*
X114483082Y-46157971D02*
X114411654Y-46229400D01*
X114411654Y-46229400D02*
X114268796Y-46300828D01*
X114268796Y-46300828D02*
X113840225Y-46300828D01*
X113840225Y-46300828D02*
X113697368Y-46229400D01*
X113697368Y-46229400D02*
X113625939Y-46157971D01*
X31054510Y-46300828D02*
X31054510Y-44800828D01*
X31054510Y-44800828D02*
X31554510Y-45872257D01*
X31554510Y-45872257D02*
X32054510Y-44800828D01*
X32054510Y-44800828D02*
X32054510Y-46300828D01*
X32625939Y-44800828D02*
X33554511Y-44800828D01*
X33554511Y-44800828D02*
X33054511Y-45372257D01*
X33054511Y-45372257D02*
X33268796Y-45372257D01*
X33268796Y-45372257D02*
X33411654Y-45443685D01*
X33411654Y-45443685D02*
X33483082Y-45515114D01*
X33483082Y-45515114D02*
X33554511Y-45657971D01*
X33554511Y-45657971D02*
X33554511Y-46015114D01*
X33554511Y-46015114D02*
X33483082Y-46157971D01*
X33483082Y-46157971D02*
X33411654Y-46229400D01*
X33411654Y-46229400D02*
X33268796Y-46300828D01*
X33268796Y-46300828D02*
X32840225Y-46300828D01*
X32840225Y-46300828D02*
X32697368Y-46229400D01*
X32697368Y-46229400D02*
X32625939Y-46157971D01*
X29554510Y-159300828D02*
X29554510Y-157800828D01*
X29554510Y-157800828D02*
X30054510Y-158872257D01*
X30054510Y-158872257D02*
X30554510Y-157800828D01*
X30554510Y-157800828D02*
X30554510Y-159300828D01*
X31125939Y-157800828D02*
X32054511Y-157800828D01*
X32054511Y-157800828D02*
X31554511Y-158372257D01*
X31554511Y-158372257D02*
X31768796Y-158372257D01*
X31768796Y-158372257D02*
X31911654Y-158443685D01*
X31911654Y-158443685D02*
X31983082Y-158515114D01*
X31983082Y-158515114D02*
X32054511Y-158657971D01*
X32054511Y-158657971D02*
X32054511Y-159015114D01*
X32054511Y-159015114D02*
X31983082Y-159157971D01*
X31983082Y-159157971D02*
X31911654Y-159229400D01*
X31911654Y-159229400D02*
X31768796Y-159300828D01*
X31768796Y-159300828D02*
X31340225Y-159300828D01*
X31340225Y-159300828D02*
X31197368Y-159229400D01*
X31197368Y-159229400D02*
X31125939Y-159157971D01*
X108554510Y-151300828D02*
X108554510Y-149800828D01*
X108554510Y-149800828D02*
X109054510Y-150872257D01*
X109054510Y-150872257D02*
X109554510Y-149800828D01*
X109554510Y-149800828D02*
X109554510Y-151300828D01*
X110125939Y-149800828D02*
X111054511Y-149800828D01*
X111054511Y-149800828D02*
X110554511Y-150372257D01*
X110554511Y-150372257D02*
X110768796Y-150372257D01*
X110768796Y-150372257D02*
X110911654Y-150443685D01*
X110911654Y-150443685D02*
X110983082Y-150515114D01*
X110983082Y-150515114D02*
X111054511Y-150657971D01*
X111054511Y-150657971D02*
X111054511Y-151015114D01*
X111054511Y-151015114D02*
X110983082Y-151157971D01*
X110983082Y-151157971D02*
X110911654Y-151229400D01*
X110911654Y-151229400D02*
X110768796Y-151300828D01*
X110768796Y-151300828D02*
X110340225Y-151300828D01*
X110340225Y-151300828D02*
X110197368Y-151229400D01*
X110197368Y-151229400D02*
X110125939Y-151157971D01*
D11*
X61190476Y-125957419D02*
X61190476Y-126671704D01*
X61190476Y-126671704D02*
X61142857Y-126814561D01*
X61142857Y-126814561D02*
X61047619Y-126909800D01*
X61047619Y-126909800D02*
X60904762Y-126957419D01*
X60904762Y-126957419D02*
X60809524Y-126957419D01*
X62190476Y-126957419D02*
X61619048Y-126957419D01*
X61904762Y-126957419D02*
X61904762Y-125957419D01*
X61904762Y-125957419D02*
X61809524Y-126100276D01*
X61809524Y-126100276D02*
X61714286Y-126195514D01*
X61714286Y-126195514D02*
X61619048Y-126243133D01*
X62571429Y-126052657D02*
X62619048Y-126005038D01*
X62619048Y-126005038D02*
X62714286Y-125957419D01*
X62714286Y-125957419D02*
X62952381Y-125957419D01*
X62952381Y-125957419D02*
X63047619Y-126005038D01*
X63047619Y-126005038D02*
X63095238Y-126052657D01*
X63095238Y-126052657D02*
X63142857Y-126147895D01*
X63142857Y-126147895D02*
X63142857Y-126243133D01*
X63142857Y-126243133D02*
X63095238Y-126385990D01*
X63095238Y-126385990D02*
X62523810Y-126957419D01*
X62523810Y-126957419D02*
X63142857Y-126957419D01*
X88565476Y-78532419D02*
X88565476Y-79246704D01*
X88565476Y-79246704D02*
X88517857Y-79389561D01*
X88517857Y-79389561D02*
X88422619Y-79484800D01*
X88422619Y-79484800D02*
X88279762Y-79532419D01*
X88279762Y-79532419D02*
X88184524Y-79532419D01*
X89565476Y-79532419D02*
X88994048Y-79532419D01*
X89279762Y-79532419D02*
X89279762Y-78532419D01*
X89279762Y-78532419D02*
X89184524Y-78675276D01*
X89184524Y-78675276D02*
X89089286Y-78770514D01*
X89089286Y-78770514D02*
X88994048Y-78818133D01*
X90422619Y-78532419D02*
X90232143Y-78532419D01*
X90232143Y-78532419D02*
X90136905Y-78580038D01*
X90136905Y-78580038D02*
X90089286Y-78627657D01*
X90089286Y-78627657D02*
X89994048Y-78770514D01*
X89994048Y-78770514D02*
X89946429Y-78960990D01*
X89946429Y-78960990D02*
X89946429Y-79341942D01*
X89946429Y-79341942D02*
X89994048Y-79437180D01*
X89994048Y-79437180D02*
X90041667Y-79484800D01*
X90041667Y-79484800D02*
X90136905Y-79532419D01*
X90136905Y-79532419D02*
X90327381Y-79532419D01*
X90327381Y-79532419D02*
X90422619Y-79484800D01*
X90422619Y-79484800D02*
X90470238Y-79437180D01*
X90470238Y-79437180D02*
X90517857Y-79341942D01*
X90517857Y-79341942D02*
X90517857Y-79103847D01*
X90517857Y-79103847D02*
X90470238Y-79008609D01*
X90470238Y-79008609D02*
X90422619Y-78960990D01*
X90422619Y-78960990D02*
X90327381Y-78913371D01*
X90327381Y-78913371D02*
X90136905Y-78913371D01*
X90136905Y-78913371D02*
X90041667Y-78960990D01*
X90041667Y-78960990D02*
X89994048Y-79008609D01*
X89994048Y-79008609D02*
X89946429Y-79103847D01*
X54190476Y-141957419D02*
X54190476Y-142671704D01*
X54190476Y-142671704D02*
X54142857Y-142814561D01*
X54142857Y-142814561D02*
X54047619Y-142909800D01*
X54047619Y-142909800D02*
X53904762Y-142957419D01*
X53904762Y-142957419D02*
X53809524Y-142957419D01*
X55190476Y-142957419D02*
X54619048Y-142957419D01*
X54904762Y-142957419D02*
X54904762Y-141957419D01*
X54904762Y-141957419D02*
X54809524Y-142100276D01*
X54809524Y-142100276D02*
X54714286Y-142195514D01*
X54714286Y-142195514D02*
X54619048Y-142243133D01*
X56142857Y-142957419D02*
X55571429Y-142957419D01*
X55857143Y-142957419D02*
X55857143Y-141957419D01*
X55857143Y-141957419D02*
X55761905Y-142100276D01*
X55761905Y-142100276D02*
X55666667Y-142195514D01*
X55666667Y-142195514D02*
X55571429Y-142243133D01*
D12*
X80711905Y-101104819D02*
X80711905Y-100104819D01*
X80711905Y-100104819D02*
X80950000Y-100104819D01*
X80950000Y-100104819D02*
X81092857Y-100152438D01*
X81092857Y-100152438D02*
X81188095Y-100247676D01*
X81188095Y-100247676D02*
X81235714Y-100342914D01*
X81235714Y-100342914D02*
X81283333Y-100533390D01*
X81283333Y-100533390D02*
X81283333Y-100676247D01*
X81283333Y-100676247D02*
X81235714Y-100866723D01*
X81235714Y-100866723D02*
X81188095Y-100961961D01*
X81188095Y-100961961D02*
X81092857Y-101057200D01*
X81092857Y-101057200D02*
X80950000Y-101104819D01*
X80950000Y-101104819D02*
X80711905Y-101104819D01*
X82188095Y-100104819D02*
X81711905Y-100104819D01*
X81711905Y-100104819D02*
X81664286Y-100581009D01*
X81664286Y-100581009D02*
X81711905Y-100533390D01*
X81711905Y-100533390D02*
X81807143Y-100485771D01*
X81807143Y-100485771D02*
X82045238Y-100485771D01*
X82045238Y-100485771D02*
X82140476Y-100533390D01*
X82140476Y-100533390D02*
X82188095Y-100581009D01*
X82188095Y-100581009D02*
X82235714Y-100676247D01*
X82235714Y-100676247D02*
X82235714Y-100914342D01*
X82235714Y-100914342D02*
X82188095Y-101009580D01*
X82188095Y-101009580D02*
X82140476Y-101057200D01*
X82140476Y-101057200D02*
X82045238Y-101104819D01*
X82045238Y-101104819D02*
X81807143Y-101104819D01*
X81807143Y-101104819D02*
X81711905Y-101057200D01*
X81711905Y-101057200D02*
X81664286Y-101009580D01*
X77228571Y-103262295D02*
X76771428Y-103262295D01*
X77000000Y-103262295D02*
X77000000Y-102462295D01*
X77000000Y-102462295D02*
X76923809Y-102576580D01*
X76923809Y-102576580D02*
X76847619Y-102652771D01*
X76847619Y-102652771D02*
X76771428Y-102690866D01*
D11*
X52207419Y-180095833D02*
X52921704Y-180095833D01*
X52921704Y-180095833D02*
X53064561Y-180143452D01*
X53064561Y-180143452D02*
X53159800Y-180238690D01*
X53159800Y-180238690D02*
X53207419Y-180381547D01*
X53207419Y-180381547D02*
X53207419Y-180476785D01*
X52302657Y-179667261D02*
X52255038Y-179619642D01*
X52255038Y-179619642D02*
X52207419Y-179524404D01*
X52207419Y-179524404D02*
X52207419Y-179286309D01*
X52207419Y-179286309D02*
X52255038Y-179191071D01*
X52255038Y-179191071D02*
X52302657Y-179143452D01*
X52302657Y-179143452D02*
X52397895Y-179095833D01*
X52397895Y-179095833D02*
X52493133Y-179095833D01*
X52493133Y-179095833D02*
X52635990Y-179143452D01*
X52635990Y-179143452D02*
X53207419Y-179714880D01*
X53207419Y-179714880D02*
X53207419Y-179095833D01*
D12*
X27885714Y-144254819D02*
X27885714Y-143254819D01*
X27885714Y-143254819D02*
X28123809Y-143254819D01*
X28123809Y-143254819D02*
X28266666Y-143302438D01*
X28266666Y-143302438D02*
X28361904Y-143397676D01*
X28361904Y-143397676D02*
X28409523Y-143492914D01*
X28409523Y-143492914D02*
X28457142Y-143683390D01*
X28457142Y-143683390D02*
X28457142Y-143826247D01*
X28457142Y-143826247D02*
X28409523Y-144016723D01*
X28409523Y-144016723D02*
X28361904Y-144111961D01*
X28361904Y-144111961D02*
X28266666Y-144207200D01*
X28266666Y-144207200D02*
X28123809Y-144254819D01*
X28123809Y-144254819D02*
X27885714Y-144254819D01*
X29409523Y-144254819D02*
X28838095Y-144254819D01*
X29123809Y-144254819D02*
X29123809Y-143254819D01*
X29123809Y-143254819D02*
X29028571Y-143397676D01*
X29028571Y-143397676D02*
X28933333Y-143492914D01*
X28933333Y-143492914D02*
X28838095Y-143540533D01*
X30028571Y-143254819D02*
X30123809Y-143254819D01*
X30123809Y-143254819D02*
X30219047Y-143302438D01*
X30219047Y-143302438D02*
X30266666Y-143350057D01*
X30266666Y-143350057D02*
X30314285Y-143445295D01*
X30314285Y-143445295D02*
X30361904Y-143635771D01*
X30361904Y-143635771D02*
X30361904Y-143873866D01*
X30361904Y-143873866D02*
X30314285Y-144064342D01*
X30314285Y-144064342D02*
X30266666Y-144159580D01*
X30266666Y-144159580D02*
X30219047Y-144207200D01*
X30219047Y-144207200D02*
X30123809Y-144254819D01*
X30123809Y-144254819D02*
X30028571Y-144254819D01*
X30028571Y-144254819D02*
X29933333Y-144207200D01*
X29933333Y-144207200D02*
X29885714Y-144159580D01*
X29885714Y-144159580D02*
X29838095Y-144064342D01*
X29838095Y-144064342D02*
X29790476Y-143873866D01*
X29790476Y-143873866D02*
X29790476Y-143635771D01*
X29790476Y-143635771D02*
X29838095Y-143445295D01*
X29838095Y-143445295D02*
X29885714Y-143350057D01*
X29885714Y-143350057D02*
X29933333Y-143302438D01*
X29933333Y-143302438D02*
X30028571Y-143254819D01*
X29362295Y-152071428D02*
X29362295Y-152528571D01*
X29362295Y-152299999D02*
X28562295Y-152299999D01*
X28562295Y-152299999D02*
X28676580Y-152376190D01*
X28676580Y-152376190D02*
X28752771Y-152452380D01*
X28752771Y-152452380D02*
X28790866Y-152528571D01*
D11*
X122042580Y-158166666D02*
X121328295Y-158166666D01*
X121328295Y-158166666D02*
X121185438Y-158119047D01*
X121185438Y-158119047D02*
X121090200Y-158023809D01*
X121090200Y-158023809D02*
X121042580Y-157880952D01*
X121042580Y-157880952D02*
X121042580Y-157785714D01*
X122042580Y-158547619D02*
X122042580Y-159166666D01*
X122042580Y-159166666D02*
X121661628Y-158833333D01*
X121661628Y-158833333D02*
X121661628Y-158976190D01*
X121661628Y-158976190D02*
X121614009Y-159071428D01*
X121614009Y-159071428D02*
X121566390Y-159119047D01*
X121566390Y-159119047D02*
X121471152Y-159166666D01*
X121471152Y-159166666D02*
X121233057Y-159166666D01*
X121233057Y-159166666D02*
X121137819Y-159119047D01*
X121137819Y-159119047D02*
X121090200Y-159071428D01*
X121090200Y-159071428D02*
X121042580Y-158976190D01*
X121042580Y-158976190D02*
X121042580Y-158690476D01*
X121042580Y-158690476D02*
X121090200Y-158595238D01*
X121090200Y-158595238D02*
X121137819Y-158547619D01*
D12*
X74900057Y-132471428D02*
X74852438Y-132566666D01*
X74852438Y-132566666D02*
X74757200Y-132661904D01*
X74757200Y-132661904D02*
X74614342Y-132804761D01*
X74614342Y-132804761D02*
X74566723Y-132899999D01*
X74566723Y-132899999D02*
X74566723Y-132995237D01*
X74804819Y-132947618D02*
X74757200Y-133042856D01*
X74757200Y-133042856D02*
X74661961Y-133138094D01*
X74661961Y-133138094D02*
X74471485Y-133185713D01*
X74471485Y-133185713D02*
X74138152Y-133185713D01*
X74138152Y-133185713D02*
X73947676Y-133138094D01*
X73947676Y-133138094D02*
X73852438Y-133042856D01*
X73852438Y-133042856D02*
X73804819Y-132947618D01*
X73804819Y-132947618D02*
X73804819Y-132757142D01*
X73804819Y-132757142D02*
X73852438Y-132661904D01*
X73852438Y-132661904D02*
X73947676Y-132566666D01*
X73947676Y-132566666D02*
X74138152Y-132519047D01*
X74138152Y-132519047D02*
X74471485Y-132519047D01*
X74471485Y-132519047D02*
X74661961Y-132566666D01*
X74661961Y-132566666D02*
X74757200Y-132661904D01*
X74757200Y-132661904D02*
X74804819Y-132757142D01*
X74804819Y-132757142D02*
X74804819Y-132947618D01*
X74804819Y-131566666D02*
X74804819Y-132138094D01*
X74804819Y-131852380D02*
X73804819Y-131852380D01*
X73804819Y-131852380D02*
X73947676Y-131947618D01*
X73947676Y-131947618D02*
X74042914Y-132042856D01*
X74042914Y-132042856D02*
X74090533Y-132138094D01*
X73804819Y-130947618D02*
X73804819Y-130852380D01*
X73804819Y-130852380D02*
X73852438Y-130757142D01*
X73852438Y-130757142D02*
X73900057Y-130709523D01*
X73900057Y-130709523D02*
X73995295Y-130661904D01*
X73995295Y-130661904D02*
X74185771Y-130614285D01*
X74185771Y-130614285D02*
X74423866Y-130614285D01*
X74423866Y-130614285D02*
X74614342Y-130661904D01*
X74614342Y-130661904D02*
X74709580Y-130709523D01*
X74709580Y-130709523D02*
X74757200Y-130757142D01*
X74757200Y-130757142D02*
X74804819Y-130852380D01*
X74804819Y-130852380D02*
X74804819Y-130947618D01*
X74804819Y-130947618D02*
X74757200Y-131042856D01*
X74757200Y-131042856D02*
X74709580Y-131090475D01*
X74709580Y-131090475D02*
X74614342Y-131138094D01*
X74614342Y-131138094D02*
X74423866Y-131185713D01*
X74423866Y-131185713D02*
X74185771Y-131185713D01*
X74185771Y-131185713D02*
X73995295Y-131138094D01*
X73995295Y-131138094D02*
X73900057Y-131090475D01*
X73900057Y-131090475D02*
X73852438Y-131042856D01*
X73852438Y-131042856D02*
X73804819Y-130947618D01*
D11*
X107940476Y-65457419D02*
X107940476Y-66171704D01*
X107940476Y-66171704D02*
X107892857Y-66314561D01*
X107892857Y-66314561D02*
X107797619Y-66409800D01*
X107797619Y-66409800D02*
X107654762Y-66457419D01*
X107654762Y-66457419D02*
X107559524Y-66457419D01*
X108369048Y-65552657D02*
X108416667Y-65505038D01*
X108416667Y-65505038D02*
X108511905Y-65457419D01*
X108511905Y-65457419D02*
X108750000Y-65457419D01*
X108750000Y-65457419D02*
X108845238Y-65505038D01*
X108845238Y-65505038D02*
X108892857Y-65552657D01*
X108892857Y-65552657D02*
X108940476Y-65647895D01*
X108940476Y-65647895D02*
X108940476Y-65743133D01*
X108940476Y-65743133D02*
X108892857Y-65885990D01*
X108892857Y-65885990D02*
X108321429Y-66457419D01*
X108321429Y-66457419D02*
X108940476Y-66457419D01*
X109845238Y-65457419D02*
X109369048Y-65457419D01*
X109369048Y-65457419D02*
X109321429Y-65933609D01*
X109321429Y-65933609D02*
X109369048Y-65885990D01*
X109369048Y-65885990D02*
X109464286Y-65838371D01*
X109464286Y-65838371D02*
X109702381Y-65838371D01*
X109702381Y-65838371D02*
X109797619Y-65885990D01*
X109797619Y-65885990D02*
X109845238Y-65933609D01*
X109845238Y-65933609D02*
X109892857Y-66028847D01*
X109892857Y-66028847D02*
X109892857Y-66266942D01*
X109892857Y-66266942D02*
X109845238Y-66362180D01*
X109845238Y-66362180D02*
X109797619Y-66409800D01*
X109797619Y-66409800D02*
X109702381Y-66457419D01*
X109702381Y-66457419D02*
X109464286Y-66457419D01*
X109464286Y-66457419D02*
X109369048Y-66409800D01*
X109369048Y-66409800D02*
X109321429Y-66362180D01*
X57957419Y-108309523D02*
X58671704Y-108309523D01*
X58671704Y-108309523D02*
X58814561Y-108357142D01*
X58814561Y-108357142D02*
X58909800Y-108452380D01*
X58909800Y-108452380D02*
X58957419Y-108595237D01*
X58957419Y-108595237D02*
X58957419Y-108690475D01*
X58052657Y-107880951D02*
X58005038Y-107833332D01*
X58005038Y-107833332D02*
X57957419Y-107738094D01*
X57957419Y-107738094D02*
X57957419Y-107499999D01*
X57957419Y-107499999D02*
X58005038Y-107404761D01*
X58005038Y-107404761D02*
X58052657Y-107357142D01*
X58052657Y-107357142D02*
X58147895Y-107309523D01*
X58147895Y-107309523D02*
X58243133Y-107309523D01*
X58243133Y-107309523D02*
X58385990Y-107357142D01*
X58385990Y-107357142D02*
X58957419Y-107928570D01*
X58957419Y-107928570D02*
X58957419Y-107309523D01*
X58052657Y-106928570D02*
X58005038Y-106880951D01*
X58005038Y-106880951D02*
X57957419Y-106785713D01*
X57957419Y-106785713D02*
X57957419Y-106547618D01*
X57957419Y-106547618D02*
X58005038Y-106452380D01*
X58005038Y-106452380D02*
X58052657Y-106404761D01*
X58052657Y-106404761D02*
X58147895Y-106357142D01*
X58147895Y-106357142D02*
X58243133Y-106357142D01*
X58243133Y-106357142D02*
X58385990Y-106404761D01*
X58385990Y-106404761D02*
X58957419Y-106976189D01*
X58957419Y-106976189D02*
X58957419Y-106357142D01*
X108427976Y-52457419D02*
X108427976Y-53171704D01*
X108427976Y-53171704D02*
X108380357Y-53314561D01*
X108380357Y-53314561D02*
X108285119Y-53409800D01*
X108285119Y-53409800D02*
X108142262Y-53457419D01*
X108142262Y-53457419D02*
X108047024Y-53457419D01*
X108856548Y-52552657D02*
X108904167Y-52505038D01*
X108904167Y-52505038D02*
X108999405Y-52457419D01*
X108999405Y-52457419D02*
X109237500Y-52457419D01*
X109237500Y-52457419D02*
X109332738Y-52505038D01*
X109332738Y-52505038D02*
X109380357Y-52552657D01*
X109380357Y-52552657D02*
X109427976Y-52647895D01*
X109427976Y-52647895D02*
X109427976Y-52743133D01*
X109427976Y-52743133D02*
X109380357Y-52885990D01*
X109380357Y-52885990D02*
X108808929Y-53457419D01*
X108808929Y-53457419D02*
X109427976Y-53457419D01*
X110285119Y-52790752D02*
X110285119Y-53457419D01*
X110047024Y-52409800D02*
X109808929Y-53124085D01*
X109808929Y-53124085D02*
X110427976Y-53124085D01*
X54390476Y-155057419D02*
X54390476Y-155771704D01*
X54390476Y-155771704D02*
X54342857Y-155914561D01*
X54342857Y-155914561D02*
X54247619Y-156009800D01*
X54247619Y-156009800D02*
X54104762Y-156057419D01*
X54104762Y-156057419D02*
X54009524Y-156057419D01*
X55390476Y-156057419D02*
X54819048Y-156057419D01*
X55104762Y-156057419D02*
X55104762Y-155057419D01*
X55104762Y-155057419D02*
X55009524Y-155200276D01*
X55009524Y-155200276D02*
X54914286Y-155295514D01*
X54914286Y-155295514D02*
X54819048Y-155343133D01*
X56009524Y-155057419D02*
X56104762Y-155057419D01*
X56104762Y-155057419D02*
X56200000Y-155105038D01*
X56200000Y-155105038D02*
X56247619Y-155152657D01*
X56247619Y-155152657D02*
X56295238Y-155247895D01*
X56295238Y-155247895D02*
X56342857Y-155438371D01*
X56342857Y-155438371D02*
X56342857Y-155676466D01*
X56342857Y-155676466D02*
X56295238Y-155866942D01*
X56295238Y-155866942D02*
X56247619Y-155962180D01*
X56247619Y-155962180D02*
X56200000Y-156009800D01*
X56200000Y-156009800D02*
X56104762Y-156057419D01*
X56104762Y-156057419D02*
X56009524Y-156057419D01*
X56009524Y-156057419D02*
X55914286Y-156009800D01*
X55914286Y-156009800D02*
X55866667Y-155962180D01*
X55866667Y-155962180D02*
X55819048Y-155866942D01*
X55819048Y-155866942D02*
X55771429Y-155676466D01*
X55771429Y-155676466D02*
X55771429Y-155438371D01*
X55771429Y-155438371D02*
X55819048Y-155247895D01*
X55819048Y-155247895D02*
X55866667Y-155152657D01*
X55866667Y-155152657D02*
X55914286Y-155105038D01*
X55914286Y-155105038D02*
X56009524Y-155057419D01*
D12*
X121454819Y-52188094D02*
X120454819Y-52188094D01*
X120454819Y-52188094D02*
X120454819Y-51949999D01*
X120454819Y-51949999D02*
X120502438Y-51807142D01*
X120502438Y-51807142D02*
X120597676Y-51711904D01*
X120597676Y-51711904D02*
X120692914Y-51664285D01*
X120692914Y-51664285D02*
X120883390Y-51616666D01*
X120883390Y-51616666D02*
X121026247Y-51616666D01*
X121026247Y-51616666D02*
X121216723Y-51664285D01*
X121216723Y-51664285D02*
X121311961Y-51711904D01*
X121311961Y-51711904D02*
X121407200Y-51807142D01*
X121407200Y-51807142D02*
X121454819Y-51949999D01*
X121454819Y-51949999D02*
X121454819Y-52188094D01*
X120454819Y-50759523D02*
X120454819Y-50949999D01*
X120454819Y-50949999D02*
X120502438Y-51045237D01*
X120502438Y-51045237D02*
X120550057Y-51092856D01*
X120550057Y-51092856D02*
X120692914Y-51188094D01*
X120692914Y-51188094D02*
X120883390Y-51235713D01*
X120883390Y-51235713D02*
X121264342Y-51235713D01*
X121264342Y-51235713D02*
X121359580Y-51188094D01*
X121359580Y-51188094D02*
X121407200Y-51140475D01*
X121407200Y-51140475D02*
X121454819Y-51045237D01*
X121454819Y-51045237D02*
X121454819Y-50854761D01*
X121454819Y-50854761D02*
X121407200Y-50759523D01*
X121407200Y-50759523D02*
X121359580Y-50711904D01*
X121359580Y-50711904D02*
X121264342Y-50664285D01*
X121264342Y-50664285D02*
X121026247Y-50664285D01*
X121026247Y-50664285D02*
X120931009Y-50711904D01*
X120931009Y-50711904D02*
X120883390Y-50759523D01*
X120883390Y-50759523D02*
X120835771Y-50854761D01*
X120835771Y-50854761D02*
X120835771Y-51045237D01*
X120835771Y-51045237D02*
X120883390Y-51140475D01*
X120883390Y-51140475D02*
X120931009Y-51188094D01*
X120931009Y-51188094D02*
X121026247Y-51235713D01*
X118112295Y-50271428D02*
X118112295Y-50728571D01*
X118112295Y-50499999D02*
X117312295Y-50499999D01*
X117312295Y-50499999D02*
X117426580Y-50576190D01*
X117426580Y-50576190D02*
X117502771Y-50652380D01*
X117502771Y-50652380D02*
X117540866Y-50728571D01*
D11*
X95790476Y-122457419D02*
X95790476Y-123171704D01*
X95790476Y-123171704D02*
X95742857Y-123314561D01*
X95742857Y-123314561D02*
X95647619Y-123409800D01*
X95647619Y-123409800D02*
X95504762Y-123457419D01*
X95504762Y-123457419D02*
X95409524Y-123457419D01*
X96790476Y-123457419D02*
X96219048Y-123457419D01*
X96504762Y-123457419D02*
X96504762Y-122457419D01*
X96504762Y-122457419D02*
X96409524Y-122600276D01*
X96409524Y-122600276D02*
X96314286Y-122695514D01*
X96314286Y-122695514D02*
X96219048Y-122743133D01*
X97123810Y-122457419D02*
X97790476Y-122457419D01*
X97790476Y-122457419D02*
X97361905Y-123457419D01*
X88565476Y-104532419D02*
X88565476Y-105246704D01*
X88565476Y-105246704D02*
X88517857Y-105389561D01*
X88517857Y-105389561D02*
X88422619Y-105484800D01*
X88422619Y-105484800D02*
X88279762Y-105532419D01*
X88279762Y-105532419D02*
X88184524Y-105532419D01*
X88994048Y-104627657D02*
X89041667Y-104580038D01*
X89041667Y-104580038D02*
X89136905Y-104532419D01*
X89136905Y-104532419D02*
X89375000Y-104532419D01*
X89375000Y-104532419D02*
X89470238Y-104580038D01*
X89470238Y-104580038D02*
X89517857Y-104627657D01*
X89517857Y-104627657D02*
X89565476Y-104722895D01*
X89565476Y-104722895D02*
X89565476Y-104818133D01*
X89565476Y-104818133D02*
X89517857Y-104960990D01*
X89517857Y-104960990D02*
X88946429Y-105532419D01*
X88946429Y-105532419D02*
X89565476Y-105532419D01*
X89898810Y-104532419D02*
X90517857Y-104532419D01*
X90517857Y-104532419D02*
X90184524Y-104913371D01*
X90184524Y-104913371D02*
X90327381Y-104913371D01*
X90327381Y-104913371D02*
X90422619Y-104960990D01*
X90422619Y-104960990D02*
X90470238Y-105008609D01*
X90470238Y-105008609D02*
X90517857Y-105103847D01*
X90517857Y-105103847D02*
X90517857Y-105341942D01*
X90517857Y-105341942D02*
X90470238Y-105437180D01*
X90470238Y-105437180D02*
X90422619Y-105484800D01*
X90422619Y-105484800D02*
X90327381Y-105532419D01*
X90327381Y-105532419D02*
X90041667Y-105532419D01*
X90041667Y-105532419D02*
X89946429Y-105484800D01*
X89946429Y-105484800D02*
X89898810Y-105437180D01*
D12*
X104403571Y-137000057D02*
X104308333Y-136952438D01*
X104308333Y-136952438D02*
X104213095Y-136857200D01*
X104213095Y-136857200D02*
X104070238Y-136714342D01*
X104070238Y-136714342D02*
X103975000Y-136666723D01*
X103975000Y-136666723D02*
X103879762Y-136666723D01*
X103927381Y-136904819D02*
X103832143Y-136857200D01*
X103832143Y-136857200D02*
X103736905Y-136761961D01*
X103736905Y-136761961D02*
X103689286Y-136571485D01*
X103689286Y-136571485D02*
X103689286Y-136238152D01*
X103689286Y-136238152D02*
X103736905Y-136047676D01*
X103736905Y-136047676D02*
X103832143Y-135952438D01*
X103832143Y-135952438D02*
X103927381Y-135904819D01*
X103927381Y-135904819D02*
X104117857Y-135904819D01*
X104117857Y-135904819D02*
X104213095Y-135952438D01*
X104213095Y-135952438D02*
X104308333Y-136047676D01*
X104308333Y-136047676D02*
X104355952Y-136238152D01*
X104355952Y-136238152D02*
X104355952Y-136571485D01*
X104355952Y-136571485D02*
X104308333Y-136761961D01*
X104308333Y-136761961D02*
X104213095Y-136857200D01*
X104213095Y-136857200D02*
X104117857Y-136904819D01*
X104117857Y-136904819D02*
X103927381Y-136904819D01*
X105308333Y-136904819D02*
X104736905Y-136904819D01*
X105022619Y-136904819D02*
X105022619Y-135904819D01*
X105022619Y-135904819D02*
X104927381Y-136047676D01*
X104927381Y-136047676D02*
X104832143Y-136142914D01*
X104832143Y-136142914D02*
X104736905Y-136190533D01*
X106260714Y-136904819D02*
X105689286Y-136904819D01*
X105975000Y-136904819D02*
X105975000Y-135904819D01*
X105975000Y-135904819D02*
X105879762Y-136047676D01*
X105879762Y-136047676D02*
X105784524Y-136142914D01*
X105784524Y-136142914D02*
X105689286Y-136190533D01*
D11*
X39207419Y-180083333D02*
X39921704Y-180083333D01*
X39921704Y-180083333D02*
X40064561Y-180130952D01*
X40064561Y-180130952D02*
X40159800Y-180226190D01*
X40159800Y-180226190D02*
X40207419Y-180369047D01*
X40207419Y-180369047D02*
X40207419Y-180464285D01*
X39207419Y-179702380D02*
X39207419Y-179035714D01*
X39207419Y-179035714D02*
X40207419Y-179464285D01*
X65457419Y-162833333D02*
X66171704Y-162833333D01*
X66171704Y-162833333D02*
X66314561Y-162880952D01*
X66314561Y-162880952D02*
X66409800Y-162976190D01*
X66409800Y-162976190D02*
X66457419Y-163119047D01*
X66457419Y-163119047D02*
X66457419Y-163214285D01*
X66457419Y-162309523D02*
X66457419Y-162119047D01*
X66457419Y-162119047D02*
X66409800Y-162023809D01*
X66409800Y-162023809D02*
X66362180Y-161976190D01*
X66362180Y-161976190D02*
X66219323Y-161880952D01*
X66219323Y-161880952D02*
X66028847Y-161833333D01*
X66028847Y-161833333D02*
X65647895Y-161833333D01*
X65647895Y-161833333D02*
X65552657Y-161880952D01*
X65552657Y-161880952D02*
X65505038Y-161928571D01*
X65505038Y-161928571D02*
X65457419Y-162023809D01*
X65457419Y-162023809D02*
X65457419Y-162214285D01*
X65457419Y-162214285D02*
X65505038Y-162309523D01*
X65505038Y-162309523D02*
X65552657Y-162357142D01*
X65552657Y-162357142D02*
X65647895Y-162404761D01*
X65647895Y-162404761D02*
X65885990Y-162404761D01*
X65885990Y-162404761D02*
X65981228Y-162357142D01*
X65981228Y-162357142D02*
X66028847Y-162309523D01*
X66028847Y-162309523D02*
X66076466Y-162214285D01*
X66076466Y-162214285D02*
X66076466Y-162023809D01*
X66076466Y-162023809D02*
X66028847Y-161928571D01*
X66028847Y-161928571D02*
X65981228Y-161880952D01*
X65981228Y-161880952D02*
X65885990Y-161833333D01*
X64957419Y-154072023D02*
X65671704Y-154072023D01*
X65671704Y-154072023D02*
X65814561Y-154119642D01*
X65814561Y-154119642D02*
X65909800Y-154214880D01*
X65909800Y-154214880D02*
X65957419Y-154357737D01*
X65957419Y-154357737D02*
X65957419Y-154452975D01*
X65957419Y-153072023D02*
X65957419Y-153643451D01*
X65957419Y-153357737D02*
X64957419Y-153357737D01*
X64957419Y-153357737D02*
X65100276Y-153452975D01*
X65100276Y-153452975D02*
X65195514Y-153548213D01*
X65195514Y-153548213D02*
X65243133Y-153643451D01*
X64957419Y-152738689D02*
X64957419Y-152119642D01*
X64957419Y-152119642D02*
X65338371Y-152452975D01*
X65338371Y-152452975D02*
X65338371Y-152310118D01*
X65338371Y-152310118D02*
X65385990Y-152214880D01*
X65385990Y-152214880D02*
X65433609Y-152167261D01*
X65433609Y-152167261D02*
X65528847Y-152119642D01*
X65528847Y-152119642D02*
X65766942Y-152119642D01*
X65766942Y-152119642D02*
X65862180Y-152167261D01*
X65862180Y-152167261D02*
X65909800Y-152214880D01*
X65909800Y-152214880D02*
X65957419Y-152310118D01*
X65957419Y-152310118D02*
X65957419Y-152595832D01*
X65957419Y-152595832D02*
X65909800Y-152691070D01*
X65909800Y-152691070D02*
X65862180Y-152738689D01*
D12*
X46104761Y-153550057D02*
X46009523Y-153502438D01*
X46009523Y-153502438D02*
X45914285Y-153407200D01*
X45914285Y-153407200D02*
X45771428Y-153264342D01*
X45771428Y-153264342D02*
X45676190Y-153216723D01*
X45676190Y-153216723D02*
X45580952Y-153216723D01*
X45628571Y-153454819D02*
X45533333Y-153407200D01*
X45533333Y-153407200D02*
X45438095Y-153311961D01*
X45438095Y-153311961D02*
X45390476Y-153121485D01*
X45390476Y-153121485D02*
X45390476Y-152788152D01*
X45390476Y-152788152D02*
X45438095Y-152597676D01*
X45438095Y-152597676D02*
X45533333Y-152502438D01*
X45533333Y-152502438D02*
X45628571Y-152454819D01*
X45628571Y-152454819D02*
X45819047Y-152454819D01*
X45819047Y-152454819D02*
X45914285Y-152502438D01*
X45914285Y-152502438D02*
X46009523Y-152597676D01*
X46009523Y-152597676D02*
X46057142Y-152788152D01*
X46057142Y-152788152D02*
X46057142Y-153121485D01*
X46057142Y-153121485D02*
X46009523Y-153311961D01*
X46009523Y-153311961D02*
X45914285Y-153407200D01*
X45914285Y-153407200D02*
X45819047Y-153454819D01*
X45819047Y-153454819D02*
X45628571Y-153454819D01*
X46390476Y-152454819D02*
X47009523Y-152454819D01*
X47009523Y-152454819D02*
X46676190Y-152835771D01*
X46676190Y-152835771D02*
X46819047Y-152835771D01*
X46819047Y-152835771D02*
X46914285Y-152883390D01*
X46914285Y-152883390D02*
X46961904Y-152931009D01*
X46961904Y-152931009D02*
X47009523Y-153026247D01*
X47009523Y-153026247D02*
X47009523Y-153264342D01*
X47009523Y-153264342D02*
X46961904Y-153359580D01*
X46961904Y-153359580D02*
X46914285Y-153407200D01*
X46914285Y-153407200D02*
X46819047Y-153454819D01*
X46819047Y-153454819D02*
X46533333Y-153454819D01*
X46533333Y-153454819D02*
X46438095Y-153407200D01*
X46438095Y-153407200D02*
X46390476Y-153359580D01*
D11*
X92957419Y-169583333D02*
X93671704Y-169583333D01*
X93671704Y-169583333D02*
X93814561Y-169630952D01*
X93814561Y-169630952D02*
X93909800Y-169726190D01*
X93909800Y-169726190D02*
X93957419Y-169869047D01*
X93957419Y-169869047D02*
X93957419Y-169964285D01*
X92957419Y-168630952D02*
X92957419Y-169107142D01*
X92957419Y-169107142D02*
X93433609Y-169154761D01*
X93433609Y-169154761D02*
X93385990Y-169107142D01*
X93385990Y-169107142D02*
X93338371Y-169011904D01*
X93338371Y-169011904D02*
X93338371Y-168773809D01*
X93338371Y-168773809D02*
X93385990Y-168678571D01*
X93385990Y-168678571D02*
X93433609Y-168630952D01*
X93433609Y-168630952D02*
X93528847Y-168583333D01*
X93528847Y-168583333D02*
X93766942Y-168583333D01*
X93766942Y-168583333D02*
X93862180Y-168630952D01*
X93862180Y-168630952D02*
X93909800Y-168678571D01*
X93909800Y-168678571D02*
X93957419Y-168773809D01*
X93957419Y-168773809D02*
X93957419Y-169011904D01*
X93957419Y-169011904D02*
X93909800Y-169107142D01*
X93909800Y-169107142D02*
X93862180Y-169154761D01*
X91690476Y-65457419D02*
X91690476Y-66171704D01*
X91690476Y-66171704D02*
X91642857Y-66314561D01*
X91642857Y-66314561D02*
X91547619Y-66409800D01*
X91547619Y-66409800D02*
X91404762Y-66457419D01*
X91404762Y-66457419D02*
X91309524Y-66457419D01*
X92690476Y-66457419D02*
X92119048Y-66457419D01*
X92404762Y-66457419D02*
X92404762Y-65457419D01*
X92404762Y-65457419D02*
X92309524Y-65600276D01*
X92309524Y-65600276D02*
X92214286Y-65695514D01*
X92214286Y-65695514D02*
X92119048Y-65743133D01*
X93595238Y-65457419D02*
X93119048Y-65457419D01*
X93119048Y-65457419D02*
X93071429Y-65933609D01*
X93071429Y-65933609D02*
X93119048Y-65885990D01*
X93119048Y-65885990D02*
X93214286Y-65838371D01*
X93214286Y-65838371D02*
X93452381Y-65838371D01*
X93452381Y-65838371D02*
X93547619Y-65885990D01*
X93547619Y-65885990D02*
X93595238Y-65933609D01*
X93595238Y-65933609D02*
X93642857Y-66028847D01*
X93642857Y-66028847D02*
X93642857Y-66266942D01*
X93642857Y-66266942D02*
X93595238Y-66362180D01*
X93595238Y-66362180D02*
X93547619Y-66409800D01*
X93547619Y-66409800D02*
X93452381Y-66457419D01*
X93452381Y-66457419D02*
X93214286Y-66457419D01*
X93214286Y-66457419D02*
X93119048Y-66409800D01*
X93119048Y-66409800D02*
X93071429Y-66362180D01*
D12*
X85904761Y-150550057D02*
X85809523Y-150502438D01*
X85809523Y-150502438D02*
X85714285Y-150407200D01*
X85714285Y-150407200D02*
X85571428Y-150264342D01*
X85571428Y-150264342D02*
X85476190Y-150216723D01*
X85476190Y-150216723D02*
X85380952Y-150216723D01*
X85428571Y-150454819D02*
X85333333Y-150407200D01*
X85333333Y-150407200D02*
X85238095Y-150311961D01*
X85238095Y-150311961D02*
X85190476Y-150121485D01*
X85190476Y-150121485D02*
X85190476Y-149788152D01*
X85190476Y-149788152D02*
X85238095Y-149597676D01*
X85238095Y-149597676D02*
X85333333Y-149502438D01*
X85333333Y-149502438D02*
X85428571Y-149454819D01*
X85428571Y-149454819D02*
X85619047Y-149454819D01*
X85619047Y-149454819D02*
X85714285Y-149502438D01*
X85714285Y-149502438D02*
X85809523Y-149597676D01*
X85809523Y-149597676D02*
X85857142Y-149788152D01*
X85857142Y-149788152D02*
X85857142Y-150121485D01*
X85857142Y-150121485D02*
X85809523Y-150311961D01*
X85809523Y-150311961D02*
X85714285Y-150407200D01*
X85714285Y-150407200D02*
X85619047Y-150454819D01*
X85619047Y-150454819D02*
X85428571Y-150454819D01*
X86238095Y-149550057D02*
X86285714Y-149502438D01*
X86285714Y-149502438D02*
X86380952Y-149454819D01*
X86380952Y-149454819D02*
X86619047Y-149454819D01*
X86619047Y-149454819D02*
X86714285Y-149502438D01*
X86714285Y-149502438D02*
X86761904Y-149550057D01*
X86761904Y-149550057D02*
X86809523Y-149645295D01*
X86809523Y-149645295D02*
X86809523Y-149740533D01*
X86809523Y-149740533D02*
X86761904Y-149883390D01*
X86761904Y-149883390D02*
X86190476Y-150454819D01*
X86190476Y-150454819D02*
X86809523Y-150454819D01*
X114204819Y-154738094D02*
X113204819Y-154738094D01*
X113204819Y-154738094D02*
X113204819Y-154499999D01*
X113204819Y-154499999D02*
X113252438Y-154357142D01*
X113252438Y-154357142D02*
X113347676Y-154261904D01*
X113347676Y-154261904D02*
X113442914Y-154214285D01*
X113442914Y-154214285D02*
X113633390Y-154166666D01*
X113633390Y-154166666D02*
X113776247Y-154166666D01*
X113776247Y-154166666D02*
X113966723Y-154214285D01*
X113966723Y-154214285D02*
X114061961Y-154261904D01*
X114061961Y-154261904D02*
X114157200Y-154357142D01*
X114157200Y-154357142D02*
X114204819Y-154499999D01*
X114204819Y-154499999D02*
X114204819Y-154738094D01*
X113204819Y-153833332D02*
X113204819Y-153166666D01*
X113204819Y-153166666D02*
X114204819Y-153595237D01*
X117262295Y-155271428D02*
X117262295Y-155728571D01*
X117262295Y-155499999D02*
X116462295Y-155499999D01*
X116462295Y-155499999D02*
X116576580Y-155576190D01*
X116576580Y-155576190D02*
X116652771Y-155652380D01*
X116652771Y-155652380D02*
X116690866Y-155728571D01*
D11*
X108190476Y-91457419D02*
X108190476Y-92171704D01*
X108190476Y-92171704D02*
X108142857Y-92314561D01*
X108142857Y-92314561D02*
X108047619Y-92409800D01*
X108047619Y-92409800D02*
X107904762Y-92457419D01*
X107904762Y-92457419D02*
X107809524Y-92457419D01*
X108619048Y-91552657D02*
X108666667Y-91505038D01*
X108666667Y-91505038D02*
X108761905Y-91457419D01*
X108761905Y-91457419D02*
X109000000Y-91457419D01*
X109000000Y-91457419D02*
X109095238Y-91505038D01*
X109095238Y-91505038D02*
X109142857Y-91552657D01*
X109142857Y-91552657D02*
X109190476Y-91647895D01*
X109190476Y-91647895D02*
X109190476Y-91743133D01*
X109190476Y-91743133D02*
X109142857Y-91885990D01*
X109142857Y-91885990D02*
X108571429Y-92457419D01*
X108571429Y-92457419D02*
X109190476Y-92457419D01*
X109523810Y-91457419D02*
X110190476Y-91457419D01*
X110190476Y-91457419D02*
X109761905Y-92457419D01*
X119990476Y-121657419D02*
X119990476Y-122371704D01*
X119990476Y-122371704D02*
X119942857Y-122514561D01*
X119942857Y-122514561D02*
X119847619Y-122609800D01*
X119847619Y-122609800D02*
X119704762Y-122657419D01*
X119704762Y-122657419D02*
X119609524Y-122657419D01*
X120990476Y-122657419D02*
X120419048Y-122657419D01*
X120704762Y-122657419D02*
X120704762Y-121657419D01*
X120704762Y-121657419D02*
X120609524Y-121800276D01*
X120609524Y-121800276D02*
X120514286Y-121895514D01*
X120514286Y-121895514D02*
X120419048Y-121943133D01*
X121561905Y-122085990D02*
X121466667Y-122038371D01*
X121466667Y-122038371D02*
X121419048Y-121990752D01*
X121419048Y-121990752D02*
X121371429Y-121895514D01*
X121371429Y-121895514D02*
X121371429Y-121847895D01*
X121371429Y-121847895D02*
X121419048Y-121752657D01*
X121419048Y-121752657D02*
X121466667Y-121705038D01*
X121466667Y-121705038D02*
X121561905Y-121657419D01*
X121561905Y-121657419D02*
X121752381Y-121657419D01*
X121752381Y-121657419D02*
X121847619Y-121705038D01*
X121847619Y-121705038D02*
X121895238Y-121752657D01*
X121895238Y-121752657D02*
X121942857Y-121847895D01*
X121942857Y-121847895D02*
X121942857Y-121895514D01*
X121942857Y-121895514D02*
X121895238Y-121990752D01*
X121895238Y-121990752D02*
X121847619Y-122038371D01*
X121847619Y-122038371D02*
X121752381Y-122085990D01*
X121752381Y-122085990D02*
X121561905Y-122085990D01*
X121561905Y-122085990D02*
X121466667Y-122133609D01*
X121466667Y-122133609D02*
X121419048Y-122181228D01*
X121419048Y-122181228D02*
X121371429Y-122276466D01*
X121371429Y-122276466D02*
X121371429Y-122466942D01*
X121371429Y-122466942D02*
X121419048Y-122562180D01*
X121419048Y-122562180D02*
X121466667Y-122609800D01*
X121466667Y-122609800D02*
X121561905Y-122657419D01*
X121561905Y-122657419D02*
X121752381Y-122657419D01*
X121752381Y-122657419D02*
X121847619Y-122609800D01*
X121847619Y-122609800D02*
X121895238Y-122562180D01*
X121895238Y-122562180D02*
X121942857Y-122466942D01*
X121942857Y-122466942D02*
X121942857Y-122276466D01*
X121942857Y-122276466D02*
X121895238Y-122181228D01*
X121895238Y-122181228D02*
X121847619Y-122133609D01*
X121847619Y-122133609D02*
X121752381Y-122085990D01*
X88565476Y-91532419D02*
X88565476Y-92246704D01*
X88565476Y-92246704D02*
X88517857Y-92389561D01*
X88517857Y-92389561D02*
X88422619Y-92484800D01*
X88422619Y-92484800D02*
X88279762Y-92532419D01*
X88279762Y-92532419D02*
X88184524Y-92532419D01*
X89565476Y-92532419D02*
X88994048Y-92532419D01*
X89279762Y-92532419D02*
X89279762Y-91532419D01*
X89279762Y-91532419D02*
X89184524Y-91675276D01*
X89184524Y-91675276D02*
X89089286Y-91770514D01*
X89089286Y-91770514D02*
X88994048Y-91818133D01*
X90041667Y-92532419D02*
X90232143Y-92532419D01*
X90232143Y-92532419D02*
X90327381Y-92484800D01*
X90327381Y-92484800D02*
X90375000Y-92437180D01*
X90375000Y-92437180D02*
X90470238Y-92294323D01*
X90470238Y-92294323D02*
X90517857Y-92103847D01*
X90517857Y-92103847D02*
X90517857Y-91722895D01*
X90517857Y-91722895D02*
X90470238Y-91627657D01*
X90470238Y-91627657D02*
X90422619Y-91580038D01*
X90422619Y-91580038D02*
X90327381Y-91532419D01*
X90327381Y-91532419D02*
X90136905Y-91532419D01*
X90136905Y-91532419D02*
X90041667Y-91580038D01*
X90041667Y-91580038D02*
X89994048Y-91627657D01*
X89994048Y-91627657D02*
X89946429Y-91722895D01*
X89946429Y-91722895D02*
X89946429Y-91960990D01*
X89946429Y-91960990D02*
X89994048Y-92056228D01*
X89994048Y-92056228D02*
X90041667Y-92103847D01*
X90041667Y-92103847D02*
X90136905Y-92151466D01*
X90136905Y-92151466D02*
X90327381Y-92151466D01*
X90327381Y-92151466D02*
X90422619Y-92103847D01*
X90422619Y-92103847D02*
X90470238Y-92056228D01*
X90470238Y-92056228D02*
X90517857Y-91960990D01*
X26207419Y-180083333D02*
X26921704Y-180083333D01*
X26921704Y-180083333D02*
X27064561Y-180130952D01*
X27064561Y-180130952D02*
X27159800Y-180226190D01*
X27159800Y-180226190D02*
X27207419Y-180369047D01*
X27207419Y-180369047D02*
X27207419Y-180464285D01*
X26635990Y-179464285D02*
X26588371Y-179559523D01*
X26588371Y-179559523D02*
X26540752Y-179607142D01*
X26540752Y-179607142D02*
X26445514Y-179654761D01*
X26445514Y-179654761D02*
X26397895Y-179654761D01*
X26397895Y-179654761D02*
X26302657Y-179607142D01*
X26302657Y-179607142D02*
X26255038Y-179559523D01*
X26255038Y-179559523D02*
X26207419Y-179464285D01*
X26207419Y-179464285D02*
X26207419Y-179273809D01*
X26207419Y-179273809D02*
X26255038Y-179178571D01*
X26255038Y-179178571D02*
X26302657Y-179130952D01*
X26302657Y-179130952D02*
X26397895Y-179083333D01*
X26397895Y-179083333D02*
X26445514Y-179083333D01*
X26445514Y-179083333D02*
X26540752Y-179130952D01*
X26540752Y-179130952D02*
X26588371Y-179178571D01*
X26588371Y-179178571D02*
X26635990Y-179273809D01*
X26635990Y-179273809D02*
X26635990Y-179464285D01*
X26635990Y-179464285D02*
X26683609Y-179559523D01*
X26683609Y-179559523D02*
X26731228Y-179607142D01*
X26731228Y-179607142D02*
X26826466Y-179654761D01*
X26826466Y-179654761D02*
X27016942Y-179654761D01*
X27016942Y-179654761D02*
X27112180Y-179607142D01*
X27112180Y-179607142D02*
X27159800Y-179559523D01*
X27159800Y-179559523D02*
X27207419Y-179464285D01*
X27207419Y-179464285D02*
X27207419Y-179273809D01*
X27207419Y-179273809D02*
X27159800Y-179178571D01*
X27159800Y-179178571D02*
X27112180Y-179130952D01*
X27112180Y-179130952D02*
X27016942Y-179083333D01*
X27016942Y-179083333D02*
X26826466Y-179083333D01*
X26826466Y-179083333D02*
X26731228Y-179130952D01*
X26731228Y-179130952D02*
X26683609Y-179178571D01*
X26683609Y-179178571D02*
X26635990Y-179273809D01*
X65207419Y-180083333D02*
X65921704Y-180083333D01*
X65921704Y-180083333D02*
X66064561Y-180130952D01*
X66064561Y-180130952D02*
X66159800Y-180226190D01*
X66159800Y-180226190D02*
X66207419Y-180369047D01*
X66207419Y-180369047D02*
X66207419Y-180464285D01*
X66207419Y-179083333D02*
X66207419Y-179654761D01*
X66207419Y-179369047D02*
X65207419Y-179369047D01*
X65207419Y-179369047D02*
X65350276Y-179464285D01*
X65350276Y-179464285D02*
X65445514Y-179559523D01*
X65445514Y-179559523D02*
X65493133Y-179654761D01*
X108190476Y-104457419D02*
X108190476Y-105171704D01*
X108190476Y-105171704D02*
X108142857Y-105314561D01*
X108142857Y-105314561D02*
X108047619Y-105409800D01*
X108047619Y-105409800D02*
X107904762Y-105457419D01*
X107904762Y-105457419D02*
X107809524Y-105457419D01*
X108619048Y-104552657D02*
X108666667Y-104505038D01*
X108666667Y-104505038D02*
X108761905Y-104457419D01*
X108761905Y-104457419D02*
X109000000Y-104457419D01*
X109000000Y-104457419D02*
X109095238Y-104505038D01*
X109095238Y-104505038D02*
X109142857Y-104552657D01*
X109142857Y-104552657D02*
X109190476Y-104647895D01*
X109190476Y-104647895D02*
X109190476Y-104743133D01*
X109190476Y-104743133D02*
X109142857Y-104885990D01*
X109142857Y-104885990D02*
X108571429Y-105457419D01*
X108571429Y-105457419D02*
X109190476Y-105457419D01*
X109761905Y-104885990D02*
X109666667Y-104838371D01*
X109666667Y-104838371D02*
X109619048Y-104790752D01*
X109619048Y-104790752D02*
X109571429Y-104695514D01*
X109571429Y-104695514D02*
X109571429Y-104647895D01*
X109571429Y-104647895D02*
X109619048Y-104552657D01*
X109619048Y-104552657D02*
X109666667Y-104505038D01*
X109666667Y-104505038D02*
X109761905Y-104457419D01*
X109761905Y-104457419D02*
X109952381Y-104457419D01*
X109952381Y-104457419D02*
X110047619Y-104505038D01*
X110047619Y-104505038D02*
X110095238Y-104552657D01*
X110095238Y-104552657D02*
X110142857Y-104647895D01*
X110142857Y-104647895D02*
X110142857Y-104695514D01*
X110142857Y-104695514D02*
X110095238Y-104790752D01*
X110095238Y-104790752D02*
X110047619Y-104838371D01*
X110047619Y-104838371D02*
X109952381Y-104885990D01*
X109952381Y-104885990D02*
X109761905Y-104885990D01*
X109761905Y-104885990D02*
X109666667Y-104933609D01*
X109666667Y-104933609D02*
X109619048Y-104981228D01*
X109619048Y-104981228D02*
X109571429Y-105076466D01*
X109571429Y-105076466D02*
X109571429Y-105266942D01*
X109571429Y-105266942D02*
X109619048Y-105362180D01*
X109619048Y-105362180D02*
X109666667Y-105409800D01*
X109666667Y-105409800D02*
X109761905Y-105457419D01*
X109761905Y-105457419D02*
X109952381Y-105457419D01*
X109952381Y-105457419D02*
X110047619Y-105409800D01*
X110047619Y-105409800D02*
X110095238Y-105362180D01*
X110095238Y-105362180D02*
X110142857Y-105266942D01*
X110142857Y-105266942D02*
X110142857Y-105076466D01*
X110142857Y-105076466D02*
X110095238Y-104981228D01*
X110095238Y-104981228D02*
X110047619Y-104933609D01*
X110047619Y-104933609D02*
X109952381Y-104885990D01*
D12*
X43354819Y-52664285D02*
X42354819Y-52664285D01*
X42354819Y-52664285D02*
X42354819Y-52426190D01*
X42354819Y-52426190D02*
X42402438Y-52283333D01*
X42402438Y-52283333D02*
X42497676Y-52188095D01*
X42497676Y-52188095D02*
X42592914Y-52140476D01*
X42592914Y-52140476D02*
X42783390Y-52092857D01*
X42783390Y-52092857D02*
X42926247Y-52092857D01*
X42926247Y-52092857D02*
X43116723Y-52140476D01*
X43116723Y-52140476D02*
X43211961Y-52188095D01*
X43211961Y-52188095D02*
X43307200Y-52283333D01*
X43307200Y-52283333D02*
X43354819Y-52426190D01*
X43354819Y-52426190D02*
X43354819Y-52664285D01*
X43354819Y-51140476D02*
X43354819Y-51711904D01*
X43354819Y-51426190D02*
X42354819Y-51426190D01*
X42354819Y-51426190D02*
X42497676Y-51521428D01*
X42497676Y-51521428D02*
X42592914Y-51616666D01*
X42592914Y-51616666D02*
X42640533Y-51711904D01*
X43354819Y-50188095D02*
X43354819Y-50759523D01*
X43354819Y-50473809D02*
X42354819Y-50473809D01*
X42354819Y-50473809D02*
X42497676Y-50569047D01*
X42497676Y-50569047D02*
X42592914Y-50664285D01*
X42592914Y-50664285D02*
X42640533Y-50759523D01*
X41512295Y-50021428D02*
X41512295Y-50478571D01*
X41512295Y-50249999D02*
X40712295Y-50249999D01*
X40712295Y-50249999D02*
X40826580Y-50326190D01*
X40826580Y-50326190D02*
X40902771Y-50402380D01*
X40902771Y-50402380D02*
X40940866Y-50478571D01*
D11*
X88440476Y-66207419D02*
X88440476Y-66921704D01*
X88440476Y-66921704D02*
X88392857Y-67064561D01*
X88392857Y-67064561D02*
X88297619Y-67159800D01*
X88297619Y-67159800D02*
X88154762Y-67207419D01*
X88154762Y-67207419D02*
X88059524Y-67207419D01*
X88869048Y-66302657D02*
X88916667Y-66255038D01*
X88916667Y-66255038D02*
X89011905Y-66207419D01*
X89011905Y-66207419D02*
X89250000Y-66207419D01*
X89250000Y-66207419D02*
X89345238Y-66255038D01*
X89345238Y-66255038D02*
X89392857Y-66302657D01*
X89392857Y-66302657D02*
X89440476Y-66397895D01*
X89440476Y-66397895D02*
X89440476Y-66493133D01*
X89440476Y-66493133D02*
X89392857Y-66635990D01*
X89392857Y-66635990D02*
X88821429Y-67207419D01*
X88821429Y-67207419D02*
X89440476Y-67207419D01*
X90059524Y-66207419D02*
X90154762Y-66207419D01*
X90154762Y-66207419D02*
X90250000Y-66255038D01*
X90250000Y-66255038D02*
X90297619Y-66302657D01*
X90297619Y-66302657D02*
X90345238Y-66397895D01*
X90345238Y-66397895D02*
X90392857Y-66588371D01*
X90392857Y-66588371D02*
X90392857Y-66826466D01*
X90392857Y-66826466D02*
X90345238Y-67016942D01*
X90345238Y-67016942D02*
X90297619Y-67112180D01*
X90297619Y-67112180D02*
X90250000Y-67159800D01*
X90250000Y-67159800D02*
X90154762Y-67207419D01*
X90154762Y-67207419D02*
X90059524Y-67207419D01*
X90059524Y-67207419D02*
X89964286Y-67159800D01*
X89964286Y-67159800D02*
X89916667Y-67112180D01*
X89916667Y-67112180D02*
X89869048Y-67016942D01*
X89869048Y-67016942D02*
X89821429Y-66826466D01*
X89821429Y-66826466D02*
X89821429Y-66588371D01*
X89821429Y-66588371D02*
X89869048Y-66397895D01*
X89869048Y-66397895D02*
X89916667Y-66302657D01*
X89916667Y-66302657D02*
X89964286Y-66255038D01*
X89964286Y-66255038D02*
X90059524Y-66207419D01*
X88827693Y-64670038D02*
X88732455Y-64622419D01*
X88732455Y-64622419D02*
X88589598Y-64622419D01*
X88589598Y-64622419D02*
X88446741Y-64670038D01*
X88446741Y-64670038D02*
X88351503Y-64765276D01*
X88351503Y-64765276D02*
X88303884Y-64860514D01*
X88303884Y-64860514D02*
X88256265Y-65050990D01*
X88256265Y-65050990D02*
X88256265Y-65193847D01*
X88256265Y-65193847D02*
X88303884Y-65384323D01*
X88303884Y-65384323D02*
X88351503Y-65479561D01*
X88351503Y-65479561D02*
X88446741Y-65574800D01*
X88446741Y-65574800D02*
X88589598Y-65622419D01*
X88589598Y-65622419D02*
X88684836Y-65622419D01*
X88684836Y-65622419D02*
X88827693Y-65574800D01*
X88827693Y-65574800D02*
X88875312Y-65527180D01*
X88875312Y-65527180D02*
X88875312Y-65193847D01*
X88875312Y-65193847D02*
X88684836Y-65193847D01*
X89494360Y-65146228D02*
X89494360Y-65622419D01*
X89161027Y-64622419D02*
X89494360Y-65146228D01*
X89494360Y-65146228D02*
X89827693Y-64622419D01*
X90161027Y-65241466D02*
X90922932Y-65241466D01*
X91446741Y-65622419D02*
X91637217Y-65622419D01*
X91637217Y-65622419D02*
X91732455Y-65574800D01*
X91732455Y-65574800D02*
X91780074Y-65527180D01*
X91780074Y-65527180D02*
X91875312Y-65384323D01*
X91875312Y-65384323D02*
X91922931Y-65193847D01*
X91922931Y-65193847D02*
X91922931Y-64812895D01*
X91922931Y-64812895D02*
X91875312Y-64717657D01*
X91875312Y-64717657D02*
X91827693Y-64670038D01*
X91827693Y-64670038D02*
X91732455Y-64622419D01*
X91732455Y-64622419D02*
X91541979Y-64622419D01*
X91541979Y-64622419D02*
X91446741Y-64670038D01*
X91446741Y-64670038D02*
X91399122Y-64717657D01*
X91399122Y-64717657D02*
X91351503Y-64812895D01*
X91351503Y-64812895D02*
X91351503Y-65050990D01*
X91351503Y-65050990D02*
X91399122Y-65146228D01*
X91399122Y-65146228D02*
X91446741Y-65193847D01*
X91446741Y-65193847D02*
X91541979Y-65241466D01*
X91541979Y-65241466D02*
X91732455Y-65241466D01*
X91732455Y-65241466D02*
X91827693Y-65193847D01*
X91827693Y-65193847D02*
X91875312Y-65146228D01*
X91875312Y-65146228D02*
X91922931Y-65050990D01*
X92875312Y-65622419D02*
X92303884Y-65622419D01*
X92589598Y-65622419D02*
X92589598Y-64622419D01*
X92589598Y-64622419D02*
X92494360Y-64765276D01*
X92494360Y-64765276D02*
X92399122Y-64860514D01*
X92399122Y-64860514D02*
X92303884Y-64908133D01*
X94589598Y-65622419D02*
X94018170Y-65622419D01*
X94303884Y-65622419D02*
X94303884Y-64622419D01*
X94303884Y-64622419D02*
X94208646Y-64765276D01*
X94208646Y-64765276D02*
X94113408Y-64860514D01*
X94113408Y-64860514D02*
X94018170Y-64908133D01*
X95208646Y-64622419D02*
X95303884Y-64622419D01*
X95303884Y-64622419D02*
X95399122Y-64670038D01*
X95399122Y-64670038D02*
X95446741Y-64717657D01*
X95446741Y-64717657D02*
X95494360Y-64812895D01*
X95494360Y-64812895D02*
X95541979Y-65003371D01*
X95541979Y-65003371D02*
X95541979Y-65241466D01*
X95541979Y-65241466D02*
X95494360Y-65431942D01*
X95494360Y-65431942D02*
X95446741Y-65527180D01*
X95446741Y-65527180D02*
X95399122Y-65574800D01*
X95399122Y-65574800D02*
X95303884Y-65622419D01*
X95303884Y-65622419D02*
X95208646Y-65622419D01*
X95208646Y-65622419D02*
X95113408Y-65574800D01*
X95113408Y-65574800D02*
X95065789Y-65527180D01*
X95065789Y-65527180D02*
X95018170Y-65431942D01*
X95018170Y-65431942D02*
X94970551Y-65241466D01*
X94970551Y-65241466D02*
X94970551Y-65003371D01*
X94970551Y-65003371D02*
X95018170Y-64812895D01*
X95018170Y-64812895D02*
X95065789Y-64717657D01*
X95065789Y-64717657D02*
X95113408Y-64670038D01*
X95113408Y-64670038D02*
X95208646Y-64622419D01*
X96684837Y-65336704D02*
X97161027Y-65336704D01*
X96589599Y-65622419D02*
X96922932Y-64622419D01*
X96922932Y-64622419D02*
X97256265Y-65622419D01*
X97494361Y-64622419D02*
X98161027Y-65622419D01*
X98161027Y-64622419D02*
X97494361Y-65622419D01*
X98541980Y-65622419D02*
X98541980Y-64622419D01*
X98970551Y-65574800D02*
X99113408Y-65622419D01*
X99113408Y-65622419D02*
X99351503Y-65622419D01*
X99351503Y-65622419D02*
X99446741Y-65574800D01*
X99446741Y-65574800D02*
X99494360Y-65527180D01*
X99494360Y-65527180D02*
X99541979Y-65431942D01*
X99541979Y-65431942D02*
X99541979Y-65336704D01*
X99541979Y-65336704D02*
X99494360Y-65241466D01*
X99494360Y-65241466D02*
X99446741Y-65193847D01*
X99446741Y-65193847D02*
X99351503Y-65146228D01*
X99351503Y-65146228D02*
X99161027Y-65098609D01*
X99161027Y-65098609D02*
X99065789Y-65050990D01*
X99065789Y-65050990D02*
X99018170Y-65003371D01*
X99018170Y-65003371D02*
X98970551Y-64908133D01*
X98970551Y-64908133D02*
X98970551Y-64812895D01*
X98970551Y-64812895D02*
X99018170Y-64717657D01*
X99018170Y-64717657D02*
X99065789Y-64670038D01*
X99065789Y-64670038D02*
X99161027Y-64622419D01*
X99161027Y-64622419D02*
X99399122Y-64622419D01*
X99399122Y-64622419D02*
X99541979Y-64670038D01*
X100732456Y-65622419D02*
X100732456Y-64622419D01*
X101208646Y-65622419D02*
X101208646Y-64622419D01*
X101208646Y-64622419D02*
X101541979Y-65336704D01*
X101541979Y-65336704D02*
X101875312Y-64622419D01*
X101875312Y-64622419D02*
X101875312Y-65622419D01*
X102351503Y-64622419D02*
X102351503Y-65431942D01*
X102351503Y-65431942D02*
X102399122Y-65527180D01*
X102399122Y-65527180D02*
X102446741Y-65574800D01*
X102446741Y-65574800D02*
X102541979Y-65622419D01*
X102541979Y-65622419D02*
X102732455Y-65622419D01*
X102732455Y-65622419D02*
X102827693Y-65574800D01*
X102827693Y-65574800D02*
X102875312Y-65527180D01*
X102875312Y-65527180D02*
X102922931Y-65431942D01*
X102922931Y-65431942D02*
X102922931Y-64622419D01*
D12*
X82066976Y-97900657D02*
X82066976Y-98710493D01*
X82066976Y-98710493D02*
X82114613Y-98805768D01*
X82114613Y-98805768D02*
X82162251Y-98853406D01*
X82162251Y-98853406D02*
X82257525Y-98901043D01*
X82257525Y-98901043D02*
X82448075Y-98901043D01*
X82448075Y-98901043D02*
X82543350Y-98853406D01*
X82543350Y-98853406D02*
X82590987Y-98805768D01*
X82590987Y-98805768D02*
X82638625Y-98710493D01*
X82638625Y-98710493D02*
X82638625Y-97900657D01*
X83543736Y-97900657D02*
X83353186Y-97900657D01*
X83353186Y-97900657D02*
X83257911Y-97948294D01*
X83257911Y-97948294D02*
X83210274Y-97995932D01*
X83210274Y-97995932D02*
X83114999Y-98138844D01*
X83114999Y-98138844D02*
X83067361Y-98329394D01*
X83067361Y-98329394D02*
X83067361Y-98710493D01*
X83067361Y-98710493D02*
X83114999Y-98805768D01*
X83114999Y-98805768D02*
X83162636Y-98853406D01*
X83162636Y-98853406D02*
X83257911Y-98901043D01*
X83257911Y-98901043D02*
X83448461Y-98901043D01*
X83448461Y-98901043D02*
X83543736Y-98853406D01*
X83543736Y-98853406D02*
X83591373Y-98805768D01*
X83591373Y-98805768D02*
X83639010Y-98710493D01*
X83639010Y-98710493D02*
X83639010Y-98472306D01*
X83639010Y-98472306D02*
X83591373Y-98377031D01*
X83591373Y-98377031D02*
X83543736Y-98329394D01*
X83543736Y-98329394D02*
X83448461Y-98281756D01*
X83448461Y-98281756D02*
X83257911Y-98281756D01*
X83257911Y-98281756D02*
X83162636Y-98329394D01*
X83162636Y-98329394D02*
X83114999Y-98377031D01*
X83114999Y-98377031D02*
X83067361Y-98472306D01*
D11*
X79707419Y-171333333D02*
X80421704Y-171333333D01*
X80421704Y-171333333D02*
X80564561Y-171380952D01*
X80564561Y-171380952D02*
X80659800Y-171476190D01*
X80659800Y-171476190D02*
X80707419Y-171619047D01*
X80707419Y-171619047D02*
X80707419Y-171714285D01*
X79707419Y-170428571D02*
X79707419Y-170619047D01*
X79707419Y-170619047D02*
X79755038Y-170714285D01*
X79755038Y-170714285D02*
X79802657Y-170761904D01*
X79802657Y-170761904D02*
X79945514Y-170857142D01*
X79945514Y-170857142D02*
X80135990Y-170904761D01*
X80135990Y-170904761D02*
X80516942Y-170904761D01*
X80516942Y-170904761D02*
X80612180Y-170857142D01*
X80612180Y-170857142D02*
X80659800Y-170809523D01*
X80659800Y-170809523D02*
X80707419Y-170714285D01*
X80707419Y-170714285D02*
X80707419Y-170523809D01*
X80707419Y-170523809D02*
X80659800Y-170428571D01*
X80659800Y-170428571D02*
X80612180Y-170380952D01*
X80612180Y-170380952D02*
X80516942Y-170333333D01*
X80516942Y-170333333D02*
X80278847Y-170333333D01*
X80278847Y-170333333D02*
X80183609Y-170380952D01*
X80183609Y-170380952D02*
X80135990Y-170428571D01*
X80135990Y-170428571D02*
X80088371Y-170523809D01*
X80088371Y-170523809D02*
X80088371Y-170714285D01*
X80088371Y-170714285D02*
X80135990Y-170809523D01*
X80135990Y-170809523D02*
X80183609Y-170857142D01*
X80183609Y-170857142D02*
X80278847Y-170904761D01*
X57957419Y-121309523D02*
X58671704Y-121309523D01*
X58671704Y-121309523D02*
X58814561Y-121357142D01*
X58814561Y-121357142D02*
X58909800Y-121452380D01*
X58909800Y-121452380D02*
X58957419Y-121595237D01*
X58957419Y-121595237D02*
X58957419Y-121690475D01*
X58957419Y-120309523D02*
X58957419Y-120880951D01*
X58957419Y-120595237D02*
X57957419Y-120595237D01*
X57957419Y-120595237D02*
X58100276Y-120690475D01*
X58100276Y-120690475D02*
X58195514Y-120785713D01*
X58195514Y-120785713D02*
X58243133Y-120880951D01*
X58290752Y-119452380D02*
X58957419Y-119452380D01*
X57909800Y-119690475D02*
X58624085Y-119928570D01*
X58624085Y-119928570D02*
X58624085Y-119309523D01*
X57957419Y-93761904D02*
X58766942Y-93761904D01*
X58766942Y-93761904D02*
X58862180Y-93714285D01*
X58862180Y-93714285D02*
X58909800Y-93666666D01*
X58909800Y-93666666D02*
X58957419Y-93571428D01*
X58957419Y-93571428D02*
X58957419Y-93380952D01*
X58957419Y-93380952D02*
X58909800Y-93285714D01*
X58909800Y-93285714D02*
X58862180Y-93238095D01*
X58862180Y-93238095D02*
X58766942Y-93190476D01*
X58766942Y-93190476D02*
X57957419Y-93190476D01*
X58290752Y-92285714D02*
X58957419Y-92285714D01*
X57909800Y-92523809D02*
X58624085Y-92761904D01*
X58624085Y-92761904D02*
X58624085Y-92142857D01*
D13*
X28488720Y-52744838D02*
X28869673Y-52744838D01*
X28869673Y-52744838D02*
X29060149Y-52840076D01*
X29060149Y-52840076D02*
X29250625Y-53030552D01*
X29250625Y-53030552D02*
X29345863Y-53411504D01*
X29345863Y-53411504D02*
X29345863Y-54078171D01*
X29345863Y-54078171D02*
X29250625Y-54459123D01*
X29250625Y-54459123D02*
X29060149Y-54649600D01*
X29060149Y-54649600D02*
X28869673Y-54744838D01*
X28869673Y-54744838D02*
X28488720Y-54744838D01*
X28488720Y-54744838D02*
X28298244Y-54649600D01*
X28298244Y-54649600D02*
X28107768Y-54459123D01*
X28107768Y-54459123D02*
X28012530Y-54078171D01*
X28012530Y-54078171D02*
X28012530Y-53411504D01*
X28012530Y-53411504D02*
X28107768Y-53030552D01*
X28107768Y-53030552D02*
X28298244Y-52840076D01*
X28298244Y-52840076D02*
X28488720Y-52744838D01*
X30203006Y-52744838D02*
X30203006Y-54363885D01*
X30203006Y-54363885D02*
X30298244Y-54554361D01*
X30298244Y-54554361D02*
X30393482Y-54649600D01*
X30393482Y-54649600D02*
X30583958Y-54744838D01*
X30583958Y-54744838D02*
X30964911Y-54744838D01*
X30964911Y-54744838D02*
X31155387Y-54649600D01*
X31155387Y-54649600D02*
X31250625Y-54554361D01*
X31250625Y-54554361D02*
X31345863Y-54363885D01*
X31345863Y-54363885D02*
X31345863Y-52744838D01*
X32012530Y-52744838D02*
X33155387Y-52744838D01*
X32583958Y-54744838D02*
X32583958Y-52744838D01*
X33822054Y-53982933D02*
X35345864Y-53982933D01*
X34583959Y-54744838D02*
X34583959Y-53221028D01*
D11*
X56372419Y-81196115D02*
X55372419Y-81196115D01*
X55372419Y-81196115D02*
X55372419Y-80958020D01*
X55372419Y-80958020D02*
X55420038Y-80815163D01*
X55420038Y-80815163D02*
X55515276Y-80719925D01*
X55515276Y-80719925D02*
X55610514Y-80672306D01*
X55610514Y-80672306D02*
X55800990Y-80624687D01*
X55800990Y-80624687D02*
X55943847Y-80624687D01*
X55943847Y-80624687D02*
X56134323Y-80672306D01*
X56134323Y-80672306D02*
X56229561Y-80719925D01*
X56229561Y-80719925D02*
X56324800Y-80815163D01*
X56324800Y-80815163D02*
X56372419Y-80958020D01*
X56372419Y-80958020D02*
X56372419Y-81196115D01*
X56277180Y-79624687D02*
X56324800Y-79672306D01*
X56324800Y-79672306D02*
X56372419Y-79815163D01*
X56372419Y-79815163D02*
X56372419Y-79910401D01*
X56372419Y-79910401D02*
X56324800Y-80053258D01*
X56324800Y-80053258D02*
X56229561Y-80148496D01*
X56229561Y-80148496D02*
X56134323Y-80196115D01*
X56134323Y-80196115D02*
X55943847Y-80243734D01*
X55943847Y-80243734D02*
X55800990Y-80243734D01*
X55800990Y-80243734D02*
X55610514Y-80196115D01*
X55610514Y-80196115D02*
X55515276Y-80148496D01*
X55515276Y-80148496D02*
X55420038Y-80053258D01*
X55420038Y-80053258D02*
X55372419Y-79910401D01*
X55372419Y-79910401D02*
X55372419Y-79815163D01*
X55372419Y-79815163D02*
X55420038Y-79672306D01*
X55420038Y-79672306D02*
X55467657Y-79624687D01*
X56372419Y-78434210D02*
X55372419Y-78434210D01*
X55753371Y-78434210D02*
X55705752Y-78338972D01*
X55705752Y-78338972D02*
X55705752Y-78148496D01*
X55705752Y-78148496D02*
X55753371Y-78053258D01*
X55753371Y-78053258D02*
X55800990Y-78005639D01*
X55800990Y-78005639D02*
X55896228Y-77958020D01*
X55896228Y-77958020D02*
X56181942Y-77958020D01*
X56181942Y-77958020D02*
X56277180Y-78005639D01*
X56277180Y-78005639D02*
X56324800Y-78053258D01*
X56324800Y-78053258D02*
X56372419Y-78148496D01*
X56372419Y-78148496D02*
X56372419Y-78338972D01*
X56372419Y-78338972D02*
X56324800Y-78434210D01*
X55705752Y-77100877D02*
X56372419Y-77100877D01*
X55705752Y-77529448D02*
X56229561Y-77529448D01*
X56229561Y-77529448D02*
X56324800Y-77481829D01*
X56324800Y-77481829D02*
X56372419Y-77386591D01*
X56372419Y-77386591D02*
X56372419Y-77243734D01*
X56372419Y-77243734D02*
X56324800Y-77148496D01*
X56324800Y-77148496D02*
X56277180Y-77100877D01*
X56324800Y-76196115D02*
X56372419Y-76291353D01*
X56372419Y-76291353D02*
X56372419Y-76481829D01*
X56372419Y-76481829D02*
X56324800Y-76577067D01*
X56324800Y-76577067D02*
X56277180Y-76624686D01*
X56277180Y-76624686D02*
X56181942Y-76672305D01*
X56181942Y-76672305D02*
X55896228Y-76672305D01*
X55896228Y-76672305D02*
X55800990Y-76624686D01*
X55800990Y-76624686D02*
X55753371Y-76577067D01*
X55753371Y-76577067D02*
X55705752Y-76481829D01*
X55705752Y-76481829D02*
X55705752Y-76291353D01*
X55705752Y-76291353D02*
X55753371Y-76196115D01*
X56372419Y-75767543D02*
X55372419Y-75767543D01*
X55991466Y-75672305D02*
X56372419Y-75386591D01*
X55705752Y-75386591D02*
X56086704Y-75767543D01*
X56372419Y-73672305D02*
X56372419Y-74243733D01*
X56372419Y-73958019D02*
X55372419Y-73958019D01*
X55372419Y-73958019D02*
X55515276Y-74053257D01*
X55515276Y-74053257D02*
X55610514Y-74148495D01*
X55610514Y-74148495D02*
X55658133Y-74243733D01*
X55372419Y-72815162D02*
X55372419Y-73005638D01*
X55372419Y-73005638D02*
X55420038Y-73100876D01*
X55420038Y-73100876D02*
X55467657Y-73148495D01*
X55467657Y-73148495D02*
X55610514Y-73243733D01*
X55610514Y-73243733D02*
X55800990Y-73291352D01*
X55800990Y-73291352D02*
X56181942Y-73291352D01*
X56181942Y-73291352D02*
X56277180Y-73243733D01*
X56277180Y-73243733D02*
X56324800Y-73196114D01*
X56324800Y-73196114D02*
X56372419Y-73100876D01*
X56372419Y-73100876D02*
X56372419Y-72910400D01*
X56372419Y-72910400D02*
X56324800Y-72815162D01*
X56324800Y-72815162D02*
X56277180Y-72767543D01*
X56277180Y-72767543D02*
X56181942Y-72719924D01*
X56181942Y-72719924D02*
X55943847Y-72719924D01*
X55943847Y-72719924D02*
X55848609Y-72767543D01*
X55848609Y-72767543D02*
X55800990Y-72815162D01*
X55800990Y-72815162D02*
X55753371Y-72910400D01*
X55753371Y-72910400D02*
X55753371Y-73100876D01*
X55753371Y-73100876D02*
X55800990Y-73196114D01*
X55800990Y-73196114D02*
X55848609Y-73243733D01*
X55848609Y-73243733D02*
X55943847Y-73291352D01*
X55991466Y-72291352D02*
X55991466Y-71529448D01*
X55800990Y-70910400D02*
X55753371Y-71005638D01*
X55753371Y-71005638D02*
X55705752Y-71053257D01*
X55705752Y-71053257D02*
X55610514Y-71100876D01*
X55610514Y-71100876D02*
X55562895Y-71100876D01*
X55562895Y-71100876D02*
X55467657Y-71053257D01*
X55467657Y-71053257D02*
X55420038Y-71005638D01*
X55420038Y-71005638D02*
X55372419Y-70910400D01*
X55372419Y-70910400D02*
X55372419Y-70719924D01*
X55372419Y-70719924D02*
X55420038Y-70624686D01*
X55420038Y-70624686D02*
X55467657Y-70577067D01*
X55467657Y-70577067D02*
X55562895Y-70529448D01*
X55562895Y-70529448D02*
X55610514Y-70529448D01*
X55610514Y-70529448D02*
X55705752Y-70577067D01*
X55705752Y-70577067D02*
X55753371Y-70624686D01*
X55753371Y-70624686D02*
X55800990Y-70719924D01*
X55800990Y-70719924D02*
X55800990Y-70910400D01*
X55800990Y-70910400D02*
X55848609Y-71005638D01*
X55848609Y-71005638D02*
X55896228Y-71053257D01*
X55896228Y-71053257D02*
X55991466Y-71100876D01*
X55991466Y-71100876D02*
X56181942Y-71100876D01*
X56181942Y-71100876D02*
X56277180Y-71053257D01*
X56277180Y-71053257D02*
X56324800Y-71005638D01*
X56324800Y-71005638D02*
X56372419Y-70910400D01*
X56372419Y-70910400D02*
X56372419Y-70719924D01*
X56372419Y-70719924D02*
X56324800Y-70624686D01*
X56324800Y-70624686D02*
X56277180Y-70577067D01*
X56277180Y-70577067D02*
X56181942Y-70529448D01*
X56181942Y-70529448D02*
X55991466Y-70529448D01*
X55991466Y-70529448D02*
X55896228Y-70577067D01*
X55896228Y-70577067D02*
X55848609Y-70624686D01*
X55848609Y-70624686D02*
X55800990Y-70719924D01*
X55372419Y-69910400D02*
X55372419Y-69815162D01*
X55372419Y-69815162D02*
X55420038Y-69719924D01*
X55420038Y-69719924D02*
X55467657Y-69672305D01*
X55467657Y-69672305D02*
X55562895Y-69624686D01*
X55562895Y-69624686D02*
X55753371Y-69577067D01*
X55753371Y-69577067D02*
X55991466Y-69577067D01*
X55991466Y-69577067D02*
X56181942Y-69624686D01*
X56181942Y-69624686D02*
X56277180Y-69672305D01*
X56277180Y-69672305D02*
X56324800Y-69719924D01*
X56324800Y-69719924D02*
X56372419Y-69815162D01*
X56372419Y-69815162D02*
X56372419Y-69910400D01*
X56372419Y-69910400D02*
X56324800Y-70005638D01*
X56324800Y-70005638D02*
X56277180Y-70053257D01*
X56277180Y-70053257D02*
X56181942Y-70100876D01*
X56181942Y-70100876D02*
X55991466Y-70148495D01*
X55991466Y-70148495D02*
X55753371Y-70148495D01*
X55753371Y-70148495D02*
X55562895Y-70100876D01*
X55562895Y-70100876D02*
X55467657Y-70053257D01*
X55467657Y-70053257D02*
X55420038Y-70005638D01*
X55420038Y-70005638D02*
X55372419Y-69910400D01*
X55372419Y-69291352D02*
X56372419Y-68958019D01*
X56372419Y-68958019D02*
X55372419Y-68624686D01*
X55705752Y-67672304D02*
X55705752Y-67291352D01*
X55372419Y-67529447D02*
X56229561Y-67529447D01*
X56229561Y-67529447D02*
X56324800Y-67481828D01*
X56324800Y-67481828D02*
X56372419Y-67386590D01*
X56372419Y-67386590D02*
X56372419Y-67291352D01*
X56372419Y-66815161D02*
X56324800Y-66910399D01*
X56324800Y-66910399D02*
X56277180Y-66958018D01*
X56277180Y-66958018D02*
X56181942Y-67005637D01*
X56181942Y-67005637D02*
X55896228Y-67005637D01*
X55896228Y-67005637D02*
X55800990Y-66958018D01*
X55800990Y-66958018D02*
X55753371Y-66910399D01*
X55753371Y-66910399D02*
X55705752Y-66815161D01*
X55705752Y-66815161D02*
X55705752Y-66672304D01*
X55705752Y-66672304D02*
X55753371Y-66577066D01*
X55753371Y-66577066D02*
X55800990Y-66529447D01*
X55800990Y-66529447D02*
X55896228Y-66481828D01*
X55896228Y-66481828D02*
X56181942Y-66481828D01*
X56181942Y-66481828D02*
X56277180Y-66529447D01*
X56277180Y-66529447D02*
X56324800Y-66577066D01*
X56324800Y-66577066D02*
X56372419Y-66672304D01*
X56372419Y-66672304D02*
X56372419Y-66815161D01*
X56372419Y-64767542D02*
X56372419Y-65338970D01*
X56372419Y-65053256D02*
X55372419Y-65053256D01*
X55372419Y-65053256D02*
X55515276Y-65148494D01*
X55515276Y-65148494D02*
X55610514Y-65243732D01*
X55610514Y-65243732D02*
X55658133Y-65338970D01*
X55467657Y-64386589D02*
X55420038Y-64338970D01*
X55420038Y-64338970D02*
X55372419Y-64243732D01*
X55372419Y-64243732D02*
X55372419Y-64005637D01*
X55372419Y-64005637D02*
X55420038Y-63910399D01*
X55420038Y-63910399D02*
X55467657Y-63862780D01*
X55467657Y-63862780D02*
X55562895Y-63815161D01*
X55562895Y-63815161D02*
X55658133Y-63815161D01*
X55658133Y-63815161D02*
X55800990Y-63862780D01*
X55800990Y-63862780D02*
X56372419Y-64434208D01*
X56372419Y-64434208D02*
X56372419Y-63815161D01*
X55372419Y-63529446D02*
X56372419Y-63196113D01*
X56372419Y-63196113D02*
X55372419Y-62862780D01*
X55372419Y-61862779D02*
X55372419Y-61243732D01*
X55372419Y-61243732D02*
X55753371Y-61577065D01*
X55753371Y-61577065D02*
X55753371Y-61434208D01*
X55753371Y-61434208D02*
X55800990Y-61338970D01*
X55800990Y-61338970D02*
X55848609Y-61291351D01*
X55848609Y-61291351D02*
X55943847Y-61243732D01*
X55943847Y-61243732D02*
X56181942Y-61243732D01*
X56181942Y-61243732D02*
X56277180Y-61291351D01*
X56277180Y-61291351D02*
X56324800Y-61338970D01*
X56324800Y-61338970D02*
X56372419Y-61434208D01*
X56372419Y-61434208D02*
X56372419Y-61719922D01*
X56372419Y-61719922D02*
X56324800Y-61815160D01*
X56324800Y-61815160D02*
X56277180Y-61862779D01*
X56086704Y-60862779D02*
X56086704Y-60386589D01*
X56372419Y-60958017D02*
X55372419Y-60624684D01*
X55372419Y-60624684D02*
X56372419Y-60291351D01*
D14*
X43916952Y-88088972D02*
X43916952Y-92660401D01*
X43916952Y-90374687D02*
X35916952Y-90374687D01*
X35916952Y-90374687D02*
X37059809Y-91136591D01*
X37059809Y-91136591D02*
X37821714Y-91898496D01*
X37821714Y-91898496D02*
X38202666Y-92660401D01*
X36678857Y-85041353D02*
X36297904Y-84660401D01*
X36297904Y-84660401D02*
X35916952Y-83898496D01*
X35916952Y-83898496D02*
X35916952Y-81993734D01*
X35916952Y-81993734D02*
X36297904Y-81231829D01*
X36297904Y-81231829D02*
X36678857Y-80850877D01*
X36678857Y-80850877D02*
X37440761Y-80469924D01*
X37440761Y-80469924D02*
X38202666Y-80469924D01*
X38202666Y-80469924D02*
X39345523Y-80850877D01*
X39345523Y-80850877D02*
X43916952Y-85422305D01*
X43916952Y-85422305D02*
X43916952Y-80469924D01*
X35916952Y-78184210D02*
X43916952Y-75517543D01*
X43916952Y-75517543D02*
X35916952Y-72850876D01*
D13*
X52607768Y-97244838D02*
X52607768Y-95244838D01*
X53560149Y-97244838D02*
X53560149Y-95244838D01*
X53560149Y-95244838D02*
X54703006Y-97244838D01*
X54703006Y-97244838D02*
X54703006Y-95244838D01*
X55655387Y-96482933D02*
X57179197Y-96482933D01*
D11*
X56372419Y-81196115D02*
X55372419Y-81196115D01*
X55372419Y-81196115D02*
X55372419Y-80958020D01*
X55372419Y-80958020D02*
X55420038Y-80815163D01*
X55420038Y-80815163D02*
X55515276Y-80719925D01*
X55515276Y-80719925D02*
X55610514Y-80672306D01*
X55610514Y-80672306D02*
X55800990Y-80624687D01*
X55800990Y-80624687D02*
X55943847Y-80624687D01*
X55943847Y-80624687D02*
X56134323Y-80672306D01*
X56134323Y-80672306D02*
X56229561Y-80719925D01*
X56229561Y-80719925D02*
X56324800Y-80815163D01*
X56324800Y-80815163D02*
X56372419Y-80958020D01*
X56372419Y-80958020D02*
X56372419Y-81196115D01*
X56277180Y-79624687D02*
X56324800Y-79672306D01*
X56324800Y-79672306D02*
X56372419Y-79815163D01*
X56372419Y-79815163D02*
X56372419Y-79910401D01*
X56372419Y-79910401D02*
X56324800Y-80053258D01*
X56324800Y-80053258D02*
X56229561Y-80148496D01*
X56229561Y-80148496D02*
X56134323Y-80196115D01*
X56134323Y-80196115D02*
X55943847Y-80243734D01*
X55943847Y-80243734D02*
X55800990Y-80243734D01*
X55800990Y-80243734D02*
X55610514Y-80196115D01*
X55610514Y-80196115D02*
X55515276Y-80148496D01*
X55515276Y-80148496D02*
X55420038Y-80053258D01*
X55420038Y-80053258D02*
X55372419Y-79910401D01*
X55372419Y-79910401D02*
X55372419Y-79815163D01*
X55372419Y-79815163D02*
X55420038Y-79672306D01*
X55420038Y-79672306D02*
X55467657Y-79624687D01*
X56372419Y-78434210D02*
X55372419Y-78434210D01*
X55753371Y-78434210D02*
X55705752Y-78338972D01*
X55705752Y-78338972D02*
X55705752Y-78148496D01*
X55705752Y-78148496D02*
X55753371Y-78053258D01*
X55753371Y-78053258D02*
X55800990Y-78005639D01*
X55800990Y-78005639D02*
X55896228Y-77958020D01*
X55896228Y-77958020D02*
X56181942Y-77958020D01*
X56181942Y-77958020D02*
X56277180Y-78005639D01*
X56277180Y-78005639D02*
X56324800Y-78053258D01*
X56324800Y-78053258D02*
X56372419Y-78148496D01*
X56372419Y-78148496D02*
X56372419Y-78338972D01*
X56372419Y-78338972D02*
X56324800Y-78434210D01*
X55705752Y-77100877D02*
X56372419Y-77100877D01*
X55705752Y-77529448D02*
X56229561Y-77529448D01*
X56229561Y-77529448D02*
X56324800Y-77481829D01*
X56324800Y-77481829D02*
X56372419Y-77386591D01*
X56372419Y-77386591D02*
X56372419Y-77243734D01*
X56372419Y-77243734D02*
X56324800Y-77148496D01*
X56324800Y-77148496D02*
X56277180Y-77100877D01*
X56324800Y-76196115D02*
X56372419Y-76291353D01*
X56372419Y-76291353D02*
X56372419Y-76481829D01*
X56372419Y-76481829D02*
X56324800Y-76577067D01*
X56324800Y-76577067D02*
X56277180Y-76624686D01*
X56277180Y-76624686D02*
X56181942Y-76672305D01*
X56181942Y-76672305D02*
X55896228Y-76672305D01*
X55896228Y-76672305D02*
X55800990Y-76624686D01*
X55800990Y-76624686D02*
X55753371Y-76577067D01*
X55753371Y-76577067D02*
X55705752Y-76481829D01*
X55705752Y-76481829D02*
X55705752Y-76291353D01*
X55705752Y-76291353D02*
X55753371Y-76196115D01*
X56372419Y-75767543D02*
X55372419Y-75767543D01*
X55991466Y-75672305D02*
X56372419Y-75386591D01*
X55705752Y-75386591D02*
X56086704Y-75767543D01*
X56372419Y-73672305D02*
X56372419Y-74243733D01*
X56372419Y-73958019D02*
X55372419Y-73958019D01*
X55372419Y-73958019D02*
X55515276Y-74053257D01*
X55515276Y-74053257D02*
X55610514Y-74148495D01*
X55610514Y-74148495D02*
X55658133Y-74243733D01*
X55372419Y-72815162D02*
X55372419Y-73005638D01*
X55372419Y-73005638D02*
X55420038Y-73100876D01*
X55420038Y-73100876D02*
X55467657Y-73148495D01*
X55467657Y-73148495D02*
X55610514Y-73243733D01*
X55610514Y-73243733D02*
X55800990Y-73291352D01*
X55800990Y-73291352D02*
X56181942Y-73291352D01*
X56181942Y-73291352D02*
X56277180Y-73243733D01*
X56277180Y-73243733D02*
X56324800Y-73196114D01*
X56324800Y-73196114D02*
X56372419Y-73100876D01*
X56372419Y-73100876D02*
X56372419Y-72910400D01*
X56372419Y-72910400D02*
X56324800Y-72815162D01*
X56324800Y-72815162D02*
X56277180Y-72767543D01*
X56277180Y-72767543D02*
X56181942Y-72719924D01*
X56181942Y-72719924D02*
X55943847Y-72719924D01*
X55943847Y-72719924D02*
X55848609Y-72767543D01*
X55848609Y-72767543D02*
X55800990Y-72815162D01*
X55800990Y-72815162D02*
X55753371Y-72910400D01*
X55753371Y-72910400D02*
X55753371Y-73100876D01*
X55753371Y-73100876D02*
X55800990Y-73196114D01*
X55800990Y-73196114D02*
X55848609Y-73243733D01*
X55848609Y-73243733D02*
X55943847Y-73291352D01*
X55991466Y-72291352D02*
X55991466Y-71529448D01*
X55800990Y-70910400D02*
X55753371Y-71005638D01*
X55753371Y-71005638D02*
X55705752Y-71053257D01*
X55705752Y-71053257D02*
X55610514Y-71100876D01*
X55610514Y-71100876D02*
X55562895Y-71100876D01*
X55562895Y-71100876D02*
X55467657Y-71053257D01*
X55467657Y-71053257D02*
X55420038Y-71005638D01*
X55420038Y-71005638D02*
X55372419Y-70910400D01*
X55372419Y-70910400D02*
X55372419Y-70719924D01*
X55372419Y-70719924D02*
X55420038Y-70624686D01*
X55420038Y-70624686D02*
X55467657Y-70577067D01*
X55467657Y-70577067D02*
X55562895Y-70529448D01*
X55562895Y-70529448D02*
X55610514Y-70529448D01*
X55610514Y-70529448D02*
X55705752Y-70577067D01*
X55705752Y-70577067D02*
X55753371Y-70624686D01*
X55753371Y-70624686D02*
X55800990Y-70719924D01*
X55800990Y-70719924D02*
X55800990Y-70910400D01*
X55800990Y-70910400D02*
X55848609Y-71005638D01*
X55848609Y-71005638D02*
X55896228Y-71053257D01*
X55896228Y-71053257D02*
X55991466Y-71100876D01*
X55991466Y-71100876D02*
X56181942Y-71100876D01*
X56181942Y-71100876D02*
X56277180Y-71053257D01*
X56277180Y-71053257D02*
X56324800Y-71005638D01*
X56324800Y-71005638D02*
X56372419Y-70910400D01*
X56372419Y-70910400D02*
X56372419Y-70719924D01*
X56372419Y-70719924D02*
X56324800Y-70624686D01*
X56324800Y-70624686D02*
X56277180Y-70577067D01*
X56277180Y-70577067D02*
X56181942Y-70529448D01*
X56181942Y-70529448D02*
X55991466Y-70529448D01*
X55991466Y-70529448D02*
X55896228Y-70577067D01*
X55896228Y-70577067D02*
X55848609Y-70624686D01*
X55848609Y-70624686D02*
X55800990Y-70719924D01*
X55372419Y-69910400D02*
X55372419Y-69815162D01*
X55372419Y-69815162D02*
X55420038Y-69719924D01*
X55420038Y-69719924D02*
X55467657Y-69672305D01*
X55467657Y-69672305D02*
X55562895Y-69624686D01*
X55562895Y-69624686D02*
X55753371Y-69577067D01*
X55753371Y-69577067D02*
X55991466Y-69577067D01*
X55991466Y-69577067D02*
X56181942Y-69624686D01*
X56181942Y-69624686D02*
X56277180Y-69672305D01*
X56277180Y-69672305D02*
X56324800Y-69719924D01*
X56324800Y-69719924D02*
X56372419Y-69815162D01*
X56372419Y-69815162D02*
X56372419Y-69910400D01*
X56372419Y-69910400D02*
X56324800Y-70005638D01*
X56324800Y-70005638D02*
X56277180Y-70053257D01*
X56277180Y-70053257D02*
X56181942Y-70100876D01*
X56181942Y-70100876D02*
X55991466Y-70148495D01*
X55991466Y-70148495D02*
X55753371Y-70148495D01*
X55753371Y-70148495D02*
X55562895Y-70100876D01*
X55562895Y-70100876D02*
X55467657Y-70053257D01*
X55467657Y-70053257D02*
X55420038Y-70005638D01*
X55420038Y-70005638D02*
X55372419Y-69910400D01*
X55372419Y-69291352D02*
X56372419Y-68958019D01*
X56372419Y-68958019D02*
X55372419Y-68624686D01*
X55705752Y-67672304D02*
X55705752Y-67291352D01*
X55372419Y-67529447D02*
X56229561Y-67529447D01*
X56229561Y-67529447D02*
X56324800Y-67481828D01*
X56324800Y-67481828D02*
X56372419Y-67386590D01*
X56372419Y-67386590D02*
X56372419Y-67291352D01*
X56372419Y-66815161D02*
X56324800Y-66910399D01*
X56324800Y-66910399D02*
X56277180Y-66958018D01*
X56277180Y-66958018D02*
X56181942Y-67005637D01*
X56181942Y-67005637D02*
X55896228Y-67005637D01*
X55896228Y-67005637D02*
X55800990Y-66958018D01*
X55800990Y-66958018D02*
X55753371Y-66910399D01*
X55753371Y-66910399D02*
X55705752Y-66815161D01*
X55705752Y-66815161D02*
X55705752Y-66672304D01*
X55705752Y-66672304D02*
X55753371Y-66577066D01*
X55753371Y-66577066D02*
X55800990Y-66529447D01*
X55800990Y-66529447D02*
X55896228Y-66481828D01*
X55896228Y-66481828D02*
X56181942Y-66481828D01*
X56181942Y-66481828D02*
X56277180Y-66529447D01*
X56277180Y-66529447D02*
X56324800Y-66577066D01*
X56324800Y-66577066D02*
X56372419Y-66672304D01*
X56372419Y-66672304D02*
X56372419Y-66815161D01*
X55372419Y-64815161D02*
X55372419Y-65291351D01*
X55372419Y-65291351D02*
X55848609Y-65338970D01*
X55848609Y-65338970D02*
X55800990Y-65291351D01*
X55800990Y-65291351D02*
X55753371Y-65196113D01*
X55753371Y-65196113D02*
X55753371Y-64958018D01*
X55753371Y-64958018D02*
X55800990Y-64862780D01*
X55800990Y-64862780D02*
X55848609Y-64815161D01*
X55848609Y-64815161D02*
X55943847Y-64767542D01*
X55943847Y-64767542D02*
X56181942Y-64767542D01*
X56181942Y-64767542D02*
X56277180Y-64815161D01*
X56277180Y-64815161D02*
X56324800Y-64862780D01*
X56324800Y-64862780D02*
X56372419Y-64958018D01*
X56372419Y-64958018D02*
X56372419Y-65196113D01*
X56372419Y-65196113D02*
X56324800Y-65291351D01*
X56324800Y-65291351D02*
X56277180Y-65338970D01*
X55372419Y-64481827D02*
X56372419Y-64148494D01*
X56372419Y-64148494D02*
X55372419Y-63815161D01*
X55372419Y-62815160D02*
X55372419Y-62196113D01*
X55372419Y-62196113D02*
X55753371Y-62529446D01*
X55753371Y-62529446D02*
X55753371Y-62386589D01*
X55753371Y-62386589D02*
X55800990Y-62291351D01*
X55800990Y-62291351D02*
X55848609Y-62243732D01*
X55848609Y-62243732D02*
X55943847Y-62196113D01*
X55943847Y-62196113D02*
X56181942Y-62196113D01*
X56181942Y-62196113D02*
X56277180Y-62243732D01*
X56277180Y-62243732D02*
X56324800Y-62291351D01*
X56324800Y-62291351D02*
X56372419Y-62386589D01*
X56372419Y-62386589D02*
X56372419Y-62672303D01*
X56372419Y-62672303D02*
X56324800Y-62767541D01*
X56324800Y-62767541D02*
X56277180Y-62815160D01*
X56086704Y-61815160D02*
X56086704Y-61338970D01*
X56372419Y-61910398D02*
X55372419Y-61577065D01*
X55372419Y-61577065D02*
X56372419Y-61243732D01*
D13*
X50488720Y-52244838D02*
X50869673Y-52244838D01*
X50869673Y-52244838D02*
X51060149Y-52340076D01*
X51060149Y-52340076D02*
X51250625Y-52530552D01*
X51250625Y-52530552D02*
X51345863Y-52911504D01*
X51345863Y-52911504D02*
X51345863Y-53578171D01*
X51345863Y-53578171D02*
X51250625Y-53959123D01*
X51250625Y-53959123D02*
X51060149Y-54149600D01*
X51060149Y-54149600D02*
X50869673Y-54244838D01*
X50869673Y-54244838D02*
X50488720Y-54244838D01*
X50488720Y-54244838D02*
X50298244Y-54149600D01*
X50298244Y-54149600D02*
X50107768Y-53959123D01*
X50107768Y-53959123D02*
X50012530Y-53578171D01*
X50012530Y-53578171D02*
X50012530Y-52911504D01*
X50012530Y-52911504D02*
X50107768Y-52530552D01*
X50107768Y-52530552D02*
X50298244Y-52340076D01*
X50298244Y-52340076D02*
X50488720Y-52244838D01*
X52203006Y-52244838D02*
X52203006Y-53863885D01*
X52203006Y-53863885D02*
X52298244Y-54054361D01*
X52298244Y-54054361D02*
X52393482Y-54149600D01*
X52393482Y-54149600D02*
X52583958Y-54244838D01*
X52583958Y-54244838D02*
X52964911Y-54244838D01*
X52964911Y-54244838D02*
X53155387Y-54149600D01*
X53155387Y-54149600D02*
X53250625Y-54054361D01*
X53250625Y-54054361D02*
X53345863Y-53863885D01*
X53345863Y-53863885D02*
X53345863Y-52244838D01*
X54012530Y-52244838D02*
X55155387Y-52244838D01*
X54583958Y-54244838D02*
X54583958Y-52244838D01*
X55822054Y-53482933D02*
X57345864Y-53482933D01*
X28107768Y-97244838D02*
X28107768Y-95244838D01*
X29060149Y-97244838D02*
X29060149Y-95244838D01*
X29060149Y-95244838D02*
X30203006Y-97244838D01*
X30203006Y-97244838D02*
X30203006Y-95244838D01*
X31155387Y-96482933D02*
X32679197Y-96482933D01*
X31917292Y-97244838D02*
X31917292Y-95721028D01*
D11*
X57957419Y-139761904D02*
X58766942Y-139761904D01*
X58766942Y-139761904D02*
X58862180Y-139714285D01*
X58862180Y-139714285D02*
X58909800Y-139666666D01*
X58909800Y-139666666D02*
X58957419Y-139571428D01*
X58957419Y-139571428D02*
X58957419Y-139380952D01*
X58957419Y-139380952D02*
X58909800Y-139285714D01*
X58909800Y-139285714D02*
X58862180Y-139238095D01*
X58862180Y-139238095D02*
X58766942Y-139190476D01*
X58766942Y-139190476D02*
X57957419Y-139190476D01*
X57957419Y-138809523D02*
X57957419Y-138190476D01*
X57957419Y-138190476D02*
X58338371Y-138523809D01*
X58338371Y-138523809D02*
X58338371Y-138380952D01*
X58338371Y-138380952D02*
X58385990Y-138285714D01*
X58385990Y-138285714D02*
X58433609Y-138238095D01*
X58433609Y-138238095D02*
X58528847Y-138190476D01*
X58528847Y-138190476D02*
X58766942Y-138190476D01*
X58766942Y-138190476D02*
X58862180Y-138238095D01*
X58862180Y-138238095D02*
X58909800Y-138285714D01*
X58909800Y-138285714D02*
X58957419Y-138380952D01*
X58957419Y-138380952D02*
X58957419Y-138666666D01*
X58957419Y-138666666D02*
X58909800Y-138761904D01*
X58909800Y-138761904D02*
X58862180Y-138809523D01*
D13*
X28488720Y-97744838D02*
X28869673Y-97744838D01*
X28869673Y-97744838D02*
X29060149Y-97840076D01*
X29060149Y-97840076D02*
X29250625Y-98030552D01*
X29250625Y-98030552D02*
X29345863Y-98411504D01*
X29345863Y-98411504D02*
X29345863Y-99078171D01*
X29345863Y-99078171D02*
X29250625Y-99459123D01*
X29250625Y-99459123D02*
X29060149Y-99649600D01*
X29060149Y-99649600D02*
X28869673Y-99744838D01*
X28869673Y-99744838D02*
X28488720Y-99744838D01*
X28488720Y-99744838D02*
X28298244Y-99649600D01*
X28298244Y-99649600D02*
X28107768Y-99459123D01*
X28107768Y-99459123D02*
X28012530Y-99078171D01*
X28012530Y-99078171D02*
X28012530Y-98411504D01*
X28012530Y-98411504D02*
X28107768Y-98030552D01*
X28107768Y-98030552D02*
X28298244Y-97840076D01*
X28298244Y-97840076D02*
X28488720Y-97744838D01*
X30203006Y-97744838D02*
X30203006Y-99363885D01*
X30203006Y-99363885D02*
X30298244Y-99554361D01*
X30298244Y-99554361D02*
X30393482Y-99649600D01*
X30393482Y-99649600D02*
X30583958Y-99744838D01*
X30583958Y-99744838D02*
X30964911Y-99744838D01*
X30964911Y-99744838D02*
X31155387Y-99649600D01*
X31155387Y-99649600D02*
X31250625Y-99554361D01*
X31250625Y-99554361D02*
X31345863Y-99363885D01*
X31345863Y-99363885D02*
X31345863Y-97744838D01*
X32012530Y-97744838D02*
X33155387Y-97744838D01*
X32583958Y-99744838D02*
X32583958Y-97744838D01*
X33822054Y-98982933D02*
X35345864Y-98982933D01*
X34583959Y-99744838D02*
X34583959Y-98221028D01*
X50488720Y-97744838D02*
X50869673Y-97744838D01*
X50869673Y-97744838D02*
X51060149Y-97840076D01*
X51060149Y-97840076D02*
X51250625Y-98030552D01*
X51250625Y-98030552D02*
X51345863Y-98411504D01*
X51345863Y-98411504D02*
X51345863Y-99078171D01*
X51345863Y-99078171D02*
X51250625Y-99459123D01*
X51250625Y-99459123D02*
X51060149Y-99649600D01*
X51060149Y-99649600D02*
X50869673Y-99744838D01*
X50869673Y-99744838D02*
X50488720Y-99744838D01*
X50488720Y-99744838D02*
X50298244Y-99649600D01*
X50298244Y-99649600D02*
X50107768Y-99459123D01*
X50107768Y-99459123D02*
X50012530Y-99078171D01*
X50012530Y-99078171D02*
X50012530Y-98411504D01*
X50012530Y-98411504D02*
X50107768Y-98030552D01*
X50107768Y-98030552D02*
X50298244Y-97840076D01*
X50298244Y-97840076D02*
X50488720Y-97744838D01*
X52203006Y-97744838D02*
X52203006Y-99363885D01*
X52203006Y-99363885D02*
X52298244Y-99554361D01*
X52298244Y-99554361D02*
X52393482Y-99649600D01*
X52393482Y-99649600D02*
X52583958Y-99744838D01*
X52583958Y-99744838D02*
X52964911Y-99744838D01*
X52964911Y-99744838D02*
X53155387Y-99649600D01*
X53155387Y-99649600D02*
X53250625Y-99554361D01*
X53250625Y-99554361D02*
X53345863Y-99363885D01*
X53345863Y-99363885D02*
X53345863Y-97744838D01*
X54012530Y-97744838D02*
X55155387Y-97744838D01*
X54583958Y-99744838D02*
X54583958Y-97744838D01*
X55822054Y-98982933D02*
X57345864Y-98982933D01*
X52607768Y-142244838D02*
X52607768Y-140244838D01*
X53560149Y-142244838D02*
X53560149Y-140244838D01*
X53560149Y-140244838D02*
X54703006Y-142244838D01*
X54703006Y-142244838D02*
X54703006Y-140244838D01*
X55655387Y-141482933D02*
X57179197Y-141482933D01*
X28107768Y-142244838D02*
X28107768Y-140244838D01*
X29060149Y-142244838D02*
X29060149Y-140244838D01*
X29060149Y-140244838D02*
X30203006Y-142244838D01*
X30203006Y-142244838D02*
X30203006Y-140244838D01*
X31155387Y-141482933D02*
X32679197Y-141482933D01*
X31917292Y-142244838D02*
X31917292Y-140721028D01*
D14*
X35916952Y-129469925D02*
X35916952Y-133279449D01*
X35916952Y-133279449D02*
X39726476Y-133660401D01*
X39726476Y-133660401D02*
X39345523Y-133279449D01*
X39345523Y-133279449D02*
X38964571Y-132517544D01*
X38964571Y-132517544D02*
X38964571Y-130612782D01*
X38964571Y-130612782D02*
X39345523Y-129850877D01*
X39345523Y-129850877D02*
X39726476Y-129469925D01*
X39726476Y-129469925D02*
X40488380Y-129088972D01*
X40488380Y-129088972D02*
X42393142Y-129088972D01*
X42393142Y-129088972D02*
X43155047Y-129469925D01*
X43155047Y-129469925D02*
X43536000Y-129850877D01*
X43536000Y-129850877D02*
X43916952Y-130612782D01*
X43916952Y-130612782D02*
X43916952Y-132517544D01*
X43916952Y-132517544D02*
X43536000Y-133279449D01*
X43536000Y-133279449D02*
X43155047Y-133660401D01*
X35916952Y-126803258D02*
X43916952Y-124136591D01*
X43916952Y-124136591D02*
X35916952Y-121469924D01*
D11*
X56372419Y-126196115D02*
X55372419Y-126196115D01*
X55372419Y-126196115D02*
X55372419Y-125958020D01*
X55372419Y-125958020D02*
X55420038Y-125815163D01*
X55420038Y-125815163D02*
X55515276Y-125719925D01*
X55515276Y-125719925D02*
X55610514Y-125672306D01*
X55610514Y-125672306D02*
X55800990Y-125624687D01*
X55800990Y-125624687D02*
X55943847Y-125624687D01*
X55943847Y-125624687D02*
X56134323Y-125672306D01*
X56134323Y-125672306D02*
X56229561Y-125719925D01*
X56229561Y-125719925D02*
X56324800Y-125815163D01*
X56324800Y-125815163D02*
X56372419Y-125958020D01*
X56372419Y-125958020D02*
X56372419Y-126196115D01*
X56277180Y-124624687D02*
X56324800Y-124672306D01*
X56324800Y-124672306D02*
X56372419Y-124815163D01*
X56372419Y-124815163D02*
X56372419Y-124910401D01*
X56372419Y-124910401D02*
X56324800Y-125053258D01*
X56324800Y-125053258D02*
X56229561Y-125148496D01*
X56229561Y-125148496D02*
X56134323Y-125196115D01*
X56134323Y-125196115D02*
X55943847Y-125243734D01*
X55943847Y-125243734D02*
X55800990Y-125243734D01*
X55800990Y-125243734D02*
X55610514Y-125196115D01*
X55610514Y-125196115D02*
X55515276Y-125148496D01*
X55515276Y-125148496D02*
X55420038Y-125053258D01*
X55420038Y-125053258D02*
X55372419Y-124910401D01*
X55372419Y-124910401D02*
X55372419Y-124815163D01*
X55372419Y-124815163D02*
X55420038Y-124672306D01*
X55420038Y-124672306D02*
X55467657Y-124624687D01*
X56372419Y-123434210D02*
X55372419Y-123434210D01*
X55753371Y-123434210D02*
X55705752Y-123338972D01*
X55705752Y-123338972D02*
X55705752Y-123148496D01*
X55705752Y-123148496D02*
X55753371Y-123053258D01*
X55753371Y-123053258D02*
X55800990Y-123005639D01*
X55800990Y-123005639D02*
X55896228Y-122958020D01*
X55896228Y-122958020D02*
X56181942Y-122958020D01*
X56181942Y-122958020D02*
X56277180Y-123005639D01*
X56277180Y-123005639D02*
X56324800Y-123053258D01*
X56324800Y-123053258D02*
X56372419Y-123148496D01*
X56372419Y-123148496D02*
X56372419Y-123338972D01*
X56372419Y-123338972D02*
X56324800Y-123434210D01*
X55705752Y-122100877D02*
X56372419Y-122100877D01*
X55705752Y-122529448D02*
X56229561Y-122529448D01*
X56229561Y-122529448D02*
X56324800Y-122481829D01*
X56324800Y-122481829D02*
X56372419Y-122386591D01*
X56372419Y-122386591D02*
X56372419Y-122243734D01*
X56372419Y-122243734D02*
X56324800Y-122148496D01*
X56324800Y-122148496D02*
X56277180Y-122100877D01*
X56324800Y-121196115D02*
X56372419Y-121291353D01*
X56372419Y-121291353D02*
X56372419Y-121481829D01*
X56372419Y-121481829D02*
X56324800Y-121577067D01*
X56324800Y-121577067D02*
X56277180Y-121624686D01*
X56277180Y-121624686D02*
X56181942Y-121672305D01*
X56181942Y-121672305D02*
X55896228Y-121672305D01*
X55896228Y-121672305D02*
X55800990Y-121624686D01*
X55800990Y-121624686D02*
X55753371Y-121577067D01*
X55753371Y-121577067D02*
X55705752Y-121481829D01*
X55705752Y-121481829D02*
X55705752Y-121291353D01*
X55705752Y-121291353D02*
X55753371Y-121196115D01*
X56372419Y-120767543D02*
X55372419Y-120767543D01*
X55991466Y-120672305D02*
X56372419Y-120386591D01*
X55705752Y-120386591D02*
X56086704Y-120767543D01*
X56372419Y-118672305D02*
X56372419Y-119243733D01*
X56372419Y-118958019D02*
X55372419Y-118958019D01*
X55372419Y-118958019D02*
X55515276Y-119053257D01*
X55515276Y-119053257D02*
X55610514Y-119148495D01*
X55610514Y-119148495D02*
X55658133Y-119243733D01*
X55372419Y-117815162D02*
X55372419Y-118005638D01*
X55372419Y-118005638D02*
X55420038Y-118100876D01*
X55420038Y-118100876D02*
X55467657Y-118148495D01*
X55467657Y-118148495D02*
X55610514Y-118243733D01*
X55610514Y-118243733D02*
X55800990Y-118291352D01*
X55800990Y-118291352D02*
X56181942Y-118291352D01*
X56181942Y-118291352D02*
X56277180Y-118243733D01*
X56277180Y-118243733D02*
X56324800Y-118196114D01*
X56324800Y-118196114D02*
X56372419Y-118100876D01*
X56372419Y-118100876D02*
X56372419Y-117910400D01*
X56372419Y-117910400D02*
X56324800Y-117815162D01*
X56324800Y-117815162D02*
X56277180Y-117767543D01*
X56277180Y-117767543D02*
X56181942Y-117719924D01*
X56181942Y-117719924D02*
X55943847Y-117719924D01*
X55943847Y-117719924D02*
X55848609Y-117767543D01*
X55848609Y-117767543D02*
X55800990Y-117815162D01*
X55800990Y-117815162D02*
X55753371Y-117910400D01*
X55753371Y-117910400D02*
X55753371Y-118100876D01*
X55753371Y-118100876D02*
X55800990Y-118196114D01*
X55800990Y-118196114D02*
X55848609Y-118243733D01*
X55848609Y-118243733D02*
X55943847Y-118291352D01*
X55991466Y-117291352D02*
X55991466Y-116529448D01*
X55800990Y-115910400D02*
X55753371Y-116005638D01*
X55753371Y-116005638D02*
X55705752Y-116053257D01*
X55705752Y-116053257D02*
X55610514Y-116100876D01*
X55610514Y-116100876D02*
X55562895Y-116100876D01*
X55562895Y-116100876D02*
X55467657Y-116053257D01*
X55467657Y-116053257D02*
X55420038Y-116005638D01*
X55420038Y-116005638D02*
X55372419Y-115910400D01*
X55372419Y-115910400D02*
X55372419Y-115719924D01*
X55372419Y-115719924D02*
X55420038Y-115624686D01*
X55420038Y-115624686D02*
X55467657Y-115577067D01*
X55467657Y-115577067D02*
X55562895Y-115529448D01*
X55562895Y-115529448D02*
X55610514Y-115529448D01*
X55610514Y-115529448D02*
X55705752Y-115577067D01*
X55705752Y-115577067D02*
X55753371Y-115624686D01*
X55753371Y-115624686D02*
X55800990Y-115719924D01*
X55800990Y-115719924D02*
X55800990Y-115910400D01*
X55800990Y-115910400D02*
X55848609Y-116005638D01*
X55848609Y-116005638D02*
X55896228Y-116053257D01*
X55896228Y-116053257D02*
X55991466Y-116100876D01*
X55991466Y-116100876D02*
X56181942Y-116100876D01*
X56181942Y-116100876D02*
X56277180Y-116053257D01*
X56277180Y-116053257D02*
X56324800Y-116005638D01*
X56324800Y-116005638D02*
X56372419Y-115910400D01*
X56372419Y-115910400D02*
X56372419Y-115719924D01*
X56372419Y-115719924D02*
X56324800Y-115624686D01*
X56324800Y-115624686D02*
X56277180Y-115577067D01*
X56277180Y-115577067D02*
X56181942Y-115529448D01*
X56181942Y-115529448D02*
X55991466Y-115529448D01*
X55991466Y-115529448D02*
X55896228Y-115577067D01*
X55896228Y-115577067D02*
X55848609Y-115624686D01*
X55848609Y-115624686D02*
X55800990Y-115719924D01*
X55372419Y-114910400D02*
X55372419Y-114815162D01*
X55372419Y-114815162D02*
X55420038Y-114719924D01*
X55420038Y-114719924D02*
X55467657Y-114672305D01*
X55467657Y-114672305D02*
X55562895Y-114624686D01*
X55562895Y-114624686D02*
X55753371Y-114577067D01*
X55753371Y-114577067D02*
X55991466Y-114577067D01*
X55991466Y-114577067D02*
X56181942Y-114624686D01*
X56181942Y-114624686D02*
X56277180Y-114672305D01*
X56277180Y-114672305D02*
X56324800Y-114719924D01*
X56324800Y-114719924D02*
X56372419Y-114815162D01*
X56372419Y-114815162D02*
X56372419Y-114910400D01*
X56372419Y-114910400D02*
X56324800Y-115005638D01*
X56324800Y-115005638D02*
X56277180Y-115053257D01*
X56277180Y-115053257D02*
X56181942Y-115100876D01*
X56181942Y-115100876D02*
X55991466Y-115148495D01*
X55991466Y-115148495D02*
X55753371Y-115148495D01*
X55753371Y-115148495D02*
X55562895Y-115100876D01*
X55562895Y-115100876D02*
X55467657Y-115053257D01*
X55467657Y-115053257D02*
X55420038Y-115005638D01*
X55420038Y-115005638D02*
X55372419Y-114910400D01*
X55372419Y-114291352D02*
X56372419Y-113958019D01*
X56372419Y-113958019D02*
X55372419Y-113624686D01*
X55705752Y-112672304D02*
X55705752Y-112291352D01*
X55372419Y-112529447D02*
X56229561Y-112529447D01*
X56229561Y-112529447D02*
X56324800Y-112481828D01*
X56324800Y-112481828D02*
X56372419Y-112386590D01*
X56372419Y-112386590D02*
X56372419Y-112291352D01*
X56372419Y-111815161D02*
X56324800Y-111910399D01*
X56324800Y-111910399D02*
X56277180Y-111958018D01*
X56277180Y-111958018D02*
X56181942Y-112005637D01*
X56181942Y-112005637D02*
X55896228Y-112005637D01*
X55896228Y-112005637D02*
X55800990Y-111958018D01*
X55800990Y-111958018D02*
X55753371Y-111910399D01*
X55753371Y-111910399D02*
X55705752Y-111815161D01*
X55705752Y-111815161D02*
X55705752Y-111672304D01*
X55705752Y-111672304D02*
X55753371Y-111577066D01*
X55753371Y-111577066D02*
X55800990Y-111529447D01*
X55800990Y-111529447D02*
X55896228Y-111481828D01*
X55896228Y-111481828D02*
X56181942Y-111481828D01*
X56181942Y-111481828D02*
X56277180Y-111529447D01*
X56277180Y-111529447D02*
X56324800Y-111577066D01*
X56324800Y-111577066D02*
X56372419Y-111672304D01*
X56372419Y-111672304D02*
X56372419Y-111815161D01*
X55372419Y-109815161D02*
X55372419Y-110291351D01*
X55372419Y-110291351D02*
X55848609Y-110338970D01*
X55848609Y-110338970D02*
X55800990Y-110291351D01*
X55800990Y-110291351D02*
X55753371Y-110196113D01*
X55753371Y-110196113D02*
X55753371Y-109958018D01*
X55753371Y-109958018D02*
X55800990Y-109862780D01*
X55800990Y-109862780D02*
X55848609Y-109815161D01*
X55848609Y-109815161D02*
X55943847Y-109767542D01*
X55943847Y-109767542D02*
X56181942Y-109767542D01*
X56181942Y-109767542D02*
X56277180Y-109815161D01*
X56277180Y-109815161D02*
X56324800Y-109862780D01*
X56324800Y-109862780D02*
X56372419Y-109958018D01*
X56372419Y-109958018D02*
X56372419Y-110196113D01*
X56372419Y-110196113D02*
X56324800Y-110291351D01*
X56324800Y-110291351D02*
X56277180Y-110338970D01*
X55372419Y-109481827D02*
X56372419Y-109148494D01*
X56372419Y-109148494D02*
X55372419Y-108815161D01*
X55372419Y-107815160D02*
X55372419Y-107196113D01*
X55372419Y-107196113D02*
X55753371Y-107529446D01*
X55753371Y-107529446D02*
X55753371Y-107386589D01*
X55753371Y-107386589D02*
X55800990Y-107291351D01*
X55800990Y-107291351D02*
X55848609Y-107243732D01*
X55848609Y-107243732D02*
X55943847Y-107196113D01*
X55943847Y-107196113D02*
X56181942Y-107196113D01*
X56181942Y-107196113D02*
X56277180Y-107243732D01*
X56277180Y-107243732D02*
X56324800Y-107291351D01*
X56324800Y-107291351D02*
X56372419Y-107386589D01*
X56372419Y-107386589D02*
X56372419Y-107672303D01*
X56372419Y-107672303D02*
X56324800Y-107767541D01*
X56324800Y-107767541D02*
X56277180Y-107815160D01*
X56086704Y-106815160D02*
X56086704Y-106338970D01*
X56372419Y-106910398D02*
X55372419Y-106577065D01*
X55372419Y-106577065D02*
X56372419Y-106243732D01*
X108190476Y-78457419D02*
X108190476Y-79171704D01*
X108190476Y-79171704D02*
X108142857Y-79314561D01*
X108142857Y-79314561D02*
X108047619Y-79409800D01*
X108047619Y-79409800D02*
X107904762Y-79457419D01*
X107904762Y-79457419D02*
X107809524Y-79457419D01*
X108619048Y-78552657D02*
X108666667Y-78505038D01*
X108666667Y-78505038D02*
X108761905Y-78457419D01*
X108761905Y-78457419D02*
X109000000Y-78457419D01*
X109000000Y-78457419D02*
X109095238Y-78505038D01*
X109095238Y-78505038D02*
X109142857Y-78552657D01*
X109142857Y-78552657D02*
X109190476Y-78647895D01*
X109190476Y-78647895D02*
X109190476Y-78743133D01*
X109190476Y-78743133D02*
X109142857Y-78885990D01*
X109142857Y-78885990D02*
X108571429Y-79457419D01*
X108571429Y-79457419D02*
X109190476Y-79457419D01*
X110047619Y-78457419D02*
X109857143Y-78457419D01*
X109857143Y-78457419D02*
X109761905Y-78505038D01*
X109761905Y-78505038D02*
X109714286Y-78552657D01*
X109714286Y-78552657D02*
X109619048Y-78695514D01*
X109619048Y-78695514D02*
X109571429Y-78885990D01*
X109571429Y-78885990D02*
X109571429Y-79266942D01*
X109571429Y-79266942D02*
X109619048Y-79362180D01*
X109619048Y-79362180D02*
X109666667Y-79409800D01*
X109666667Y-79409800D02*
X109761905Y-79457419D01*
X109761905Y-79457419D02*
X109952381Y-79457419D01*
X109952381Y-79457419D02*
X110047619Y-79409800D01*
X110047619Y-79409800D02*
X110095238Y-79362180D01*
X110095238Y-79362180D02*
X110142857Y-79266942D01*
X110142857Y-79266942D02*
X110142857Y-79028847D01*
X110142857Y-79028847D02*
X110095238Y-78933609D01*
X110095238Y-78933609D02*
X110047619Y-78885990D01*
X110047619Y-78885990D02*
X109952381Y-78838371D01*
X109952381Y-78838371D02*
X109761905Y-78838371D01*
X109761905Y-78838371D02*
X109666667Y-78885990D01*
X109666667Y-78885990D02*
X109619048Y-78933609D01*
X109619048Y-78933609D02*
X109571429Y-79028847D01*
X71457419Y-121309523D02*
X72171704Y-121309523D01*
X72171704Y-121309523D02*
X72314561Y-121357142D01*
X72314561Y-121357142D02*
X72409800Y-121452380D01*
X72409800Y-121452380D02*
X72457419Y-121595237D01*
X72457419Y-121595237D02*
X72457419Y-121690475D01*
X71552657Y-120880951D02*
X71505038Y-120833332D01*
X71505038Y-120833332D02*
X71457419Y-120738094D01*
X71457419Y-120738094D02*
X71457419Y-120499999D01*
X71457419Y-120499999D02*
X71505038Y-120404761D01*
X71505038Y-120404761D02*
X71552657Y-120357142D01*
X71552657Y-120357142D02*
X71647895Y-120309523D01*
X71647895Y-120309523D02*
X71743133Y-120309523D01*
X71743133Y-120309523D02*
X71885990Y-120357142D01*
X71885990Y-120357142D02*
X72457419Y-120928570D01*
X72457419Y-120928570D02*
X72457419Y-120309523D01*
X72457419Y-119357142D02*
X72457419Y-119928570D01*
X72457419Y-119642856D02*
X71457419Y-119642856D01*
X71457419Y-119642856D02*
X71600276Y-119738094D01*
X71600276Y-119738094D02*
X71695514Y-119833332D01*
X71695514Y-119833332D02*
X71743133Y-119928570D01*
X79957419Y-174083333D02*
X80671704Y-174083333D01*
X80671704Y-174083333D02*
X80814561Y-174130952D01*
X80814561Y-174130952D02*
X80909800Y-174226190D01*
X80909800Y-174226190D02*
X80957419Y-174369047D01*
X80957419Y-174369047D02*
X80957419Y-174464285D01*
X80290752Y-173178571D02*
X80957419Y-173178571D01*
X79909800Y-173416666D02*
X80624085Y-173654761D01*
X80624085Y-173654761D02*
X80624085Y-173035714D01*
D12*
X99304761Y-150750057D02*
X99209523Y-150702438D01*
X99209523Y-150702438D02*
X99114285Y-150607200D01*
X99114285Y-150607200D02*
X98971428Y-150464342D01*
X98971428Y-150464342D02*
X98876190Y-150416723D01*
X98876190Y-150416723D02*
X98780952Y-150416723D01*
X98828571Y-150654819D02*
X98733333Y-150607200D01*
X98733333Y-150607200D02*
X98638095Y-150511961D01*
X98638095Y-150511961D02*
X98590476Y-150321485D01*
X98590476Y-150321485D02*
X98590476Y-149988152D01*
X98590476Y-149988152D02*
X98638095Y-149797676D01*
X98638095Y-149797676D02*
X98733333Y-149702438D01*
X98733333Y-149702438D02*
X98828571Y-149654819D01*
X98828571Y-149654819D02*
X99019047Y-149654819D01*
X99019047Y-149654819D02*
X99114285Y-149702438D01*
X99114285Y-149702438D02*
X99209523Y-149797676D01*
X99209523Y-149797676D02*
X99257142Y-149988152D01*
X99257142Y-149988152D02*
X99257142Y-150321485D01*
X99257142Y-150321485D02*
X99209523Y-150511961D01*
X99209523Y-150511961D02*
X99114285Y-150607200D01*
X99114285Y-150607200D02*
X99019047Y-150654819D01*
X99019047Y-150654819D02*
X98828571Y-150654819D01*
X100209523Y-150654819D02*
X99638095Y-150654819D01*
X99923809Y-150654819D02*
X99923809Y-149654819D01*
X99923809Y-149654819D02*
X99828571Y-149797676D01*
X99828571Y-149797676D02*
X99733333Y-149892914D01*
X99733333Y-149892914D02*
X99638095Y-149940533D01*
D11*
%TO.C,J12*%
X59250000Y-127500000D02*
X59500000Y-127500000D01*
X59250000Y-134500000D02*
X59250000Y-127500000D01*
X59500000Y-134500000D02*
X59250000Y-134500000D01*
X71750000Y-127500000D02*
X71500000Y-127500000D01*
X71750000Y-134500000D02*
X71500000Y-134500000D01*
X71750000Y-134500000D02*
X71750000Y-127500000D01*
X59500000Y-127500000D02*
X71500000Y-127500000D01*
X71500000Y-134500000D01*
X59500000Y-134500000D01*
X59500000Y-127500000D01*
X59750000Y-127375000D02*
X71250000Y-127375000D01*
X71250000Y-138625000D01*
X59750000Y-138625000D01*
X59750000Y-127375000D01*
X61000000Y-136500000D02*
X63000000Y-136500000D01*
X63000000Y-138600000D01*
X61000000Y-138600000D01*
X61000000Y-136500000D01*
X61800000Y-138200000D02*
X62200000Y-138200000D01*
X62200000Y-138600000D01*
X61800000Y-138600000D01*
X61800000Y-138200000D01*
X64500000Y-136500000D02*
X66500000Y-136500000D01*
X66500000Y-138600000D01*
X64500000Y-138600000D01*
X64500000Y-136500000D01*
X65300000Y-138200000D02*
X65700000Y-138200000D01*
X65700000Y-138600000D01*
X65300000Y-138600000D01*
X65300000Y-138200000D01*
X68000000Y-136450000D02*
X70000000Y-136450000D01*
X70000000Y-138550000D01*
X68000000Y-138550000D01*
X68000000Y-136450000D01*
X68800000Y-138150000D02*
X69200000Y-138150000D01*
X69200000Y-138550000D01*
X68800000Y-138550000D01*
X68800000Y-138150000D01*
%TO.C,J16*%
X86750000Y-80000000D02*
X87000000Y-80000000D01*
X86750000Y-87000000D02*
X86750000Y-80000000D01*
X87000000Y-87000000D02*
X86750000Y-87000000D01*
X106250000Y-80000000D02*
X106000000Y-80000000D01*
X106250000Y-87000000D02*
X106000000Y-87000000D01*
X106250000Y-87000000D02*
X106250000Y-80000000D01*
X87000000Y-80000000D02*
X106000000Y-80000000D01*
X106000000Y-87000000D01*
X87000000Y-87000000D01*
X87000000Y-80000000D01*
X87250000Y-79875000D02*
X105750000Y-79875000D01*
X105750000Y-91125000D01*
X87250000Y-91125000D01*
X87250000Y-79875000D01*
X88500000Y-89000000D02*
X90500000Y-89000000D01*
X90500000Y-91100000D01*
X88500000Y-91100000D01*
X88500000Y-89000000D01*
X89300000Y-90700000D02*
X89700000Y-90700000D01*
X89700000Y-91100000D01*
X89300000Y-91100000D01*
X89300000Y-90700000D01*
X92000000Y-89000000D02*
X94000000Y-89000000D01*
X94000000Y-91100000D01*
X92000000Y-91100000D01*
X92000000Y-89000000D01*
X92800000Y-90700000D02*
X93200000Y-90700000D01*
X93200000Y-91100000D01*
X92800000Y-91100000D01*
X92800000Y-90700000D01*
X95500000Y-88950000D02*
X97500000Y-88950000D01*
X97500000Y-91050000D01*
X95500000Y-91050000D01*
X95500000Y-88950000D01*
X96300000Y-90650000D02*
X96700000Y-90650000D01*
X96700000Y-91050000D01*
X96300000Y-91050000D01*
X96300000Y-90650000D01*
X99000000Y-88950000D02*
X101000000Y-88950000D01*
X101000000Y-91050000D01*
X99000000Y-91050000D01*
X99000000Y-88950000D01*
X99800000Y-90650000D02*
X100200000Y-90650000D01*
X100200000Y-91050000D01*
X99800000Y-91050000D01*
X99800000Y-90650000D01*
X102500000Y-88950000D02*
X104500000Y-88950000D01*
X104500000Y-91050000D01*
X102500000Y-91050000D01*
X102500000Y-88950000D01*
X103300000Y-90650000D02*
X103700000Y-90650000D01*
X103700000Y-91050000D01*
X103300000Y-91050000D01*
X103300000Y-90650000D01*
%TO.C,J11*%
X52250000Y-143500000D02*
X52500000Y-143500000D01*
X52250000Y-150500000D02*
X52250000Y-143500000D01*
X52500000Y-150500000D02*
X52250000Y-150500000D01*
X64750000Y-143500000D02*
X64500000Y-143500000D01*
X64750000Y-150500000D02*
X64500000Y-150500000D01*
X64750000Y-150500000D02*
X64750000Y-143500000D01*
X52500000Y-143500000D02*
X64500000Y-143500000D01*
X64500000Y-150500000D01*
X52500000Y-150500000D01*
X52500000Y-143500000D01*
X52750000Y-143375000D02*
X64250000Y-143375000D01*
X64250000Y-154625000D01*
X52750000Y-154625000D01*
X52750000Y-143375000D01*
X54000000Y-152500000D02*
X56000000Y-152500000D01*
X56000000Y-154600000D01*
X54000000Y-154600000D01*
X54000000Y-152500000D01*
X54800000Y-154200000D02*
X55200000Y-154200000D01*
X55200000Y-154600000D01*
X54800000Y-154600000D01*
X54800000Y-154200000D01*
X57500000Y-152500000D02*
X59500000Y-152500000D01*
X59500000Y-154600000D01*
X57500000Y-154600000D01*
X57500000Y-152500000D01*
X58300000Y-154200000D02*
X58700000Y-154200000D01*
X58700000Y-154600000D01*
X58300000Y-154600000D01*
X58300000Y-154200000D01*
X61000000Y-152450000D02*
X63000000Y-152450000D01*
X63000000Y-154550000D01*
X61000000Y-154550000D01*
X61000000Y-152450000D01*
X61800000Y-154150000D02*
X62200000Y-154150000D01*
X62200000Y-154550000D01*
X61800000Y-154550000D01*
X61800000Y-154150000D01*
D15*
%TO.C,D5*%
X77500000Y-101750000D02*
X77500000Y-107250000D01*
X77500000Y-101750000D02*
X84500000Y-101750000D01*
X77500000Y-107250000D02*
X84050000Y-107250000D01*
X78300000Y-105400000D02*
X78300000Y-103600000D01*
X83700000Y-105400000D02*
X83700000Y-103600000D01*
X84050000Y-107250000D02*
X84500000Y-106800000D01*
X84500000Y-106800000D02*
X84500000Y-101750000D01*
D11*
%TO.C,J2*%
X53750000Y-166487500D02*
X53750000Y-166737500D01*
X53750000Y-182512500D02*
X53750000Y-182262500D01*
X60750000Y-166487500D02*
X53750000Y-166487500D01*
X60750000Y-166487500D02*
X60750000Y-166737500D01*
X60750000Y-182262500D02*
X60750000Y-182512500D01*
X60750000Y-182512500D02*
X53750000Y-182512500D01*
X53625000Y-181987500D02*
X64875000Y-181987500D01*
X64875000Y-166987500D01*
X53625000Y-166987500D01*
X53625000Y-181987500D01*
X53750000Y-182237500D02*
X60750000Y-182237500D01*
X60750000Y-166737500D01*
X53750000Y-166737500D01*
X53750000Y-182237500D01*
X62700000Y-170262500D02*
X64800000Y-170262500D01*
X64800000Y-168262500D01*
X62700000Y-168262500D01*
X62700000Y-170262500D01*
X62700000Y-173762500D02*
X64800000Y-173762500D01*
X64800000Y-171762500D01*
X62700000Y-171762500D01*
X62700000Y-173762500D01*
X62750000Y-177262500D02*
X64850000Y-177262500D01*
X64850000Y-175262500D01*
X62750000Y-175262500D01*
X62750000Y-177262500D01*
X62750000Y-180762500D02*
X64850000Y-180762500D01*
X64850000Y-178762500D01*
X62750000Y-178762500D01*
X62750000Y-180762500D01*
X64400000Y-169462500D02*
X64800000Y-169462500D01*
X64800000Y-169062500D01*
X64400000Y-169062500D01*
X64400000Y-169462500D01*
X64400000Y-172962500D02*
X64800000Y-172962500D01*
X64800000Y-172562500D01*
X64400000Y-172562500D01*
X64400000Y-172962500D01*
X64450000Y-176462500D02*
X64850000Y-176462500D01*
X64850000Y-176062500D01*
X64450000Y-176062500D01*
X64450000Y-176462500D01*
X64450000Y-179962500D02*
X64850000Y-179962500D01*
X64850000Y-179562500D01*
X64450000Y-179562500D01*
X64450000Y-179962500D01*
D15*
%TO.C,D10*%
X27850000Y-151800000D02*
X27850000Y-144800000D01*
X27850000Y-151800000D02*
X33350000Y-151800000D01*
X31500000Y-145600000D02*
X29700000Y-145600000D01*
X31500000Y-151000000D02*
X29700000Y-151000000D01*
X32900000Y-144800000D02*
X27850000Y-144800000D01*
X33350000Y-145250000D02*
X32900000Y-144800000D01*
X33350000Y-151800000D02*
X33350000Y-145250000D01*
D11*
%TO.C,J3*%
X115250000Y-159500000D02*
X122250000Y-159500000D01*
X115250000Y-159750000D02*
X115250000Y-159500000D01*
X115250000Y-182500000D02*
X115250000Y-182250000D01*
X115250000Y-182500000D02*
X122250000Y-182500000D01*
X122250000Y-159500000D02*
X122250000Y-159750000D01*
X122250000Y-182500000D02*
X122250000Y-182250000D01*
X111550000Y-162050000D02*
X111150000Y-162050000D01*
X111150000Y-162450000D01*
X111550000Y-162450000D01*
X111550000Y-162050000D01*
X111550000Y-165550000D02*
X111150000Y-165550000D01*
X111150000Y-165950000D01*
X111550000Y-165950000D01*
X111550000Y-165550000D01*
X111600000Y-169050000D02*
X111200000Y-169050000D01*
X111200000Y-169450000D01*
X111600000Y-169450000D01*
X111600000Y-169050000D01*
X111600000Y-172550000D02*
X111200000Y-172550000D01*
X111200000Y-172950000D01*
X111600000Y-172950000D01*
X111600000Y-172550000D01*
X111600000Y-176050000D02*
X111200000Y-176050000D01*
X111200000Y-176450000D01*
X111600000Y-176450000D01*
X111600000Y-176050000D01*
X111600000Y-179550000D02*
X111200000Y-179550000D01*
X111200000Y-179950000D01*
X111600000Y-179950000D01*
X111600000Y-179550000D01*
X113250000Y-161250000D02*
X111150000Y-161250000D01*
X111150000Y-163250000D01*
X113250000Y-163250000D01*
X113250000Y-161250000D01*
X113250000Y-164750000D02*
X111150000Y-164750000D01*
X111150000Y-166750000D01*
X113250000Y-166750000D01*
X113250000Y-164750000D01*
X113300000Y-168250000D02*
X111200000Y-168250000D01*
X111200000Y-170250000D01*
X113300000Y-170250000D01*
X113300000Y-168250000D01*
X113300000Y-171750000D02*
X111200000Y-171750000D01*
X111200000Y-173750000D01*
X113300000Y-173750000D01*
X113300000Y-171750000D01*
X113300000Y-175250000D02*
X111200000Y-175250000D01*
X111200000Y-177250000D01*
X113300000Y-177250000D01*
X113300000Y-175250000D01*
X113300000Y-178750000D02*
X111200000Y-178750000D01*
X111200000Y-180750000D01*
X113300000Y-180750000D01*
X113300000Y-178750000D01*
X122250000Y-159750000D02*
X115250000Y-159750000D01*
X115250000Y-182250000D01*
X122250000Y-182250000D01*
X122250000Y-159750000D01*
X122375000Y-160000000D02*
X111125000Y-160000000D01*
X111125000Y-182000000D01*
X122375000Y-182000000D01*
X122375000Y-160000000D01*
D15*
%TO.C,Q10*%
X75800000Y-135360000D02*
X75800000Y-136725000D01*
X75800000Y-136725000D02*
X77610000Y-136725000D01*
X86200000Y-135360000D02*
X86200000Y-136725000D01*
X86200000Y-136725000D02*
X84390000Y-136725000D01*
X77650000Y-139550000D02*
X77180000Y-139890000D01*
X77180000Y-139210000D01*
X77650000Y-139550000D01*
G36*
X77650000Y-139550000D02*
G01*
X77180000Y-139890000D01*
X77180000Y-139210000D01*
X77650000Y-139550000D01*
G37*
D11*
%TO.C,J25*%
X106000000Y-67000000D02*
X106250000Y-67000000D01*
X106000000Y-74000000D02*
X106000000Y-67000000D01*
X106250000Y-74000000D02*
X106000000Y-74000000D01*
X122025000Y-67000000D02*
X121775000Y-67000000D01*
X122025000Y-74000000D02*
X121775000Y-74000000D01*
X122025000Y-74000000D02*
X122025000Y-67000000D01*
X106275000Y-67000000D02*
X121775000Y-67000000D01*
X121775000Y-74000000D01*
X106275000Y-74000000D01*
X106275000Y-67000000D01*
X106525000Y-66875000D02*
X121525000Y-66875000D01*
X121525000Y-78125000D01*
X106525000Y-78125000D01*
X106525000Y-66875000D01*
X107750000Y-76000000D02*
X109750000Y-76000000D01*
X109750000Y-78100000D01*
X107750000Y-78100000D01*
X107750000Y-76000000D01*
X108550000Y-77700000D02*
X108950000Y-77700000D01*
X108950000Y-78100000D01*
X108550000Y-78100000D01*
X108550000Y-77700000D01*
X111250000Y-76000000D02*
X113250000Y-76000000D01*
X113250000Y-78100000D01*
X111250000Y-78100000D01*
X111250000Y-76000000D01*
X112050000Y-77700000D02*
X112450000Y-77700000D01*
X112450000Y-78100000D01*
X112050000Y-78100000D01*
X112050000Y-77700000D01*
X114750000Y-75950000D02*
X116750000Y-75950000D01*
X116750000Y-78050000D01*
X114750000Y-78050000D01*
X114750000Y-75950000D01*
X115550000Y-77650000D02*
X115950000Y-77650000D01*
X115950000Y-78050000D01*
X115550000Y-78050000D01*
X115550000Y-77650000D01*
X118250000Y-75950000D02*
X120250000Y-75950000D01*
X120250000Y-78050000D01*
X118250000Y-78050000D01*
X118250000Y-75950000D01*
X119050000Y-77650000D02*
X119450000Y-77650000D01*
X119450000Y-78050000D01*
X119050000Y-78050000D01*
X119050000Y-77650000D01*
%TO.C,J22*%
X59500000Y-97750000D02*
X59500000Y-98000000D01*
X59500000Y-110250000D02*
X59500000Y-110000000D01*
X66500000Y-97750000D02*
X59500000Y-97750000D01*
X66500000Y-97750000D02*
X66500000Y-98000000D01*
X66500000Y-110000000D02*
X66500000Y-110250000D01*
X66500000Y-110250000D02*
X59500000Y-110250000D01*
X59375000Y-109750000D02*
X70625000Y-109750000D01*
X70625000Y-98250000D01*
X59375000Y-98250000D01*
X59375000Y-109750000D01*
X59500000Y-110000000D02*
X66500000Y-110000000D01*
X66500000Y-98000000D01*
X59500000Y-98000000D01*
X59500000Y-110000000D01*
X68450000Y-101500000D02*
X70550000Y-101500000D01*
X70550000Y-99500000D01*
X68450000Y-99500000D01*
X68450000Y-101500000D01*
X68500000Y-105000000D02*
X70600000Y-105000000D01*
X70600000Y-103000000D01*
X68500000Y-103000000D01*
X68500000Y-105000000D01*
X68500000Y-108500000D02*
X70600000Y-108500000D01*
X70600000Y-106500000D01*
X68500000Y-106500000D01*
X68500000Y-108500000D01*
X70150000Y-100700000D02*
X70550000Y-100700000D01*
X70550000Y-100300000D01*
X70150000Y-100300000D01*
X70150000Y-100700000D01*
X70200000Y-104200000D02*
X70600000Y-104200000D01*
X70600000Y-103800000D01*
X70200000Y-103800000D01*
X70200000Y-104200000D01*
X70200000Y-107700000D02*
X70600000Y-107700000D01*
X70600000Y-107300000D01*
X70200000Y-107300000D01*
X70200000Y-107700000D01*
%TO.C,J24*%
X106487500Y-54000000D02*
X106737500Y-54000000D01*
X106487500Y-61000000D02*
X106487500Y-54000000D01*
X106737500Y-61000000D02*
X106487500Y-61000000D01*
X122512500Y-54000000D02*
X122262500Y-54000000D01*
X122512500Y-61000000D02*
X122262500Y-61000000D01*
X122512500Y-61000000D02*
X122512500Y-54000000D01*
X106762500Y-54000000D02*
X122262500Y-54000000D01*
X122262500Y-61000000D01*
X106762500Y-61000000D01*
X106762500Y-54000000D01*
X107012500Y-53875000D02*
X122012500Y-53875000D01*
X122012500Y-65125000D01*
X107012500Y-65125000D01*
X107012500Y-53875000D01*
X108237500Y-63000000D02*
X110237500Y-63000000D01*
X110237500Y-65100000D01*
X108237500Y-65100000D01*
X108237500Y-63000000D01*
X109037500Y-64700000D02*
X109437500Y-64700000D01*
X109437500Y-65100000D01*
X109037500Y-65100000D01*
X109037500Y-64700000D01*
X111737500Y-63000000D02*
X113737500Y-63000000D01*
X113737500Y-65100000D01*
X111737500Y-65100000D01*
X111737500Y-63000000D01*
X112537500Y-64700000D02*
X112937500Y-64700000D01*
X112937500Y-65100000D01*
X112537500Y-65100000D01*
X112537500Y-64700000D01*
X115237500Y-62950000D02*
X117237500Y-62950000D01*
X117237500Y-65050000D01*
X115237500Y-65050000D01*
X115237500Y-62950000D01*
X116037500Y-64650000D02*
X116437500Y-64650000D01*
X116437500Y-65050000D01*
X116037500Y-65050000D01*
X116037500Y-64650000D01*
X118737500Y-62950000D02*
X120737500Y-62950000D01*
X120737500Y-65050000D01*
X118737500Y-65050000D01*
X118737500Y-62950000D01*
X119537500Y-64650000D02*
X119937500Y-64650000D01*
X119937500Y-65050000D01*
X119537500Y-65050000D01*
X119537500Y-64650000D01*
%TO.C,J10*%
X54000000Y-156500000D02*
X54000000Y-156750000D01*
X54000000Y-165500000D02*
X54000000Y-165250000D01*
X61000000Y-156500000D02*
X54000000Y-156500000D01*
X61000000Y-156500000D02*
X61000000Y-156750000D01*
X61000000Y-165250000D02*
X61000000Y-165500000D01*
X61000000Y-165500000D02*
X54000000Y-165500000D01*
X53875000Y-165000000D02*
X65125000Y-165000000D01*
X65125000Y-157000000D01*
X53875000Y-157000000D01*
X53875000Y-165000000D01*
X54000000Y-165250000D02*
X61000000Y-165250000D01*
X61000000Y-156750000D01*
X54000000Y-156750000D01*
X54000000Y-165250000D01*
X63000000Y-160250000D02*
X65100000Y-160250000D01*
X65100000Y-158250000D01*
X63000000Y-158250000D01*
X63000000Y-160250000D01*
X63000000Y-163750000D02*
X65100000Y-163750000D01*
X65100000Y-161750000D01*
X63000000Y-161750000D01*
X63000000Y-163750000D01*
X64700000Y-159450000D02*
X65100000Y-159450000D01*
X65100000Y-159050000D01*
X64700000Y-159050000D01*
X64700000Y-159450000D01*
X64700000Y-162950000D02*
X65100000Y-162950000D01*
X65100000Y-162550000D01*
X64700000Y-162550000D01*
X64700000Y-162950000D01*
D15*
%TO.C,D6*%
X116600000Y-50000000D02*
X116600000Y-43000000D01*
X116600000Y-50000000D02*
X122100000Y-50000000D01*
X120250000Y-43800000D02*
X118450000Y-43800000D01*
X120250000Y-49200000D02*
X118450000Y-49200000D01*
X121650000Y-43000000D02*
X116600000Y-43000000D01*
X122100000Y-43450000D02*
X121650000Y-43000000D01*
X122100000Y-50000000D02*
X122100000Y-43450000D01*
D11*
%TO.C,J17*%
X91000000Y-124000000D02*
X98000000Y-124000000D01*
X91000000Y-124250000D02*
X91000000Y-124000000D01*
X91000000Y-143500000D02*
X91000000Y-143250000D01*
X91000000Y-143500000D02*
X98000000Y-143500000D01*
X98000000Y-124000000D02*
X98000000Y-124250000D01*
X98000000Y-143500000D02*
X98000000Y-143250000D01*
X87300000Y-126550000D02*
X86900000Y-126550000D01*
X86900000Y-126950000D01*
X87300000Y-126950000D01*
X87300000Y-126550000D01*
X87300000Y-130050000D02*
X86900000Y-130050000D01*
X86900000Y-130450000D01*
X87300000Y-130450000D01*
X87300000Y-130050000D01*
X87350000Y-133550000D02*
X86950000Y-133550000D01*
X86950000Y-133950000D01*
X87350000Y-133950000D01*
X87350000Y-133550000D01*
X87350000Y-137050000D02*
X86950000Y-137050000D01*
X86950000Y-137450000D01*
X87350000Y-137450000D01*
X87350000Y-137050000D01*
X87350000Y-140550000D02*
X86950000Y-140550000D01*
X86950000Y-140950000D01*
X87350000Y-140950000D01*
X87350000Y-140550000D01*
X89000000Y-125750000D02*
X86900000Y-125750000D01*
X86900000Y-127750000D01*
X89000000Y-127750000D01*
X89000000Y-125750000D01*
X89000000Y-129250000D02*
X86900000Y-129250000D01*
X86900000Y-131250000D01*
X89000000Y-131250000D01*
X89000000Y-129250000D01*
X89050000Y-132750000D02*
X86950000Y-132750000D01*
X86950000Y-134750000D01*
X89050000Y-134750000D01*
X89050000Y-132750000D01*
X89050000Y-136250000D02*
X86950000Y-136250000D01*
X86950000Y-138250000D01*
X89050000Y-138250000D01*
X89050000Y-136250000D01*
X89050000Y-139750000D02*
X86950000Y-139750000D01*
X86950000Y-141750000D01*
X89050000Y-141750000D01*
X89050000Y-139750000D01*
X98000000Y-124250000D02*
X91000000Y-124250000D01*
X91000000Y-143250000D01*
X98000000Y-143250000D01*
X98000000Y-124250000D01*
X98125000Y-124500000D02*
X86875000Y-124500000D01*
X86875000Y-143000000D01*
X98125000Y-143000000D01*
X98125000Y-124500000D01*
%TO.C,J23*%
X86750000Y-106000000D02*
X87000000Y-106000000D01*
X86750000Y-113000000D02*
X86750000Y-106000000D01*
X87000000Y-113000000D02*
X86750000Y-113000000D01*
X106250000Y-106000000D02*
X106000000Y-106000000D01*
X106250000Y-113000000D02*
X106000000Y-113000000D01*
X106250000Y-113000000D02*
X106250000Y-106000000D01*
X87000000Y-106000000D02*
X106000000Y-106000000D01*
X106000000Y-113000000D01*
X87000000Y-113000000D01*
X87000000Y-106000000D01*
X87250000Y-105875000D02*
X105750000Y-105875000D01*
X105750000Y-117125000D01*
X87250000Y-117125000D01*
X87250000Y-105875000D01*
X88500000Y-115000000D02*
X90500000Y-115000000D01*
X90500000Y-117100000D01*
X88500000Y-117100000D01*
X88500000Y-115000000D01*
X89300000Y-116700000D02*
X89700000Y-116700000D01*
X89700000Y-117100000D01*
X89300000Y-117100000D01*
X89300000Y-116700000D01*
X92000000Y-115000000D02*
X94000000Y-115000000D01*
X94000000Y-117100000D01*
X92000000Y-117100000D01*
X92000000Y-115000000D01*
X92800000Y-116700000D02*
X93200000Y-116700000D01*
X93200000Y-117100000D01*
X92800000Y-117100000D01*
X92800000Y-116700000D01*
X95500000Y-114950000D02*
X97500000Y-114950000D01*
X97500000Y-117050000D01*
X95500000Y-117050000D01*
X95500000Y-114950000D01*
X96300000Y-116650000D02*
X96700000Y-116650000D01*
X96700000Y-117050000D01*
X96300000Y-117050000D01*
X96300000Y-116650000D01*
X99000000Y-114950000D02*
X101000000Y-114950000D01*
X101000000Y-117050000D01*
X99000000Y-117050000D01*
X99000000Y-114950000D01*
X99800000Y-116650000D02*
X100200000Y-116650000D01*
X100200000Y-117050000D01*
X99800000Y-117050000D01*
X99800000Y-116650000D01*
X102500000Y-114950000D02*
X104500000Y-114950000D01*
X104500000Y-117050000D01*
X102500000Y-117050000D01*
X102500000Y-114950000D01*
X103300000Y-116650000D02*
X103700000Y-116650000D01*
X103700000Y-117050000D01*
X103300000Y-117050000D01*
X103300000Y-116650000D01*
D15*
%TO.C,Q11*%
X99775000Y-134285000D02*
X99775000Y-135650000D01*
X99775000Y-135650000D02*
X101585000Y-135650000D01*
X110175000Y-134285000D02*
X110175000Y-135650000D01*
X110175000Y-135650000D02*
X108365000Y-135650000D01*
X101625000Y-138475000D02*
X101155000Y-138815000D01*
X101155000Y-138135000D01*
X101625000Y-138475000D01*
G36*
X101625000Y-138475000D02*
G01*
X101155000Y-138815000D01*
X101155000Y-138135000D01*
X101625000Y-138475000D01*
G37*
D11*
%TO.C,J7*%
X40750000Y-166475000D02*
X40750000Y-166725000D01*
X40750000Y-182500000D02*
X40750000Y-182250000D01*
X47750000Y-166475000D02*
X40750000Y-166475000D01*
X47750000Y-166475000D02*
X47750000Y-166725000D01*
X47750000Y-182250000D02*
X47750000Y-182500000D01*
X47750000Y-182500000D02*
X40750000Y-182500000D01*
X40625000Y-181975000D02*
X51875000Y-181975000D01*
X51875000Y-166975000D01*
X40625000Y-166975000D01*
X40625000Y-181975000D01*
X40750000Y-182225000D02*
X47750000Y-182225000D01*
X47750000Y-166725000D01*
X40750000Y-166725000D01*
X40750000Y-182225000D01*
X49700000Y-170250000D02*
X51800000Y-170250000D01*
X51800000Y-168250000D01*
X49700000Y-168250000D01*
X49700000Y-170250000D01*
X49700000Y-173750000D02*
X51800000Y-173750000D01*
X51800000Y-171750000D01*
X49700000Y-171750000D01*
X49700000Y-173750000D01*
X49750000Y-177250000D02*
X51850000Y-177250000D01*
X51850000Y-175250000D01*
X49750000Y-175250000D01*
X49750000Y-177250000D01*
X49750000Y-180750000D02*
X51850000Y-180750000D01*
X51850000Y-178750000D01*
X49750000Y-178750000D01*
X49750000Y-180750000D01*
X51400000Y-169450000D02*
X51800000Y-169450000D01*
X51800000Y-169050000D01*
X51400000Y-169050000D01*
X51400000Y-169450000D01*
X51400000Y-172950000D02*
X51800000Y-172950000D01*
X51800000Y-172550000D01*
X51400000Y-172550000D01*
X51400000Y-172950000D01*
X51450000Y-176450000D02*
X51850000Y-176450000D01*
X51850000Y-176050000D01*
X51450000Y-176050000D01*
X51450000Y-176450000D01*
X51450000Y-179950000D02*
X51850000Y-179950000D01*
X51850000Y-179550000D01*
X51450000Y-179550000D01*
X51450000Y-179950000D01*
%TO.C,J9*%
X67000000Y-156250000D02*
X67000000Y-156500000D01*
X67000000Y-165250000D02*
X67000000Y-165000000D01*
X74000000Y-156250000D02*
X67000000Y-156250000D01*
X74000000Y-156250000D02*
X74000000Y-156500000D01*
X74000000Y-165000000D02*
X74000000Y-165250000D01*
X74000000Y-165250000D02*
X67000000Y-165250000D01*
X66875000Y-164750000D02*
X78125000Y-164750000D01*
X78125000Y-156750000D01*
X66875000Y-156750000D01*
X66875000Y-164750000D01*
X67000000Y-165000000D02*
X74000000Y-165000000D01*
X74000000Y-156500000D01*
X67000000Y-156500000D01*
X67000000Y-165000000D01*
X76000000Y-160000000D02*
X78100000Y-160000000D01*
X78100000Y-158000000D01*
X76000000Y-158000000D01*
X76000000Y-160000000D01*
X76000000Y-163500000D02*
X78100000Y-163500000D01*
X78100000Y-161500000D01*
X76000000Y-161500000D01*
X76000000Y-163500000D01*
X77700000Y-159200000D02*
X78100000Y-159200000D01*
X78100000Y-158800000D01*
X77700000Y-158800000D01*
X77700000Y-159200000D01*
X77700000Y-162700000D02*
X78100000Y-162700000D01*
X78100000Y-162300000D01*
X77700000Y-162300000D01*
X77700000Y-162700000D01*
%TO.C,J13*%
X66500000Y-139987500D02*
X66500000Y-140237500D01*
X66500000Y-156012500D02*
X66500000Y-155762500D01*
X73500000Y-139987500D02*
X66500000Y-139987500D01*
X73500000Y-139987500D02*
X73500000Y-140237500D01*
X73500000Y-155762500D02*
X73500000Y-156012500D01*
X73500000Y-156012500D02*
X66500000Y-156012500D01*
X66375000Y-155487500D02*
X77625000Y-155487500D01*
X77625000Y-140487500D01*
X66375000Y-140487500D01*
X66375000Y-155487500D01*
X66500000Y-155737500D02*
X73500000Y-155737500D01*
X73500000Y-140237500D01*
X66500000Y-140237500D01*
X66500000Y-155737500D01*
X75450000Y-143762500D02*
X77550000Y-143762500D01*
X77550000Y-141762500D01*
X75450000Y-141762500D01*
X75450000Y-143762500D01*
X75450000Y-147262500D02*
X77550000Y-147262500D01*
X77550000Y-145262500D01*
X75450000Y-145262500D01*
X75450000Y-147262500D01*
X75500000Y-150762500D02*
X77600000Y-150762500D01*
X77600000Y-148762500D01*
X75500000Y-148762500D01*
X75500000Y-150762500D01*
X75500000Y-154262500D02*
X77600000Y-154262500D01*
X77600000Y-152262500D01*
X75500000Y-152262500D01*
X75500000Y-154262500D01*
X77150000Y-142962500D02*
X77550000Y-142962500D01*
X77550000Y-142562500D01*
X77150000Y-142562500D01*
X77150000Y-142962500D01*
X77150000Y-146462500D02*
X77550000Y-146462500D01*
X77550000Y-146062500D01*
X77150000Y-146062500D01*
X77150000Y-146462500D01*
X77200000Y-149962500D02*
X77600000Y-149962500D01*
X77600000Y-149562500D01*
X77200000Y-149562500D01*
X77200000Y-149962500D01*
X77200000Y-153462500D02*
X77600000Y-153462500D01*
X77600000Y-153062500D01*
X77200000Y-153062500D01*
X77200000Y-153462500D01*
D15*
%TO.C,Q3*%
X40775000Y-154100000D02*
X42585000Y-154100000D01*
X40775000Y-155465000D02*
X40775000Y-154100000D01*
X51175000Y-154100000D02*
X49365000Y-154100000D01*
X51175000Y-155465000D02*
X51175000Y-154100000D01*
X49795000Y-151615000D02*
X49325000Y-151275000D01*
X49795000Y-150935000D01*
X49795000Y-151615000D01*
G36*
X49795000Y-151615000D02*
G01*
X49325000Y-151275000D01*
X49795000Y-150935000D01*
X49795000Y-151615000D01*
G37*
D11*
%TO.C,J5*%
X94500000Y-163000000D02*
X94500000Y-163250000D01*
X94500000Y-172000000D02*
X94500000Y-171750000D01*
X101500000Y-163000000D02*
X94500000Y-163000000D01*
X101500000Y-163000000D02*
X101500000Y-163250000D01*
X101500000Y-171750000D02*
X101500000Y-172000000D01*
X101500000Y-172000000D02*
X94500000Y-172000000D01*
X94375000Y-171500000D02*
X105625000Y-171500000D01*
X105625000Y-163500000D01*
X94375000Y-163500000D01*
X94375000Y-171500000D01*
X94500000Y-171750000D02*
X101500000Y-171750000D01*
X101500000Y-163250000D01*
X94500000Y-163250000D01*
X94500000Y-171750000D01*
X103500000Y-166750000D02*
X105600000Y-166750000D01*
X105600000Y-164750000D01*
X103500000Y-164750000D01*
X103500000Y-166750000D01*
X103500000Y-170250000D02*
X105600000Y-170250000D01*
X105600000Y-168250000D01*
X103500000Y-168250000D01*
X103500000Y-170250000D01*
X105200000Y-165950000D02*
X105600000Y-165950000D01*
X105600000Y-165550000D01*
X105200000Y-165550000D01*
X105200000Y-165950000D01*
X105200000Y-169450000D02*
X105600000Y-169450000D01*
X105600000Y-169050000D01*
X105200000Y-169050000D01*
X105200000Y-169450000D01*
%TO.C,J15*%
X89750000Y-67000000D02*
X90000000Y-67000000D01*
X89750000Y-74000000D02*
X89750000Y-67000000D01*
X90000000Y-74000000D02*
X89750000Y-74000000D01*
X105775000Y-67000000D02*
X105525000Y-67000000D01*
X105775000Y-74000000D02*
X105525000Y-74000000D01*
X105775000Y-74000000D02*
X105775000Y-67000000D01*
X90025000Y-67000000D02*
X105525000Y-67000000D01*
X105525000Y-74000000D01*
X90025000Y-74000000D01*
X90025000Y-67000000D01*
X90275000Y-66875000D02*
X105275000Y-66875000D01*
X105275000Y-78125000D01*
X90275000Y-78125000D01*
X90275000Y-66875000D01*
X91500000Y-76000000D02*
X93500000Y-76000000D01*
X93500000Y-78100000D01*
X91500000Y-78100000D01*
X91500000Y-76000000D01*
X92300000Y-77700000D02*
X92700000Y-77700000D01*
X92700000Y-78100000D01*
X92300000Y-78100000D01*
X92300000Y-77700000D01*
X95000000Y-76000000D02*
X97000000Y-76000000D01*
X97000000Y-78100000D01*
X95000000Y-78100000D01*
X95000000Y-76000000D01*
X95800000Y-77700000D02*
X96200000Y-77700000D01*
X96200000Y-78100000D01*
X95800000Y-78100000D01*
X95800000Y-77700000D01*
X98500000Y-75950000D02*
X100500000Y-75950000D01*
X100500000Y-78050000D01*
X98500000Y-78050000D01*
X98500000Y-75950000D01*
X99300000Y-77650000D02*
X99700000Y-77650000D01*
X99700000Y-78050000D01*
X99300000Y-78050000D01*
X99300000Y-77650000D01*
X102000000Y-75950000D02*
X104000000Y-75950000D01*
X104000000Y-78050000D01*
X102000000Y-78050000D01*
X102000000Y-75950000D01*
X102800000Y-77650000D02*
X103200000Y-77650000D01*
X103200000Y-78050000D01*
X102800000Y-78050000D01*
X102800000Y-77650000D01*
D15*
%TO.C,Q2*%
X80775000Y-151100000D02*
X82585000Y-151100000D01*
X80775000Y-152465000D02*
X80775000Y-151100000D01*
X91175000Y-151100000D02*
X89365000Y-151100000D01*
X91175000Y-152465000D02*
X91175000Y-151100000D01*
X89795000Y-148615000D02*
X89325000Y-148275000D01*
X89795000Y-147935000D01*
X89795000Y-148615000D01*
G36*
X89795000Y-148615000D02*
G01*
X89325000Y-148275000D01*
X89795000Y-147935000D01*
X89795000Y-148615000D01*
G37*
%TO.C,D7*%
X115750000Y-155000000D02*
X115750000Y-148000000D01*
X115750000Y-155000000D02*
X121250000Y-155000000D01*
X119400000Y-148800000D02*
X117600000Y-148800000D01*
X119400000Y-154200000D02*
X117600000Y-154200000D01*
X120800000Y-148000000D02*
X115750000Y-148000000D01*
X121250000Y-148450000D02*
X120800000Y-148000000D01*
X121250000Y-155000000D02*
X121250000Y-148450000D01*
D11*
%TO.C,J27*%
X106250000Y-93000000D02*
X106500000Y-93000000D01*
X106250000Y-100000000D02*
X106250000Y-93000000D01*
X106500000Y-100000000D02*
X106250000Y-100000000D01*
X122275000Y-93000000D02*
X122025000Y-93000000D01*
X122275000Y-100000000D02*
X122025000Y-100000000D01*
X122275000Y-100000000D02*
X122275000Y-93000000D01*
X106525000Y-93000000D02*
X122025000Y-93000000D01*
X122025000Y-100000000D01*
X106525000Y-100000000D01*
X106525000Y-93000000D01*
X106775000Y-92875000D02*
X121775000Y-92875000D01*
X121775000Y-104125000D01*
X106775000Y-104125000D01*
X106775000Y-92875000D01*
X108000000Y-102000000D02*
X110000000Y-102000000D01*
X110000000Y-104100000D01*
X108000000Y-104100000D01*
X108000000Y-102000000D01*
X108800000Y-103700000D02*
X109200000Y-103700000D01*
X109200000Y-104100000D01*
X108800000Y-104100000D01*
X108800000Y-103700000D01*
X111500000Y-102000000D02*
X113500000Y-102000000D01*
X113500000Y-104100000D01*
X111500000Y-104100000D01*
X111500000Y-102000000D01*
X112300000Y-103700000D02*
X112700000Y-103700000D01*
X112700000Y-104100000D01*
X112300000Y-104100000D01*
X112300000Y-103700000D01*
X115000000Y-101950000D02*
X117000000Y-101950000D01*
X117000000Y-104050000D01*
X115000000Y-104050000D01*
X115000000Y-101950000D01*
X115800000Y-103650000D02*
X116200000Y-103650000D01*
X116200000Y-104050000D01*
X115800000Y-104050000D01*
X115800000Y-103650000D01*
X118500000Y-101950000D02*
X120500000Y-101950000D01*
X120500000Y-104050000D01*
X118500000Y-104050000D01*
X118500000Y-101950000D01*
X119300000Y-103650000D02*
X119700000Y-103650000D01*
X119700000Y-104050000D01*
X119300000Y-104050000D01*
X119300000Y-103650000D01*
%TO.C,J18*%
X115250000Y-123000000D02*
X122250000Y-123000000D01*
X115250000Y-123250000D02*
X115250000Y-123000000D01*
X115250000Y-146000000D02*
X115250000Y-145750000D01*
X115250000Y-146000000D02*
X122250000Y-146000000D01*
X122250000Y-123000000D02*
X122250000Y-123250000D01*
X122250000Y-146000000D02*
X122250000Y-145750000D01*
X111550000Y-125550000D02*
X111150000Y-125550000D01*
X111150000Y-125950000D01*
X111550000Y-125950000D01*
X111550000Y-125550000D01*
X111550000Y-129050000D02*
X111150000Y-129050000D01*
X111150000Y-129450000D01*
X111550000Y-129450000D01*
X111550000Y-129050000D01*
X111600000Y-132550000D02*
X111200000Y-132550000D01*
X111200000Y-132950000D01*
X111600000Y-132950000D01*
X111600000Y-132550000D01*
X111600000Y-136050000D02*
X111200000Y-136050000D01*
X111200000Y-136450000D01*
X111600000Y-136450000D01*
X111600000Y-136050000D01*
X111600000Y-139550000D02*
X111200000Y-139550000D01*
X111200000Y-139950000D01*
X111600000Y-139950000D01*
X111600000Y-139550000D01*
X111600000Y-143050000D02*
X111200000Y-143050000D01*
X111200000Y-143450000D01*
X111600000Y-143450000D01*
X111600000Y-143050000D01*
X113250000Y-124750000D02*
X111150000Y-124750000D01*
X111150000Y-126750000D01*
X113250000Y-126750000D01*
X113250000Y-124750000D01*
X113250000Y-128250000D02*
X111150000Y-128250000D01*
X111150000Y-130250000D01*
X113250000Y-130250000D01*
X113250000Y-128250000D01*
X113300000Y-131750000D02*
X111200000Y-131750000D01*
X111200000Y-133750000D01*
X113300000Y-133750000D01*
X113300000Y-131750000D01*
X113300000Y-135250000D02*
X111200000Y-135250000D01*
X111200000Y-137250000D01*
X113300000Y-137250000D01*
X113300000Y-135250000D01*
X113300000Y-138750000D02*
X111200000Y-138750000D01*
X111200000Y-140750000D01*
X113300000Y-140750000D01*
X113300000Y-138750000D01*
X113300000Y-142250000D02*
X111200000Y-142250000D01*
X111200000Y-144250000D01*
X113300000Y-144250000D01*
X113300000Y-142250000D01*
X122250000Y-123250000D02*
X115250000Y-123250000D01*
X115250000Y-145750000D01*
X122250000Y-145750000D01*
X122250000Y-123250000D01*
X122375000Y-123500000D02*
X111125000Y-123500000D01*
X111125000Y-145500000D01*
X122375000Y-145500000D01*
X122375000Y-123500000D01*
%TO.C,J19*%
X86750000Y-93000000D02*
X87000000Y-93000000D01*
X86750000Y-100000000D02*
X86750000Y-93000000D01*
X87000000Y-100000000D02*
X86750000Y-100000000D01*
X106250000Y-93000000D02*
X106000000Y-93000000D01*
X106250000Y-100000000D02*
X106000000Y-100000000D01*
X106250000Y-100000000D02*
X106250000Y-93000000D01*
X87000000Y-93000000D02*
X106000000Y-93000000D01*
X106000000Y-100000000D01*
X87000000Y-100000000D01*
X87000000Y-93000000D01*
X87250000Y-92875000D02*
X105750000Y-92875000D01*
X105750000Y-104125000D01*
X87250000Y-104125000D01*
X87250000Y-92875000D01*
X88500000Y-102000000D02*
X90500000Y-102000000D01*
X90500000Y-104100000D01*
X88500000Y-104100000D01*
X88500000Y-102000000D01*
X89300000Y-103700000D02*
X89700000Y-103700000D01*
X89700000Y-104100000D01*
X89300000Y-104100000D01*
X89300000Y-103700000D01*
X92000000Y-102000000D02*
X94000000Y-102000000D01*
X94000000Y-104100000D01*
X92000000Y-104100000D01*
X92000000Y-102000000D01*
X92800000Y-103700000D02*
X93200000Y-103700000D01*
X93200000Y-104100000D01*
X92800000Y-104100000D01*
X92800000Y-103700000D01*
X95500000Y-101950000D02*
X97500000Y-101950000D01*
X97500000Y-104050000D01*
X95500000Y-104050000D01*
X95500000Y-101950000D01*
X96300000Y-103650000D02*
X96700000Y-103650000D01*
X96700000Y-104050000D01*
X96300000Y-104050000D01*
X96300000Y-103650000D01*
X99000000Y-101950000D02*
X101000000Y-101950000D01*
X101000000Y-104050000D01*
X99000000Y-104050000D01*
X99000000Y-101950000D01*
X99800000Y-103650000D02*
X100200000Y-103650000D01*
X100200000Y-104050000D01*
X99800000Y-104050000D01*
X99800000Y-103650000D01*
X102500000Y-101950000D02*
X104500000Y-101950000D01*
X104500000Y-104050000D01*
X102500000Y-104050000D01*
X102500000Y-101950000D01*
X103300000Y-103650000D02*
X103700000Y-103650000D01*
X103700000Y-104050000D01*
X103300000Y-104050000D01*
X103300000Y-103650000D01*
%TO.C,J8*%
X27750000Y-166475000D02*
X27750000Y-166725000D01*
X27750000Y-182500000D02*
X27750000Y-182250000D01*
X34750000Y-166475000D02*
X27750000Y-166475000D01*
X34750000Y-166475000D02*
X34750000Y-166725000D01*
X34750000Y-182250000D02*
X34750000Y-182500000D01*
X34750000Y-182500000D02*
X27750000Y-182500000D01*
X27625000Y-181975000D02*
X38875000Y-181975000D01*
X38875000Y-166975000D01*
X27625000Y-166975000D01*
X27625000Y-181975000D01*
X27750000Y-182225000D02*
X34750000Y-182225000D01*
X34750000Y-166725000D01*
X27750000Y-166725000D01*
X27750000Y-182225000D01*
X36700000Y-170250000D02*
X38800000Y-170250000D01*
X38800000Y-168250000D01*
X36700000Y-168250000D01*
X36700000Y-170250000D01*
X36700000Y-173750000D02*
X38800000Y-173750000D01*
X38800000Y-171750000D01*
X36700000Y-171750000D01*
X36700000Y-173750000D01*
X36750000Y-177250000D02*
X38850000Y-177250000D01*
X38850000Y-175250000D01*
X36750000Y-175250000D01*
X36750000Y-177250000D01*
X36750000Y-180750000D02*
X38850000Y-180750000D01*
X38850000Y-178750000D01*
X36750000Y-178750000D01*
X36750000Y-180750000D01*
X38400000Y-169450000D02*
X38800000Y-169450000D01*
X38800000Y-169050000D01*
X38400000Y-169050000D01*
X38400000Y-169450000D01*
X38400000Y-172950000D02*
X38800000Y-172950000D01*
X38800000Y-172550000D01*
X38400000Y-172550000D01*
X38400000Y-172950000D01*
X38450000Y-176450000D02*
X38850000Y-176450000D01*
X38850000Y-176050000D01*
X38450000Y-176050000D01*
X38450000Y-176450000D01*
X38450000Y-179950000D02*
X38850000Y-179950000D01*
X38850000Y-179550000D01*
X38450000Y-179550000D01*
X38450000Y-179950000D01*
%TO.C,J1*%
X66750000Y-166475000D02*
X66750000Y-166725000D01*
X66750000Y-182500000D02*
X66750000Y-182250000D01*
X73750000Y-166475000D02*
X66750000Y-166475000D01*
X73750000Y-166475000D02*
X73750000Y-166725000D01*
X73750000Y-182250000D02*
X73750000Y-182500000D01*
X73750000Y-182500000D02*
X66750000Y-182500000D01*
X66625000Y-181975000D02*
X77875000Y-181975000D01*
X77875000Y-166975000D01*
X66625000Y-166975000D01*
X66625000Y-181975000D01*
X66750000Y-182225000D02*
X73750000Y-182225000D01*
X73750000Y-166725000D01*
X66750000Y-166725000D01*
X66750000Y-182225000D01*
X75700000Y-170250000D02*
X77800000Y-170250000D01*
X77800000Y-168250000D01*
X75700000Y-168250000D01*
X75700000Y-170250000D01*
X75700000Y-173750000D02*
X77800000Y-173750000D01*
X77800000Y-171750000D01*
X75700000Y-171750000D01*
X75700000Y-173750000D01*
X75750000Y-177250000D02*
X77850000Y-177250000D01*
X77850000Y-175250000D01*
X75750000Y-175250000D01*
X75750000Y-177250000D01*
X75750000Y-180750000D02*
X77850000Y-180750000D01*
X77850000Y-178750000D01*
X75750000Y-178750000D01*
X75750000Y-180750000D01*
X77400000Y-169450000D02*
X77800000Y-169450000D01*
X77800000Y-169050000D01*
X77400000Y-169050000D01*
X77400000Y-169450000D01*
X77400000Y-172950000D02*
X77800000Y-172950000D01*
X77800000Y-172550000D01*
X77400000Y-172550000D01*
X77400000Y-172950000D01*
X77450000Y-176450000D02*
X77850000Y-176450000D01*
X77850000Y-176050000D01*
X77450000Y-176050000D01*
X77450000Y-176450000D01*
X77450000Y-179950000D02*
X77850000Y-179950000D01*
X77850000Y-179550000D01*
X77450000Y-179550000D01*
X77450000Y-179950000D01*
%TO.C,J28*%
X106250000Y-106000000D02*
X106500000Y-106000000D01*
X106250000Y-113000000D02*
X106250000Y-106000000D01*
X106500000Y-113000000D02*
X106250000Y-113000000D01*
X122275000Y-106000000D02*
X122025000Y-106000000D01*
X122275000Y-113000000D02*
X122025000Y-113000000D01*
X122275000Y-113000000D02*
X122275000Y-106000000D01*
X106525000Y-106000000D02*
X122025000Y-106000000D01*
X122025000Y-113000000D01*
X106525000Y-113000000D01*
X106525000Y-106000000D01*
X106775000Y-105875000D02*
X121775000Y-105875000D01*
X121775000Y-117125000D01*
X106775000Y-117125000D01*
X106775000Y-105875000D01*
X108000000Y-115000000D02*
X110000000Y-115000000D01*
X110000000Y-117100000D01*
X108000000Y-117100000D01*
X108000000Y-115000000D01*
X108800000Y-116700000D02*
X109200000Y-116700000D01*
X109200000Y-117100000D01*
X108800000Y-117100000D01*
X108800000Y-116700000D01*
X111500000Y-115000000D02*
X113500000Y-115000000D01*
X113500000Y-117100000D01*
X111500000Y-117100000D01*
X111500000Y-115000000D01*
X112300000Y-116700000D02*
X112700000Y-116700000D01*
X112700000Y-117100000D01*
X112300000Y-117100000D01*
X112300000Y-116700000D01*
X115000000Y-114950000D02*
X117000000Y-114950000D01*
X117000000Y-117050000D01*
X115000000Y-117050000D01*
X115000000Y-114950000D01*
X115800000Y-116650000D02*
X116200000Y-116650000D01*
X116200000Y-117050000D01*
X115800000Y-117050000D01*
X115800000Y-116650000D01*
X118500000Y-114950000D02*
X120500000Y-114950000D01*
X120500000Y-117050000D01*
X118500000Y-117050000D01*
X118500000Y-114950000D01*
X119300000Y-116650000D02*
X119700000Y-116650000D01*
X119700000Y-117050000D01*
X119300000Y-117050000D01*
X119300000Y-116650000D01*
D15*
%TO.C,D11*%
X40000000Y-49750000D02*
X40000000Y-42750000D01*
X40000000Y-49750000D02*
X45500000Y-49750000D01*
X43650000Y-43550000D02*
X41850000Y-43550000D01*
X43650000Y-48950000D02*
X41850000Y-48950000D01*
X45050000Y-42750000D02*
X40000000Y-42750000D01*
X45500000Y-43200000D02*
X45050000Y-42750000D01*
X45500000Y-49750000D02*
X45500000Y-43200000D01*
D11*
%TO.C,J20*%
X88316000Y-63766000D02*
X88316000Y-43954000D01*
X102032000Y-43446000D02*
X88824000Y-43446000D01*
X102032000Y-64274000D02*
X88824000Y-64273999D01*
X102540000Y-63766000D02*
X102540000Y-43954000D01*
X88316000Y-43954000D02*
G75*
G02*
X88824000Y-43446000I508000J0D01*
G01*
X88824000Y-64273999D02*
G75*
G02*
X88316001Y-63766000I-2J507997D01*
G01*
X102032000Y-43446000D02*
G75*
G02*
X102540000Y-43954000I0J-508000D01*
G01*
X102540000Y-63766000D02*
G75*
G02*
X102032000Y-64274000I-508001J1D01*
G01*
D16*
%TO.C,U6*%
X58050000Y-42750000D02*
X85950000Y-42750000D01*
X58050000Y-97150000D02*
X58050000Y-42750000D01*
X85950000Y-42750000D02*
X85950000Y-97150000D01*
X85950000Y-97150000D02*
X58050000Y-97150000D01*
D13*
X86700000Y-89760000D02*
G75*
G02*
X86500000Y-89760000I-100000J0D01*
G01*
X86500000Y-89760000D02*
G75*
G02*
X86700000Y-89760000I100000J0D01*
G01*
D11*
%TO.C,J6*%
X81250000Y-163000000D02*
X81250000Y-163250000D01*
X81250000Y-172000000D02*
X81250000Y-171750000D01*
X88250000Y-163000000D02*
X81250000Y-163000000D01*
X88250000Y-163000000D02*
X88250000Y-163250000D01*
X88250000Y-171750000D02*
X88250000Y-172000000D01*
X88250000Y-172000000D02*
X81250000Y-172000000D01*
X81125000Y-171500000D02*
X92375000Y-171500000D01*
X92375000Y-163500000D01*
X81125000Y-163500000D01*
X81125000Y-171500000D01*
X81250000Y-171750000D02*
X88250000Y-171750000D01*
X88250000Y-163250000D01*
X81250000Y-163250000D01*
X81250000Y-171750000D01*
X90250000Y-166750000D02*
X92350000Y-166750000D01*
X92350000Y-164750000D01*
X90250000Y-164750000D01*
X90250000Y-166750000D01*
X90250000Y-170250000D02*
X92350000Y-170250000D01*
X92350000Y-168250000D01*
X90250000Y-168250000D01*
X90250000Y-170250000D01*
X91950000Y-165950000D02*
X92350000Y-165950000D01*
X92350000Y-165550000D01*
X91950000Y-165550000D01*
X91950000Y-165950000D01*
X91950000Y-169450000D02*
X92350000Y-169450000D01*
X92350000Y-169050000D01*
X91950000Y-169050000D01*
X91950000Y-169450000D01*
%TO.C,J14*%
X59500000Y-110750000D02*
X59500000Y-111000000D01*
X59500000Y-123250000D02*
X59500000Y-123000000D01*
X66500000Y-110750000D02*
X59500000Y-110750000D01*
X66500000Y-110750000D02*
X66500000Y-111000000D01*
X66500000Y-123000000D02*
X66500000Y-123250000D01*
X66500000Y-123250000D02*
X59500000Y-123250000D01*
X59375000Y-122750000D02*
X70625000Y-122750000D01*
X70625000Y-111250000D01*
X59375000Y-111250000D01*
X59375000Y-122750000D01*
X59500000Y-123000000D02*
X66500000Y-123000000D01*
X66500000Y-111000000D01*
X59500000Y-111000000D01*
X59500000Y-123000000D01*
X68450000Y-114500000D02*
X70550000Y-114500000D01*
X70550000Y-112500000D01*
X68450000Y-112500000D01*
X68450000Y-114500000D01*
X68500000Y-118000000D02*
X70600000Y-118000000D01*
X70600000Y-116000000D01*
X68500000Y-116000000D01*
X68500000Y-118000000D01*
X68500000Y-121500000D02*
X70600000Y-121500000D01*
X70600000Y-119500000D01*
X68500000Y-119500000D01*
X68500000Y-121500000D01*
X70150000Y-113700000D02*
X70550000Y-113700000D01*
X70550000Y-113300000D01*
X70150000Y-113300000D01*
X70150000Y-113700000D01*
X70200000Y-117200000D02*
X70600000Y-117200000D01*
X70600000Y-116800000D01*
X70200000Y-116800000D01*
X70200000Y-117200000D01*
X70200000Y-120700000D02*
X70600000Y-120700000D01*
X70600000Y-120300000D01*
X70200000Y-120300000D01*
X70200000Y-120700000D01*
%TO.C,U4*%
X31000000Y-70000000D02*
X36500000Y-70000000D01*
X36500000Y-64000000D02*
X31000000Y-64000000D01*
X27500000Y-95000000D02*
X57500000Y-95000000D01*
X57500000Y-55000000D01*
X27500000Y-55000000D01*
X27500000Y-95000000D01*
X32000000Y-94500000D02*
X48000000Y-94500000D01*
X48000000Y-71500000D01*
X32000000Y-71500000D01*
X32000000Y-94500000D01*
X31000000Y-70000000D02*
G75*
G02*
X31000000Y-64000000I0J3000000D01*
G01*
X36500000Y-64000000D02*
G75*
G02*
X36500000Y-70000000I0J-3000000D01*
G01*
X49500000Y-59500000D02*
G75*
G02*
X42500000Y-59500000I-3500000J0D01*
G01*
X42500000Y-59500000D02*
G75*
G02*
X49500000Y-59500000I3500000J0D01*
G01*
X56500000Y-86500000D02*
G75*
G02*
X48500000Y-86500000I-4000000J0D01*
G01*
X48500000Y-86500000D02*
G75*
G02*
X56500000Y-86500000I4000000J0D01*
G01*
%TO.C,U3*%
X31000000Y-115000000D02*
X36500000Y-115000000D01*
X36500000Y-109000000D02*
X31000000Y-109000000D01*
X27500000Y-140000000D02*
X57500000Y-140000000D01*
X57500000Y-100000000D01*
X27500000Y-100000000D01*
X27500000Y-140000000D01*
X32000000Y-139500000D02*
X48000000Y-139500000D01*
X48000000Y-116500000D01*
X32000000Y-116500000D01*
X32000000Y-139500000D01*
X31000000Y-115000000D02*
G75*
G02*
X31000000Y-109000000I0J3000000D01*
G01*
X36500000Y-109000000D02*
G75*
G02*
X36500000Y-115000000I0J-3000000D01*
G01*
X49500000Y-104500000D02*
G75*
G02*
X42500000Y-104500000I-3500000J0D01*
G01*
X42500000Y-104500000D02*
G75*
G02*
X49500000Y-104500000I3500000J0D01*
G01*
X56500000Y-131500000D02*
G75*
G02*
X48500000Y-131500000I-4000000J0D01*
G01*
X48500000Y-131500000D02*
G75*
G02*
X56500000Y-131500000I4000000J0D01*
G01*
%TO.C,J26*%
X106250000Y-80000000D02*
X106500000Y-80000000D01*
X106250000Y-87000000D02*
X106250000Y-80000000D01*
X106500000Y-87000000D02*
X106250000Y-87000000D01*
X122275000Y-80000000D02*
X122025000Y-80000000D01*
X122275000Y-87000000D02*
X122025000Y-87000000D01*
X122275000Y-87000000D02*
X122275000Y-80000000D01*
X106525000Y-80000000D02*
X122025000Y-80000000D01*
X122025000Y-87000000D01*
X106525000Y-87000000D01*
X106525000Y-80000000D01*
X106775000Y-79875000D02*
X121775000Y-79875000D01*
X121775000Y-91125000D01*
X106775000Y-91125000D01*
X106775000Y-79875000D01*
X108000000Y-89000000D02*
X110000000Y-89000000D01*
X110000000Y-91100000D01*
X108000000Y-91100000D01*
X108000000Y-89000000D01*
X108800000Y-90700000D02*
X109200000Y-90700000D01*
X109200000Y-91100000D01*
X108800000Y-91100000D01*
X108800000Y-90700000D01*
X111500000Y-89000000D02*
X113500000Y-89000000D01*
X113500000Y-91100000D01*
X111500000Y-91100000D01*
X111500000Y-89000000D01*
X112300000Y-90700000D02*
X112700000Y-90700000D01*
X112700000Y-91100000D01*
X112300000Y-91100000D01*
X112300000Y-90700000D01*
X115000000Y-88950000D02*
X117000000Y-88950000D01*
X117000000Y-91050000D01*
X115000000Y-91050000D01*
X115000000Y-88950000D01*
X115800000Y-90650000D02*
X116200000Y-90650000D01*
X116200000Y-91050000D01*
X115800000Y-91050000D01*
X115800000Y-90650000D01*
X118500000Y-88950000D02*
X120500000Y-88950000D01*
X120500000Y-91050000D01*
X118500000Y-91050000D01*
X118500000Y-88950000D01*
X119300000Y-90650000D02*
X119700000Y-90650000D01*
X119700000Y-91050000D01*
X119300000Y-91050000D01*
X119300000Y-90650000D01*
%TO.C,J21*%
X73000000Y-110750000D02*
X73000000Y-111000000D01*
X73000000Y-123250000D02*
X73000000Y-123000000D01*
X80000000Y-110750000D02*
X73000000Y-110750000D01*
X80000000Y-110750000D02*
X80000000Y-111000000D01*
X80000000Y-123000000D02*
X80000000Y-123250000D01*
X80000000Y-123250000D02*
X73000000Y-123250000D01*
X72875000Y-122750000D02*
X84125000Y-122750000D01*
X84125000Y-111250000D01*
X72875000Y-111250000D01*
X72875000Y-122750000D01*
X73000000Y-123000000D02*
X80000000Y-123000000D01*
X80000000Y-111000000D01*
X73000000Y-111000000D01*
X73000000Y-123000000D01*
X81950000Y-114500000D02*
X84050000Y-114500000D01*
X84050000Y-112500000D01*
X81950000Y-112500000D01*
X81950000Y-114500000D01*
X82000000Y-118000000D02*
X84100000Y-118000000D01*
X84100000Y-116000000D01*
X82000000Y-116000000D01*
X82000000Y-118000000D01*
X82000000Y-121500000D02*
X84100000Y-121500000D01*
X84100000Y-119500000D01*
X82000000Y-119500000D01*
X82000000Y-121500000D01*
X83650000Y-113700000D02*
X84050000Y-113700000D01*
X84050000Y-113300000D01*
X83650000Y-113300000D01*
X83650000Y-113700000D01*
X83700000Y-117200000D02*
X84100000Y-117200000D01*
X84100000Y-116800000D01*
X83700000Y-116800000D01*
X83700000Y-117200000D01*
X83700000Y-120700000D02*
X84100000Y-120700000D01*
X84100000Y-120300000D01*
X83700000Y-120300000D01*
X83700000Y-120700000D01*
%TO.C,J4*%
X81250000Y-173250000D02*
X81250000Y-173500000D01*
X81250000Y-182250000D02*
X81250000Y-182000000D01*
X88250000Y-173250000D02*
X81250000Y-173250000D01*
X88250000Y-173250000D02*
X88250000Y-173500000D01*
X88250000Y-182000000D02*
X88250000Y-182250000D01*
X88250000Y-182250000D02*
X81250000Y-182250000D01*
X81125000Y-181750000D02*
X92375000Y-181750000D01*
X92375000Y-173750000D01*
X81125000Y-173750000D01*
X81125000Y-181750000D01*
X81250000Y-182000000D02*
X88250000Y-182000000D01*
X88250000Y-173500000D01*
X81250000Y-173500000D01*
X81250000Y-182000000D01*
X90250000Y-177000000D02*
X92350000Y-177000000D01*
X92350000Y-175000000D01*
X90250000Y-175000000D01*
X90250000Y-177000000D01*
X90250000Y-180500000D02*
X92350000Y-180500000D01*
X92350000Y-178500000D01*
X90250000Y-178500000D01*
X90250000Y-180500000D01*
X91950000Y-176200000D02*
X92350000Y-176200000D01*
X92350000Y-175800000D01*
X91950000Y-175800000D01*
X91950000Y-176200000D01*
X91950000Y-179700000D02*
X92350000Y-179700000D01*
X92350000Y-179300000D01*
X91950000Y-179300000D01*
X91950000Y-179700000D01*
D15*
%TO.C,Q1*%
X94175000Y-151100000D02*
X95985000Y-151100000D01*
X94175000Y-152465000D02*
X94175000Y-151100000D01*
X104575000Y-151100000D02*
X102765000Y-151100000D01*
X104575000Y-152465000D02*
X104575000Y-151100000D01*
X103195000Y-148615000D02*
X102725000Y-148275000D01*
X103195000Y-147935000D01*
X103195000Y-148615000D01*
G36*
X103195000Y-148615000D02*
G01*
X102725000Y-148275000D01*
X103195000Y-147935000D01*
X103195000Y-148615000D01*
G37*
%TD*%
M02*
