%TF.GenerationSoftware,KiCad,Pcbnew,9.0.6*%
%TF.CreationDate,2025-12-23T13:14:00+01:00*%
%TF.ProjectId,MainBoard,4d61696e-426f-4617-9264-2e6b69636164,rev?*%
%TF.SameCoordinates,Original*%
%TF.FileFunction,Paste,Top*%
%TF.FilePolarity,Positive*%
%FSLAX46Y46*%
G04 Gerber Fmt 4.6, Leading zero omitted, Abs format (unit mm)*
G04 Created by KiCad (PCBNEW 9.0.6) date 2025-12-23 13:14:00*
%MOMM*%
%LPD*%
G01*
G04 APERTURE LIST*
G04 Aperture macros list*
%AMRoundRect*
0 Rectangle with rounded corners*
0 $1 Rounding radius*
0 $2 $3 $4 $5 $6 $7 $8 $9 X,Y pos of 4 corners*
0 Add a 4 corners polygon primitive as box body*
4,1,4,$2,$3,$4,$5,$6,$7,$8,$9,$2,$3,0*
0 Add four circle primitives for the rounded corners*
1,1,$1+$1,$2,$3*
1,1,$1+$1,$4,$5*
1,1,$1+$1,$6,$7*
1,1,$1+$1,$8,$9*
0 Add four rect primitives between the rounded corners*
20,1,$1+$1,$2,$3,$4,$5,0*
20,1,$1+$1,$4,$5,$6,$7,0*
20,1,$1+$1,$6,$7,$8,$9,0*
20,1,$1+$1,$8,$9,$2,$3,0*%
G04 Aperture macros list end*
%ADD10RoundRect,0.090000X-0.660000X-0.360000X0.660000X-0.360000X0.660000X0.360000X-0.660000X0.360000X0*%
%ADD11RoundRect,0.090000X0.360000X-0.660000X0.360000X0.660000X-0.360000X0.660000X-0.360000X-0.660000X0*%
%ADD12RoundRect,0.250000X2.375000X-2.025000X2.375000X2.025000X-2.375000X2.025000X-2.375000X-2.025000X0*%
%ADD13RoundRect,0.250000X0.300000X-2.050000X0.300000X2.050000X-0.300000X2.050000X-0.300000X-2.050000X0*%
%ADD14RoundRect,0.250000X-2.375000X2.025000X-2.375000X-2.025000X2.375000X-2.025000X2.375000X2.025000X0*%
%ADD15RoundRect,0.250000X-0.300000X2.050000X-0.300000X-2.050000X0.300000X-2.050000X0.300000X2.050000X0*%
G04 APERTURE END LIST*
D10*
%TO.C,D5*%
X78550000Y-102850000D03*
X78550000Y-106150000D03*
X83450000Y-106150000D03*
X83450000Y-102850000D03*
%TD*%
D11*
%TO.C,D10*%
X28950000Y-150750000D03*
X32250000Y-150750000D03*
X32250000Y-145850000D03*
X28950000Y-145850000D03*
%TD*%
D12*
%TO.C,Q10*%
X78225000Y-132825000D03*
X83775000Y-132825000D03*
X78225000Y-127975000D03*
X83775000Y-127975000D03*
D13*
X78460000Y-139550000D03*
X83540000Y-139550000D03*
%TD*%
D11*
%TO.C,D6*%
X117700000Y-48950000D03*
X121000000Y-48950000D03*
X121000000Y-44050000D03*
X117700000Y-44050000D03*
%TD*%
D12*
%TO.C,Q11*%
X102200000Y-131750000D03*
X107750000Y-131750000D03*
X102200000Y-126900000D03*
X107750000Y-126900000D03*
D13*
X102435000Y-138475000D03*
X107515000Y-138475000D03*
%TD*%
D14*
%TO.C,Q3*%
X48750000Y-158000000D03*
X43200000Y-158000000D03*
X48750000Y-162850000D03*
X43200000Y-162850000D03*
D15*
X48515000Y-151275000D03*
X43435000Y-151275000D03*
%TD*%
D14*
%TO.C,Q2*%
X88750000Y-155000000D03*
X83200000Y-155000000D03*
X88750000Y-159850000D03*
X83200000Y-159850000D03*
D15*
X88515000Y-148275000D03*
X83435000Y-148275000D03*
%TD*%
D11*
%TO.C,D7*%
X116850000Y-153950000D03*
X120150000Y-153950000D03*
X120150000Y-149050000D03*
X116850000Y-149050000D03*
%TD*%
%TO.C,D11*%
X41100000Y-48700000D03*
X44400000Y-48700000D03*
X44400000Y-43800000D03*
X41100000Y-43800000D03*
%TD*%
D14*
%TO.C,Q1*%
X102150000Y-155000000D03*
X96600000Y-155000000D03*
X102150000Y-159850000D03*
X96600000Y-159850000D03*
D15*
X101915000Y-148275000D03*
X96835000Y-148275000D03*
%TD*%
M02*
