M48
; DRILL file {KiCad 9.0.6} date 2025-12-26T11:02:35+0100
; FORMAT={-:-/ absolute / metric / decimal}
; #@! TF.CreationDate,2025-12-26T11:02:35+01:00
; #@! TF.GenerationSoftware,Kicad,Pcbnew,9.0.6
; #@! TF.FileFunction,Plated,1,2,PTH
FMAT,2
METRIC
; #@! TA.AperFunction,Plated,PTH,ViaDrill
T1C0.300
; #@! TA.AperFunction,Plated,PTH,ComponentDrill
T2C1.000
; #@! TA.AperFunction,Plated,PTH,ComponentDrill
T3C1.040
; #@! TA.AperFunction,Plated,PTH,ComponentDrill
T4C1.500
; #@! TA.AperFunction,Plated,PTH,ComponentDrill
T5C2.000
; #@! TA.AperFunction,Plated,PTH,ComponentDrill
T6C3.200
%
G90
G05
T1
X29.5Y-178.5
X40.355Y-145.655
X41.0Y-103.5
X41.572Y-141.732
X41.6Y-175.0
X41.863Y-143.44
X42.0Y-53.0
X42.0Y-55.0
X42.0Y-106.5
X42.0Y-109.5
X42.2Y-142.305
X43.0Y-51.5
X43.0Y-55.0
X43.0Y-103.5
X44.0Y-143.0
X45.25Y-148.25
X45.5Y-82.0
X45.855Y-145.845
X47.0Y-85.5
X48.0Y-64.5
X48.5Y-139.5
X48.707Y-148.767
X50.0Y-56.0
X50.55Y-115.9
X52.5Y-81.5
X52.5Y-98.0
X53.0Y-85.5
X53.369Y-64.418
X53.5Y-144.5
X55.0Y-48.5
X55.0Y-153.0
X55.5Y-52.3
X56.235Y-121.406
X56.913Y-98.5
X57.5Y-81.0
X57.5Y-83.5
X57.5Y-96.0
X58.0Y-73.0
X58.232Y-99.375
X58.329Y-95.335
X58.5Y-118.5
X58.5Y-139.3
X59.013Y-98.131
X59.3Y-140.0
X59.996Y-93.564
X60.624Y-111.814
X60.848Y-161.98
X61.0Y-63.25
X61.429Y-44.804
X61.5Y-144.5
X61.669Y-134.831
X61.8Y-157.0
X62.0Y-123.0
X62.0Y-128.5
X62.0Y-160.5
X62.1Y-155.5
X62.5Y-61.0
X62.5Y-154.0
X62.75Y-55.25
X62.895Y-136.905
X63.0Y-124.5
X63.15Y-162.0
X63.2Y-72.845
X63.2Y-75.774
X63.2Y-90.0
X63.2Y-94.0
X63.5Y-59.5
X63.5Y-134.5
X64.0Y-65.5
X64.25Y-63.085
X64.465Y-74.977
X64.901Y-147.3
X65.5Y-156.0
X66.5Y-158.95
X67.0Y-128.5
X67.0Y-133.5
X67.1Y-123.079
X67.2Y-145.664
X67.2Y-149.884
X68.0Y-47.2
X68.3Y-57.0
X68.5Y-143.0
X68.75Y-64.5
X68.75Y-83.5
X69.0Y-53.0
X69.0Y-126.5
X69.5Y-51.5
X69.5Y-134.0
X70.0Y-60.5
X70.5Y-121.0
X70.67Y-139.08
X71.0Y-113.5
X71.16Y-82.874
X71.75Y-62.963
X71.75Y-104.0
X72.5Y-58.5
X72.5Y-127.5
X72.75Y-94.097
X73.5Y-77.0
X73.5Y-106.5
X73.5Y-146.0
X74.0Y-138.5
X76.5Y-108.0
X76.595Y-64.345
X76.749Y-103.0
X76.829Y-53.603
X77.5Y-63.5
X77.65Y-92.312
X77.75Y-78.5
X77.812Y-90.25
X77.85Y-96.24
X77.972Y-80.4
X77.972Y-79.438
X78.0Y-62.0
X78.25Y-87.763
X78.3Y-53.024
X78.32Y-92.835
X78.5Y-56.5
X78.5Y-143.5
X78.7Y-101.437
X78.95Y-62.563
X79.072Y-82.612
X79.7Y-96.973
X79.749Y-92.545
X79.795Y-52.529
X79.811Y-51.679
X79.915Y-113.425
X80.272Y-70.679
X81.121Y-60.415
X81.129Y-77.307
X81.383Y-70.947
X81.659Y-50.755
X82.5Y-117.0
X82.5Y-123.0
X82.823Y-57.937
X82.831Y-100.169
X83.021Y-60.191
X83.255Y-112.755
X83.45Y-107.5
X83.812Y-114.3
X85.559Y-102.069
X85.682Y-70.373
X86.112Y-83.38
X86.5Y-105.0
X86.598Y-75.5
X86.814Y-98.754
X87.0Y-63.0
X87.5Y-57.5
X87.781Y-78.859
X87.863Y-80.975
X88.0Y-124.0
X88.16Y-61.111
X88.5Y-66.5
X88.556Y-78.509
X88.6Y-76.0
X89.264Y-80.401
X89.5Y-90.0
X90.0Y-76.849
X90.225Y-174.725
X90.28Y-138.72
X91.0Y-57.0
X91.5Y-105.0
X91.662Y-139.141
X91.672Y-166.032
X92.5Y-139.0
X92.5Y-175.0
X92.6Y-165.547
X92.696Y-76.165
X92.924Y-156.459
X93.0Y-55.5
X93.0Y-158.5
X93.0Y-170.0
X93.475Y-161.5
X94.0Y-45.0
X94.0Y-51.0
X94.0Y-165.5
X95.0Y-100.5
X95.8Y-61.197
X96.0Y-65.75
X96.138Y-58.33
X97.0Y-113.5
X97.8Y-61.558
X98.0Y-121.5
X98.365Y-60.061
X99.5Y-66.0
X99.5Y-115.0
X99.5Y-141.0
X100.0Y-93.5
X100.5Y-150.5
X100.5Y-151.5
X101.5Y-116.5
X101.5Y-173.5
X101.719Y-141.075
X101.925Y-145.3
X102.0Y-69.0
X105.0Y-115.7
X105.4Y-55.3
X105.5Y-76.5
X105.5Y-121.0
X105.72Y-111.78
X106.0Y-118.0
X107.0Y-86.0
X107.834Y-116.2
X107.982Y-117.6
X109.0Y-119.8
X109.0Y-121.2
X109.0Y-180.0
X109.369Y-172.615
X109.5Y-164.5
X109.776Y-165.526
X110.0Y-121.5
X110.5Y-62.0
X110.899Y-120.468
X111.0Y-115.5
X111.0Y-134.1
X111.0Y-171.3
X111.9Y-150.5
X112.0Y-151.3
X112.0Y-178.0
X114.101Y-65.5
X116.75Y-146.5
X117.0Y-150.9
X118.0Y-66.5
X118.75Y-113.0
X120.15Y-152.15
X120.55Y-67.626
X121.7Y-146.5
T2
X101.016Y-44.97
X101.016Y-47.51
X101.016Y-50.05
X101.016Y-52.59
X101.016Y-55.13
X101.016Y-57.67
X101.016Y-60.21
X101.016Y-62.75
T3
X59.3Y-44.04
X59.3Y-46.58
X59.3Y-49.12
X59.3Y-51.66
X59.3Y-54.2
X59.3Y-56.74
X59.3Y-59.28
X59.3Y-61.82
X59.3Y-64.36
X59.3Y-66.9
X59.3Y-69.44
X59.3Y-71.98
X59.3Y-74.52
X59.3Y-77.06
X59.3Y-79.6
X59.3Y-82.14
X59.3Y-84.68
X59.3Y-87.22
X59.3Y-89.76
X84.7Y-44.04
X84.7Y-46.58
X84.7Y-49.12
X84.7Y-51.66
X84.7Y-54.2
X84.7Y-56.74
X84.7Y-59.28
X84.7Y-61.82
X84.7Y-64.36
X84.7Y-66.9
X84.7Y-69.44
X84.7Y-71.98
X84.7Y-74.52
X84.7Y-77.06
X84.7Y-79.6
X84.7Y-82.14
X84.7Y-84.68
X84.7Y-87.22
X84.7Y-89.76
T4
X31.75Y-169.25
X31.75Y-172.75
X31.75Y-176.25
X31.75Y-179.75
X44.75Y-169.25
X44.75Y-172.75
X44.75Y-176.25
X44.75Y-179.75
X55.0Y-147.5
X57.75Y-169.262
X57.75Y-172.762
X57.75Y-176.262
X57.75Y-179.762
X58.0Y-159.25
X58.0Y-162.75
X58.5Y-147.5
X62.0Y-131.5
X62.0Y-147.5
X63.5Y-100.5
X63.5Y-104.0
X63.5Y-107.5
X63.5Y-113.5
X63.5Y-117.0
X63.5Y-120.5
X65.5Y-131.5
X69.0Y-131.5
X70.5Y-142.762
X70.5Y-146.262
X70.5Y-149.762
X70.5Y-153.262
X70.75Y-169.25
X70.75Y-172.75
X70.75Y-176.25
X70.75Y-179.75
X71.0Y-159.0
X71.0Y-162.5
X77.0Y-113.5
X77.0Y-117.0
X77.0Y-120.5
X85.25Y-165.75
X85.25Y-169.25
X85.25Y-176.0
X85.25Y-179.5
X89.3Y-84.0
X89.375Y-97.0
X89.375Y-110.0
X92.5Y-71.0
X92.8Y-84.0
X92.875Y-97.0
X92.875Y-110.0
X94.0Y-126.75
X94.0Y-130.25
X94.0Y-133.75
X94.0Y-137.25
X94.0Y-140.75
X96.0Y-71.0
X96.3Y-84.0
X96.375Y-97.0
X96.375Y-110.0
X98.5Y-165.75
X98.5Y-169.25
X99.5Y-71.0
X99.8Y-84.0
X99.875Y-97.0
X99.875Y-110.0
X103.0Y-71.0
X103.3Y-84.0
X103.375Y-97.0
X103.375Y-110.0
X108.75Y-71.0
X109.0Y-84.0
X109.0Y-97.0
X109.0Y-110.0
X109.1Y-58.0
X112.25Y-71.0
X112.5Y-84.0
X112.5Y-97.0
X112.5Y-110.0
X112.6Y-58.0
X115.75Y-71.0
X116.0Y-84.0
X116.0Y-97.0
X116.0Y-110.0
X116.1Y-58.0
X118.25Y-125.75
X118.25Y-129.25
X118.25Y-132.75
X118.25Y-136.25
X118.25Y-139.75
X118.25Y-143.25
X118.25Y-162.25
X118.25Y-165.75
X118.25Y-169.25
X118.25Y-172.75
X118.25Y-176.25
X118.25Y-179.75
X119.25Y-71.0
X119.5Y-84.0
X119.5Y-97.0
X119.5Y-110.0
X119.6Y-58.0
T5
X29.65Y-58.5
X29.65Y-93.0
X29.65Y-103.4
X29.65Y-137.9
X55.65Y-57.0
X55.65Y-93.0
X55.65Y-101.9
X55.65Y-137.9
T6
X90.856Y-45.986
X90.856Y-61.734
M30
