%TF.GenerationSoftware,KiCad,Pcbnew,9.0.6*%
%TF.CreationDate,2025-12-23T16:03:19+01:00*%
%TF.ProjectId,MainBoard,4d61696e-426f-4617-9264-2e6b69636164,rev?*%
%TF.SameCoordinates,Original*%
%TF.FileFunction,Soldermask,Bot*%
%TF.FilePolarity,Negative*%
%FSLAX46Y46*%
G04 Gerber Fmt 4.6, Leading zero omitted, Abs format (unit mm)*
G04 Created by KiCad (PCBNEW 9.0.6) date 2025-12-23 16:03:19*
%MOMM*%
%LPD*%
G01*
G04 APERTURE LIST*
G04 Aperture macros list*
%AMRoundRect*
0 Rectangle with rounded corners*
0 $1 Rounding radius*
0 $2 $3 $4 $5 $6 $7 $8 $9 X,Y pos of 4 corners*
0 Add a 4 corners polygon primitive as box body*
4,1,4,$2,$3,$4,$5,$6,$7,$8,$9,$2,$3,0*
0 Add four circle primitives for the rounded corners*
1,1,$1+$1,$2,$3*
1,1,$1+$1,$4,$5*
1,1,$1+$1,$6,$7*
1,1,$1+$1,$8,$9*
0 Add four rect primitives between the rounded corners*
20,1,$1+$1,$2,$3,$4,$5,0*
20,1,$1+$1,$4,$5,$6,$7,0*
20,1,$1+$1,$6,$7,$8,$9,0*
20,1,$1+$1,$8,$9,$2,$3,0*%
G04 Aperture macros list end*
%ADD10C,2.500000*%
%ADD11C,3.200000*%
%ADD12C,4.000000*%
%ADD13C,2.000000*%
%ADD14RoundRect,0.102000X0.780000X0.780000X-0.780000X0.780000X-0.780000X-0.780000X0.780000X-0.780000X0*%
%ADD15C,1.764000*%
%ADD16RoundRect,0.570000X1.330000X-1.330000X1.330000X1.330000X-1.330000X1.330000X-1.330000X-1.330000X0*%
%ADD17RoundRect,0.150000X-0.150000X0.587500X-0.150000X-0.587500X0.150000X-0.587500X0.150000X0.587500X0*%
%ADD18RoundRect,0.250000X-0.625000X0.400000X-0.625000X-0.400000X0.625000X-0.400000X0.625000X0.400000X0*%
%ADD19RoundRect,0.250000X-0.400000X-0.625000X0.400000X-0.625000X0.400000X0.625000X-0.400000X0.625000X0*%
%ADD20RoundRect,0.250000X0.625000X-0.400000X0.625000X0.400000X-0.625000X0.400000X-0.625000X-0.400000X0*%
%ADD21RoundRect,0.250000X-0.650000X1.000000X-0.650000X-1.000000X0.650000X-1.000000X0.650000X1.000000X0*%
%ADD22RoundRect,0.249999X0.450001X1.425001X-0.450001X1.425001X-0.450001X-1.425001X0.450001X-1.425001X0*%
%ADD23RoundRect,0.250000X0.400000X0.625000X-0.400000X0.625000X-0.400000X-0.625000X0.400000X-0.625000X0*%
%ADD24RoundRect,0.150000X-0.587500X-0.150000X0.587500X-0.150000X0.587500X0.150000X-0.587500X0.150000X0*%
%ADD25RoundRect,0.250000X-0.412500X-0.650000X0.412500X-0.650000X0.412500X0.650000X-0.412500X0.650000X0*%
%ADD26RoundRect,0.075000X-0.075000X0.650000X-0.075000X-0.650000X0.075000X-0.650000X0.075000X0.650000X0*%
%ADD27RoundRect,0.249999X-1.425001X0.450001X-1.425001X-0.450001X1.425001X-0.450001X1.425001X0.450001X0*%
%ADD28RoundRect,0.250000X0.650000X-0.412500X0.650000X0.412500X-0.650000X0.412500X-0.650000X-0.412500X0*%
%ADD29RoundRect,0.150000X0.875000X0.150000X-0.875000X0.150000X-0.875000X-0.150000X0.875000X-0.150000X0*%
%ADD30RoundRect,0.075000X0.650000X0.075000X-0.650000X0.075000X-0.650000X-0.075000X0.650000X-0.075000X0*%
%ADD31RoundRect,0.250000X1.000000X0.650000X-1.000000X0.650000X-1.000000X-0.650000X1.000000X-0.650000X0*%
%ADD32RoundRect,0.250000X0.412500X0.650000X-0.412500X0.650000X-0.412500X-0.650000X0.412500X-0.650000X0*%
%ADD33RoundRect,0.075000X-0.650000X-0.075000X0.650000X-0.075000X0.650000X0.075000X-0.650000X0.075000X0*%
%ADD34RoundRect,0.249999X-0.450001X-1.425001X0.450001X-1.425001X0.450001X1.425001X-0.450001X1.425001X0*%
%ADD35RoundRect,0.150000X0.150000X-0.825000X0.150000X0.825000X-0.150000X0.825000X-0.150000X-0.825000X0*%
G04 APERTURE END LIST*
D10*
%TO.C,J12*%
X62000000Y-131500000D03*
X65500000Y-131500000D03*
X69000000Y-131500000D03*
%TD*%
%TO.C,J16*%
X89300000Y-84000000D03*
X92800000Y-84000000D03*
X96300000Y-84000000D03*
X99800000Y-84000000D03*
X103300000Y-84000000D03*
%TD*%
%TO.C,J11*%
X55000000Y-147500000D03*
X58500000Y-147500000D03*
X62000000Y-147500000D03*
%TD*%
D11*
%TO.C,REF\u002A\u002A*%
X110000000Y-155000000D03*
%TD*%
D10*
%TO.C,J2*%
X57750000Y-179762500D03*
X57750000Y-176262500D03*
X57750000Y-172762500D03*
X57750000Y-169262500D03*
%TD*%
%TO.C,J3*%
X118250000Y-162250000D03*
X118250000Y-165750000D03*
X118250000Y-169250000D03*
X118250000Y-172750000D03*
X118250000Y-176250000D03*
X118250000Y-179750000D03*
%TD*%
D11*
%TO.C,REF\u002A\u002A*%
X35000000Y-50000000D03*
%TD*%
D10*
%TO.C,J25*%
X108750000Y-71000000D03*
X112250000Y-71000000D03*
X115750000Y-71000000D03*
X119250000Y-71000000D03*
%TD*%
%TO.C,J22*%
X63500000Y-107500000D03*
X63500000Y-104000000D03*
X63500000Y-100500000D03*
%TD*%
%TO.C,J24*%
X109100000Y-58000000D03*
X112600000Y-58000000D03*
X116100000Y-58000000D03*
X119600000Y-58000000D03*
%TD*%
%TO.C,J10*%
X58000000Y-162750000D03*
X58000000Y-159250000D03*
%TD*%
%TO.C,J17*%
X94000000Y-126750000D03*
X94000000Y-130250000D03*
X94000000Y-133750000D03*
X94000000Y-137250000D03*
X94000000Y-140750000D03*
%TD*%
%TO.C,J23*%
X89375000Y-110000000D03*
X92875000Y-110000000D03*
X96375000Y-110000000D03*
X99875000Y-110000000D03*
X103375000Y-110000000D03*
%TD*%
%TO.C,J7*%
X44750000Y-179750000D03*
X44750000Y-176250000D03*
X44750000Y-172750000D03*
X44750000Y-169250000D03*
%TD*%
%TO.C,J9*%
X71000000Y-162500000D03*
X71000000Y-159000000D03*
%TD*%
%TO.C,J13*%
X70500000Y-153262500D03*
X70500000Y-149762500D03*
X70500000Y-146262500D03*
X70500000Y-142762500D03*
%TD*%
%TO.C,J5*%
X98500000Y-169250000D03*
X98500000Y-165750000D03*
%TD*%
D11*
%TO.C,REF\u002A\u002A*%
X110000000Y-50000000D03*
%TD*%
D10*
%TO.C,J15*%
X92500000Y-71000000D03*
X96000000Y-71000000D03*
X99500000Y-71000000D03*
X103000000Y-71000000D03*
%TD*%
%TO.C,J27*%
X109000000Y-97000000D03*
X112500000Y-97000000D03*
X116000000Y-97000000D03*
X119500000Y-97000000D03*
%TD*%
%TO.C,J18*%
X118250000Y-125750000D03*
X118250000Y-129250000D03*
X118250000Y-132750000D03*
X118250000Y-136250000D03*
X118250000Y-139750000D03*
X118250000Y-143250000D03*
%TD*%
%TO.C,J19*%
X89375000Y-97000000D03*
X92875000Y-97000000D03*
X96375000Y-97000000D03*
X99875000Y-97000000D03*
X103375000Y-97000000D03*
%TD*%
%TO.C,J8*%
X31750000Y-179750000D03*
X31750000Y-176250000D03*
X31750000Y-172750000D03*
X31750000Y-169250000D03*
%TD*%
%TO.C,J1*%
X70750000Y-179750000D03*
X70750000Y-176250000D03*
X70750000Y-172750000D03*
X70750000Y-169250000D03*
%TD*%
%TO.C,J28*%
X109000000Y-110000000D03*
X112500000Y-110000000D03*
X116000000Y-110000000D03*
X119500000Y-110000000D03*
%TD*%
D12*
%TO.C,J20*%
X90856000Y-61734000D03*
X90856000Y-45986000D03*
D13*
X101016000Y-62750000D03*
X101016000Y-60210000D03*
X101016000Y-57670000D03*
X101016000Y-55130000D03*
X101016000Y-52590000D03*
X101016000Y-50050000D03*
X101016000Y-47510000D03*
X101016000Y-44970000D03*
%TD*%
D14*
%TO.C,U6*%
X84700000Y-89760000D03*
D15*
X84700000Y-87220000D03*
X84700000Y-84680000D03*
X84700000Y-82140000D03*
X84700000Y-79600000D03*
X84700000Y-77060000D03*
X84700000Y-74520000D03*
X84700000Y-71980000D03*
X84700000Y-69440000D03*
X84700000Y-66900000D03*
X84700000Y-64360000D03*
X84700000Y-61820000D03*
X84700000Y-59280000D03*
X84700000Y-56740000D03*
X84700000Y-54200000D03*
X84700000Y-51660000D03*
X84700000Y-49120000D03*
X84700000Y-46580000D03*
X84700000Y-44040000D03*
X59300000Y-89760000D03*
X59300000Y-87220000D03*
X59300000Y-84680000D03*
X59300000Y-82140000D03*
X59300000Y-79600000D03*
X59300000Y-77060000D03*
X59300000Y-74520000D03*
X59300000Y-71980000D03*
X59300000Y-69440000D03*
X59300000Y-66900000D03*
X59300000Y-64360000D03*
X59300000Y-61820000D03*
X59300000Y-59280000D03*
X59300000Y-56740000D03*
X59300000Y-54200000D03*
X59300000Y-51660000D03*
X59300000Y-49120000D03*
X59300000Y-46580000D03*
X59300000Y-44040000D03*
%TD*%
D10*
%TO.C,J6*%
X85250000Y-169250000D03*
X85250000Y-165750000D03*
%TD*%
%TO.C,J14*%
X63500000Y-120500000D03*
X63500000Y-117000000D03*
X63500000Y-113500000D03*
%TD*%
D16*
%TO.C,U4*%
X29650000Y-93000000D03*
X29650000Y-58500000D03*
X55650000Y-93000000D03*
X55650000Y-57000000D03*
%TD*%
%TO.C,U3*%
X29650000Y-137900000D03*
X29650000Y-103400000D03*
X55650000Y-137900000D03*
X55650000Y-101900000D03*
%TD*%
D11*
%TO.C,REF\u002A\u002A*%
X35000000Y-155000000D03*
%TD*%
D10*
%TO.C,J26*%
X109000000Y-84000000D03*
X112500000Y-84000000D03*
X116000000Y-84000000D03*
X119500000Y-84000000D03*
%TD*%
%TO.C,J21*%
X77000000Y-120500000D03*
X77000000Y-117000000D03*
X77000000Y-113500000D03*
%TD*%
%TO.C,J4*%
X85250000Y-179500000D03*
X85250000Y-176000000D03*
%TD*%
D17*
%TO.C,Q5*%
X61550000Y-141562500D03*
X63450000Y-141562500D03*
X62500000Y-143437500D03*
%TD*%
D18*
%TO.C,R6*%
X82000000Y-65950000D03*
X82000000Y-69050000D03*
%TD*%
D19*
%TO.C,R16*%
X112950000Y-106500000D03*
X116050000Y-106500000D03*
%TD*%
D20*
%TO.C,R12*%
X116500000Y-64050000D03*
X116500000Y-60950000D03*
%TD*%
D21*
%TO.C,D2*%
X74500000Y-159000000D03*
X74500000Y-163000000D03*
%TD*%
%TO.C,D3*%
X54500000Y-159000000D03*
X54500000Y-163000000D03*
%TD*%
%TO.C,D8*%
X89500000Y-126500000D03*
X89500000Y-130500000D03*
%TD*%
%TO.C,D1*%
X103000000Y-165500000D03*
X103000000Y-169500000D03*
%TD*%
D22*
%TO.C,R9*%
X121000000Y-120000000D03*
X114900000Y-120000000D03*
%TD*%
D23*
%TO.C,R5*%
X66000000Y-53000000D03*
X62900000Y-53000000D03*
%TD*%
D20*
%TO.C,R14*%
X116500000Y-90550000D03*
X116500000Y-87450000D03*
%TD*%
D24*
%TO.C,Q8*%
X66000000Y-149900000D03*
X66000000Y-148000000D03*
X67875000Y-148950000D03*
%TD*%
D25*
%TO.C,C2*%
X90000000Y-81500000D03*
X93125000Y-81500000D03*
%TD*%
D26*
%TO.C,U5*%
X61000000Y-158800000D03*
X61500000Y-158800000D03*
X62000000Y-158800000D03*
X62500000Y-158800000D03*
X63000000Y-158800000D03*
X63000000Y-163200000D03*
X62500000Y-163200000D03*
X62000000Y-163200000D03*
X61500000Y-163200000D03*
X61000000Y-163200000D03*
%TD*%
D25*
%TO.C,C4*%
X60937500Y-155500000D03*
X64062500Y-155500000D03*
%TD*%
D21*
%TO.C,D9*%
X114000000Y-125500000D03*
X114000000Y-129500000D03*
%TD*%
D17*
%TO.C,Q6*%
X64550000Y-124625000D03*
X66450000Y-124625000D03*
X65500000Y-126500000D03*
%TD*%
D27*
%TO.C,R2*%
X66500000Y-158950000D03*
X66500000Y-165050000D03*
%TD*%
D20*
%TO.C,R13*%
X116500000Y-77000000D03*
X116500000Y-73900000D03*
%TD*%
D28*
%TO.C,C1*%
X88500000Y-71562500D03*
X88500000Y-68437500D03*
%TD*%
D23*
%TO.C,R3*%
X66100000Y-47000000D03*
X63000000Y-47000000D03*
%TD*%
D20*
%TO.C,R15*%
X116000000Y-103050000D03*
X116000000Y-99950000D03*
%TD*%
D29*
%TO.C,U8*%
X75300000Y-55530000D03*
X75300000Y-56800000D03*
X75300000Y-58070000D03*
X75300000Y-59340000D03*
X75300000Y-60610000D03*
X75300000Y-61880000D03*
X75300000Y-63150000D03*
X75300000Y-64420000D03*
X75300000Y-65690000D03*
X75300000Y-66960000D03*
X75300000Y-68230000D03*
X75300000Y-69500000D03*
X75300000Y-70770000D03*
X75300000Y-72040000D03*
X66000000Y-72040000D03*
X66000000Y-70770000D03*
X66000000Y-69500000D03*
X66000000Y-68230000D03*
X66000000Y-66960000D03*
X66000000Y-65690000D03*
X66000000Y-64420000D03*
X66000000Y-63150000D03*
X66000000Y-61880000D03*
X66000000Y-60610000D03*
X66000000Y-59340000D03*
X66000000Y-58070000D03*
X66000000Y-56800000D03*
X66000000Y-55530000D03*
%TD*%
D23*
%TO.C,R4*%
X66100000Y-50000000D03*
X63000000Y-50000000D03*
%TD*%
D29*
%TO.C,U7*%
X75300000Y-77030000D03*
X75300000Y-78300000D03*
X75300000Y-79570000D03*
X75300000Y-80840000D03*
X75300000Y-82110000D03*
X75300000Y-83380000D03*
X75300000Y-84650000D03*
X75300000Y-85920000D03*
X75300000Y-87190000D03*
X75300000Y-88460000D03*
X75300000Y-89730000D03*
X75300000Y-91000000D03*
X75300000Y-92270000D03*
X75300000Y-93540000D03*
X66000000Y-93540000D03*
X66000000Y-92270000D03*
X66000000Y-91000000D03*
X66000000Y-89730000D03*
X66000000Y-88460000D03*
X66000000Y-87190000D03*
X66000000Y-85920000D03*
X66000000Y-84650000D03*
X66000000Y-83380000D03*
X66000000Y-82110000D03*
X66000000Y-80840000D03*
X66000000Y-79570000D03*
X66000000Y-78300000D03*
X66000000Y-77030000D03*
%TD*%
D25*
%TO.C,C6*%
X116875000Y-115000000D03*
X120000000Y-115000000D03*
%TD*%
D17*
%TO.C,Q4*%
X57100000Y-141562500D03*
X59000000Y-141562500D03*
X58050000Y-143437500D03*
%TD*%
D30*
%TO.C,U9*%
X107200000Y-119500000D03*
X107200000Y-120000000D03*
X107200000Y-120500000D03*
X107200000Y-121000000D03*
X107200000Y-121500000D03*
X102800000Y-121500000D03*
X102800000Y-121000000D03*
X102800000Y-120500000D03*
X102800000Y-120000000D03*
X102800000Y-119500000D03*
%TD*%
D25*
%TO.C,C3*%
X95937500Y-172500000D03*
X99062500Y-172500000D03*
%TD*%
D31*
%TO.C,D4*%
X78500000Y-99500000D03*
X74500000Y-99500000D03*
%TD*%
D26*
%TO.C,U2*%
X91000000Y-167300000D03*
X91500000Y-167300000D03*
X92000000Y-167300000D03*
X92500000Y-167300000D03*
X93000000Y-167300000D03*
X93000000Y-171700000D03*
X92500000Y-171700000D03*
X92000000Y-171700000D03*
X91500000Y-171700000D03*
X91000000Y-171700000D03*
%TD*%
D17*
%TO.C,Q7*%
X69000000Y-124625000D03*
X70900000Y-124625000D03*
X69950000Y-126500000D03*
%TD*%
D19*
%TO.C,R10*%
X66500000Y-104000000D03*
X69600000Y-104000000D03*
%TD*%
D32*
%TO.C,C5*%
X106625000Y-116500000D03*
X103500000Y-116500000D03*
%TD*%
D23*
%TO.C,R11*%
X69550000Y-100500000D03*
X66450000Y-100500000D03*
%TD*%
D24*
%TO.C,Q9*%
X66000000Y-145000000D03*
X66000000Y-143100000D03*
X67875000Y-144050000D03*
%TD*%
D18*
%TO.C,R7*%
X79500000Y-65900000D03*
X79500000Y-69000000D03*
%TD*%
D33*
%TO.C,U10*%
X109800000Y-117000000D03*
X109800000Y-116500000D03*
X109800000Y-116000000D03*
X109800000Y-115500000D03*
X109800000Y-115000000D03*
X114200000Y-115000000D03*
X114200000Y-115500000D03*
X114200000Y-116000000D03*
X114200000Y-116500000D03*
X114200000Y-117000000D03*
%TD*%
D34*
%TO.C,R1*%
X88950000Y-176000000D03*
X95050000Y-176000000D03*
%TD*%
D35*
%TO.C,U1*%
X92405000Y-78975000D03*
X91135000Y-78975000D03*
X89865000Y-78975000D03*
X88595000Y-78975000D03*
X88595000Y-74025000D03*
X89865000Y-74025000D03*
X91135000Y-74025000D03*
X92405000Y-74025000D03*
%TD*%
D34*
%TO.C,R8*%
X93950000Y-120500000D03*
X100050000Y-120500000D03*
%TD*%
M02*
